<?xml version="1.0" standalone="no"?>
<!DOCTYPE svg PUBLIC "-//W3C//DTD SVG 1.1//EN" "http://www.w3.org/Graphics/SVG/1.1/DTD/svg11.dtd" >
<svg xmlns="http://www.w3.org/2000/svg">
<metadata>Generated by IcoMoon</metadata>
<defs>
<font id="novicon" horiz-adv-x="1024">
<font-face units-per-em="1024" ascent="960" descent="-64" />
<missing-glyph horiz-adv-x="1024" />
<glyph unicode="&#x20;" horiz-adv-x="512" d="" />
<glyph unicode="&#xe8ff;" glyph-name="train" d="M512 874.667c-170.667 0-341.333-21.333-341.333-170.667v-405.333c0-82.347 66.987-149.333 149.333-149.333l-64-64v-21.333h95.147l85.333 85.333h160.853l85.333-85.333h85.333v21.333l-64 64c82.347 0 149.333 66.987 149.333 149.333v405.333c0 149.333-152.747 170.667-341.333 170.667zM320 234.667c-35.413 0-64 28.587-64 64s28.587 64 64 64 64-28.587 64-64-28.587-64-64-64zM469.333 533.333h-213.333v170.667h213.333v-170.667zM554.667 533.333v170.667h213.333v-170.667h-213.333zM704 234.667c-35.413 0-64 28.587-64 64s28.587 64 64 64 64-28.587 64-64-28.587-64-64-64z" />
<glyph unicode="&#xe900;" glyph-name="doc-check" d="M921.6 606.72c0 5.12 0 10.24-5.12 15.36v0c0 5.12-5.12 10.24-10.24 15.36l-307.2 307.2c-5.12 5.12-10.24 5.12-15.36 10.24 0 0-5.12 0-5.12 0s-5.12 5.12-10.24 5.12h-312.32c-87.040 0-153.6-66.56-153.6-153.6v-716.8c0-87.040 66.56-153.6 153.6-153.6h512c87.040 0 153.6 66.56 153.6 153.6v517.12zM614.4 785.92l133.12-133.12h-81.92c-30.72 0-51.2 20.48-51.2 51.2v81.92zM819.2 89.6c0-30.72-20.48-51.2-51.2-51.2h-512c-30.72 0-51.2 20.48-51.2 51.2v716.8c0 30.72 20.48 51.2 51.2 51.2h256v-153.6c0-87.040 66.56-153.6 153.6-153.6h153.6v-460.8zM629.76 432.64l-168.96-168.96-66.56 66.56c-20.48 20.48-51.2 20.48-71.68 0s-20.48-51.2 0-71.68v0l102.4-102.4c20.48-20.48 51.2-20.48 71.68 0 0 0 0 0 0 0l204.8 204.8c20.48 20.48 20.48 51.2 0 71.68s-51.2 20.48-71.68 0v0z" />
<glyph unicode="&#xe901;" glyph-name="arrow-backward" d="M1024 448c0 281.6-230.4 512-512 512s-512-230.4-512-512c0-281.6 230.4-512 512-512s512 230.4 512 512zM296.96 453.12c0 15.36 5.12 25.6 15.36 30.72l153.6 163.84c15.36 15.36 46.080 15.36 61.44 0s15.36-46.080 0-61.44l-87.040-92.16h240.64c25.6 0 40.96-20.48 40.96-40.96v0c0-25.6-20.48-40.96-40.96-40.96h-240.64l92.16-102.4c15.36-15.36 15.36-46.080 0-61.44s-46.080-15.36-61.44 0l-153.6 168.96c-15.36 10.24-20.48 20.48-20.48 35.84v0z" />
<glyph unicode="&#xe902;" glyph-name="cloud" d="M629.76 335.36l-168.96-168.96-66.56 66.56c-20.48 20.48-51.2 20.48-71.68 0s-20.48-51.2 0-71.68l102.4-102.4c20.48-20.48 51.2-20.48 71.68 0 0 0 0 0 0 0l204.8 204.8c20.48 20.48 20.48 51.2 0 71.68s-51.2 20.48-71.68 0zM839.68 637.44c-76.8 179.2-291.84 266.24-471.040 184.32-117.76-51.2-194.56-158.72-209.92-281.6-107.52-25.6-179.2-138.24-148.48-245.76 15.36-66.56 66.56-122.88 128-143.36 25.6-15.36 56.32-5.12 71.68 20.48s5.12 56.32-20.48 71.68c-5.12 0-10.24 5.12-15.36 5.12-46.080 10.24-71.68 51.2-71.68 92.16 0 56.32 46.080 102.4 102.4 102.4 30.72 0 51.2 20.48 51.2 51.2 0 143.36 117.76 256 256 256 107.52 0 204.8-71.68 240.64-174.080 5.12-15.36 20.48-30.72 40.96-35.84 81.92-15.36 138.24-97.28 122.88-179.2-10.24-56.32-51.2-102.4-112.64-117.76-30.72-5.12-46.080-30.72-46.080-56.32 5.12-25.6 30.72-46.080 56.32-46.080h15.36c138.24 35.84 220.16 174.080 184.32 312.32-20.48 87.040-87.040 153.6-174.080 184.32 0-5.12 0 0 0 0z" />
<glyph unicode="&#xe903;" glyph-name="doc-add" d="M921.6 140.8h-51.2v51.2c0 30.72-20.48 51.2-51.2 51.2s-51.2-20.48-51.2-51.2v-51.2h-51.2c-30.72 0-51.2-20.48-51.2-51.2s20.48-51.2 51.2-51.2h51.2v-51.2c0-30.72 20.48-51.2 51.2-51.2s51.2 20.48 51.2 51.2v51.2h51.2c30.72 0 51.2 20.48 51.2 51.2s-20.48 51.2-51.2 51.2zM563.2 38.4h-358.4c-30.72 0-51.2 20.48-51.2 51.2v716.8c0 30.72 20.48 51.2 51.2 51.2h256v-153.6c0-87.040 66.56-153.6 153.6-153.6h153.6v-153.6c0-30.72 20.48-51.2 51.2-51.2s51.2 20.48 51.2 51.2v209.92c0 5.12 0 10.24-5.12 15.36v0c0 5.12-5.12 10.24-10.24 15.36l-307.2 307.2c-5.12 5.12-10.24 5.12-15.36 10.24 0 0-5.12 0-5.12 0s-5.12 5.12-10.24 5.12h-312.32c-87.040 0-153.6-66.56-153.6-153.6v-716.8c0-87.040 66.56-153.6 153.6-153.6h358.4c30.72 0 51.2 20.48 51.2 51.2s-20.48 51.2-51.2 51.2zM563.2 785.92l133.12-133.12h-81.92c-30.72 0-51.2 20.48-51.2 51.2 0 0 0 81.92 0 81.92zM307.2 652.8c-30.72 0-51.2-20.48-51.2-51.2s20.48-51.2 51.2-51.2h51.2c30.72 0 51.2 20.48 51.2 51.2s-20.48 51.2-51.2 51.2h-51.2zM563.2 243.2h-256c-30.72 0-51.2-20.48-51.2-51.2s20.48-51.2 51.2-51.2h256c30.72 0 51.2 20.48 51.2 51.2s-20.48 51.2-51.2 51.2zM614.4 448h-307.2c-30.72 0-51.2-20.48-51.2-51.2s20.48-51.2 51.2-51.2h307.2c30.72 0 51.2 20.48 51.2 51.2s-20.48 51.2-51.2 51.2z" />
<glyph unicode="&#xe904;" glyph-name="token" d="M471.040 816.64c-10.24 0-20.48-10.24-20.48-25.6v-51.2c0-10.24 10.24-25.6 20.48-25.6s20.48 10.24 20.48 25.6v51.2c5.12 15.36-5.12 25.6-20.48 25.6zM552.96 816.64c-15.36 0-25.6-10.24-25.6-25.6v-51.2c0-10.24 10.24-25.6 20.48-25.6s20.48 10.24 20.48 25.6v51.2c5.12 15.36-5.12 25.6-15.36 25.6zM773.12 673.28c-5.12 5.12-15.36 10.24-25.6 10.24h-71.68v199.68c0 25.6-20.48 40.96-40.96 40.96h-240.64c-25.6 0-40.96-20.48-40.96-40.96v-194.56h-71.68c-25.6 0-40.96-20.48-40.96-40.96v-527.36c0-81.92 66.56-148.48 143.36-148.48h256c76.8 0 143.36 66.56 143.36 148.48v527.36c0 10.24-5.12 20.48-10.24 25.6zM430.080 688.64v158.72h163.84v-158.72h-163.84zM640 48.64h-256c-35.84 0-66.56 30.72-66.56 66.56v491.52h389.12v-491.52c0-35.84-30.72-66.56-66.56-66.56z" />
<glyph unicode="&#xe905;" glyph-name="doc-clip" d="M215.040-64c-117.76 0-215.040 97.28-215.040 215.040v552.96c0 71.68 56.32 128 128 128h40.96c0 71.68 61.44 128 128 128 71.68 0 128-56.32 138.24-128h256c71.68 0 128-56.32 128-128v-471.040h168.96c20.48 0 40.96-15.36 40.96-40.96v-40.96c0-117.76-97.28-215.040-215.040-215.040h-599.040zM808.96 23.040c71.68 0 128 56.32 133.12 128h-512c0-46.080-15.36-92.16-46.080-128h424.96zM128 744.96c-25.6 0-40.96-15.36-40.96-40.96v-552.96c0-71.68 56.32-128 128-128s128 56.32 128 128v40.96c0 25.6 20.48 40.96 40.96 40.96h343.040v471.040c0 25.6-20.48 40.96-40.96 40.96h-302.080c-25.6 0-40.96 20.48-40.96 46.080v40.96c0 25.6-20.48 40.96-40.96 40.96-25.6 0-46.080-15.36-46.080-40.96v-215.040c0-25.6 20.48-40.96 40.96-40.96 25.6 0 40.96 20.48 40.96 40.96 0 25.6 20.48 40.96 40.96 40.96s40.96-20.48 40.96-40.96c0-71.68-56.32-128-128-128-61.44 0-122.88 61.44-122.88 128v128h-40.96z" />
<glyph unicode="&#xe907;" glyph-name="aircraft" d="M962.56 832v15.36c-5.12 40.96-35.84 76.8-76.8 76.8l-10.24 5.12h-5.12c-46.080 0-87.040-15.36-122.88-46.080l-128-133.12h-419.84c-46.080 0-87.040-20.48-112.64-51.2l-20.48-20.48c-10.24-10.24-15.36-30.72-10.24-46.080 0-15.36 10.24-25.6 20.48-30.72v-5.12l317.44-87.040-46.080-51.2-138.24-5.12c-25.6 0-46.080-10.24-56.32-25.6l-10.24-10.24-5.12-10.24c-5.12-10.24-10.24-20.48-5.12-35.84 0-15.36 10.24-25.6 20.48-30.72l179.2-71.68 71.68-194.56c5.12-5.12 15.36-25.6 40.96-25.6 10.24 0 25.6 0 35.84 15.36l15.36 10.24c10.24 15.36 20.48 35.84 20.48 56.32l5.12 143.36 51.2 51.2 81.92-322.56c0-20.48 10.24-30.72 20.48-35.84l10.24-5.12h10.24c10.24 0 25.6 10.24 35.84 15.36l20.48 20.48c25.6 30.72 46.080 76.8 46.080 117.76v450.56l122.88 128c35.84 35.84 51.2 87.040 40.96 138.24zM901.12 826.88c-5.12-35.84-15.36-56.32-35.84-76.8l-133.12-143.36c-10.24-10.24-10.24-20.48-10.24-25.6v-460.8c0-15.36-5.12-30.72-10.24-46.080l-81.92 332.8c0 15.36-15.36 30.72-30.72 30.72h-5.12c-15.36 0-25.6-5.12-30.72-15.36l-102.4-102.4c-5.12-10.24-10.24-15.36-10.24-25.6l-5.12-102.4-40.96 117.76c0 10.24-15.36 25.6-25.6 25.6l-107.52 40.96 97.28 5.12c20.48 0 25.6 10.24 30.72 15.36l97.28 107.52c10.24 10.24 10.24 25.6 10.24 30.72 0 15.36-10.24 30.72-25.6 30.72l-322.56 92.16c15.36 5.12 30.72 10.24 46.080 10.24h440.32c20.48 0 25.6 10.24 30.72 15.36l133.12 138.24c15.36 15.36 35.84 30.72 66.56 25.6h15.36c5.12 0 10.24-5.12 10.24-10.24v-10.24z" />
<glyph unicode="&#xe908;" glyph-name="expand" d="M778.24 586.24c-20.48 20.48-56.32 20.48-76.8 0l-189.44-174.080-189.44 174.080c-20.48 20.48-56.32 20.48-76.8 0-10.24-10.24-15.36-20.48-15.36-35.84s5.12-25.6 15.36-35.84l225.28-209.92c10.24-5.12 25.6-10.24 40.96-10.24s25.6 5.12 35.84 15.36l230.4 209.92c10.24 10.24 15.36 20.48 15.36 35.84 0 10.24-5.12 20.48-15.36 30.72v0z" />
<glyph unicode="&#xe909;" glyph-name="doc-landscape" d="M670.72 857.6h-517.12c-87.040 0-153.6-66.56-153.6-153.6v-512c0-87.040 66.56-153.6 153.6-153.6h716.8c87.040 0 153.6 66.56 153.6 153.6v312.32l-5.12 10.24v5.12c-5.12 5.12-5.12 10.24-10.24 15.36l-307.2 307.2c-5.12 5.12-10.24 10.24-15.36 10.24v0c-5.12 5.12-10.24 5.12-15.36 5.12v0zM716.8 550.4v133.12l133.12-133.12h-133.12zM614.4 755.2v-256c0-30.72 20.48-51.2 51.2-51.2h256v-256c0-30.72-20.48-51.2-51.2-51.2h-716.8c-30.72 0-51.2 20.48-51.2 51.2v512c0 30.72 20.48 51.2 51.2 51.2h460.8z" />
<glyph unicode="&#xe90a;" glyph-name="collapse" d="M778.24 376.32l-230.4 209.92c-10.24 10.24-20.48 15.36-35.84 15.36s-30.72-5.12-40.96-15.36l-225.28-209.92c-10.24-10.24-15.36-20.48-15.36-35.84s5.12-25.6 15.36-35.84c20.48-20.48 56.32-20.48 76.8 0l189.44 179.2 189.44-174.080c10.24-10.24 25.6-15.36 35.84-15.36 15.36 0 25.6 5.12 35.84 15.36s15.36 20.48 15.36 35.84c5.12 10.24 0 25.6-10.24 30.72z" />
<glyph unicode="&#xe90b;" glyph-name="doc" d="M921.6 606.72c0 5.12 0 10.24-5.12 15.36v0c0 5.12-5.12 10.24-10.24 15.36l-307.2 307.2c-5.12 5.12-10.24 5.12-15.36 10.24h-5.12l-10.24 5.12h-312.32c-87.040 0-153.6-66.56-153.6-153.6v-716.8c0-87.040 66.56-153.6 153.6-153.6h512c87.040 0 153.6 66.56 153.6 153.6v517.12zM614.4 785.92l133.12-133.12h-133.12v133.12zM819.2 89.6c0-30.72-20.48-51.2-51.2-51.2h-512c-30.72 0-51.2 20.48-51.2 51.2v716.8c0 30.72 20.48 51.2 51.2 51.2h256v-256c0-30.72 20.48-51.2 51.2-51.2h256v-460.8z" />
<glyph unicode="&#xe90d;" glyph-name="close" d="M583.68 448l322.56 322.56c20.48 20.48 20.48 51.2 0 71.68s-51.2 20.48-71.68 0v0l-322.56-322.56-322.56 322.56c-20.48 20.48-51.2 20.48-71.68 0s-20.48-51.2 0-71.68l322.56-322.56-322.56-322.56c-20.48-20.48-20.48-51.2 0-71.68 0 0 0 0 0 0 20.48-20.48 51.2-20.48 71.68 0 0 0 0 0 0 0l322.56 322.56 322.56-322.56c20.48-20.48 51.2-20.48 71.68 0 0 0 0 0 0 0 20.48 20.48 20.48 51.2 0 71.68 0 0 0 0 0 0l-322.56 322.56z" />
<glyph unicode="&#xe90e;" glyph-name="check-small" d="M778.24 586.24c-20.48 20.48-56.32 20.48-76.8 0l-189.44-174.080-189.44 174.080c-20.48 20.48-56.32 20.48-76.8 0-10.24-10.24-15.36-20.48-15.36-35.84s5.12-25.6 15.36-35.84l225.28-209.92c10.24-5.12 25.6-10.24 40.96-10.24s25.6 5.12 35.84 15.36l230.4 209.92c10.24 10.24 15.36 20.48 15.36 35.84 0 10.24-5.12 20.48-15.36 30.72v0z" />
<glyph unicode="&#xe90f;" glyph-name="exclamation-in-circle" d="M512 704c-28.277 0-51.2-22.923-51.2-51.2v0-204.8c0-28.277 22.923-51.2 51.2-51.2s51.2 22.923 51.2 51.2v0 204.8c0 28.277-22.923 51.2-51.2 51.2v0zM559.104 262.656c-1.224 3.516-2.782 6.563-4.694 9.348l0.086-0.132-6.144 7.68c-9.241 9.121-21.943 14.755-35.961 14.755-7.166 0-13.988-1.472-20.18-4.13l0.333 0.127c-6.506-2.758-12.095-6.376-16.943-10.794l0.047 0.042c-9.121-9.241-14.755-21.943-14.755-35.961 0-7.166 1.472-13.988 4.13-20.18l-0.127 0.333c4.761-12.897 14.751-22.887 27.329-27.545l0.319-0.103c5.725-2.595 12.414-4.108 19.456-4.108s13.731 1.512 19.76 4.23l-0.304-0.122c12.897 4.761 22.887 14.751 27.545 27.329l0.103 0.319c2.51 5.734 4.008 12.409 4.096 19.423v0.033c0.12 1.532 0.188 3.318 0.188 5.12s-0.068 3.588-0.203 5.355l0.014-0.235c-0.961 3.502-2.363 6.567-4.173 9.342l0.077-0.126zM512 960c-282.778 0-512-229.222-512-512s229.222-512 512-512 512 229.222 512 512c0 282.77-229.23 512-512 512v0zM512 38.4c-226.216 0-409.6 183.384-409.6 409.6s183.384 409.6 409.6 409.6v0c226.216 0 409.6-183.384 409.6-409.6s-183.384-409.6-409.6-409.6v0z" />
<glyph unicode="&#xe910;" glyph-name="deposites" d="M926.72 611.84h-30.72c-15.36 30.72-30.72 56.32-51.2 81.92v174.080c0 25.6-20.48 40.96-40.96 40.96-71.68 0-138.24-30.72-184.32-81.92h-245.76c-194.56 0-358.4-148.48-368.64-337.92-5.12-71.68 15.36-148.48 51.2-209.92 35.84-56.32 61.44-112.64 87.040-174.080l30.72-97.28c5.12-15.36 20.48-30.72 40.96-30.72h168.96c25.6 0 40.96 20.48 40.96 40.96v81.92h81.92v-81.92c0-25.6 20.48-40.96 40.96-40.96h168.96c15.36 0 30.72 10.24 35.84 25.6l107.52 209.92c56.32 25.6 107.52 71.68 143.36 122.88 5.12 5.12 5.12 15.36 5.12 25.6v168.96c5.12 46.080-30.72 81.92-81.92 81.92zM926.72 376.32c-15.36-20.48-56.32-66.56-112.64-87.040-10.24-5.12-20.48-10.24-25.6-20.48l-102.4-199.68h-102.4v81.92c0 25.6-20.48 40.96-40.96 40.96h-163.84c-25.6 0-40.96-20.48-40.96-40.96v-81.92h-97.28l-20.48 66.56c-25.6 66.56-56.32 133.12-92.16 189.44-30.72 46.080-46.080 102.4-40.96 158.72 10.24 143.36 133.12 256 286.72 256h266.24c15.36 0 25.6 5.12 35.84 15.36 20.48 30.72 51.2 51.2 87.040 61.44v-138.24c0-10.24 5.12-20.48 10.24-30.72 25.6-25.6 46.080-56.32 56.32-92.16 5.12-15.36 20.48-30.72 40.96-30.72h61.44v-148.48zM778.24 560.64c0-28.277-22.923-51.2-51.2-51.2s-51.2 22.923-51.2 51.2c0 28.277 22.923 51.2 51.2 51.2s51.2-22.923 51.2-51.2z" />
<glyph unicode="&#xe911;" glyph-name="valuta" d="M901.12 622.080h-778.24c-66.56 0-117.76-51.2-117.76-117.76v0-373.76c0-66.56 51.2-117.76 117.76-117.76h778.24c66.56 0 117.76 51.2 117.76 117.76v373.76c0 66.56-51.2 117.76-117.76 117.76zM824.32 99.84h-624.64c-5.12 56.32-51.2 97.28-107.52 97.28v245.76c56.32 0 102.4 40.96 107.52 97.28h629.76c5.12-56.32 51.2-97.28 107.52-97.28v-245.76c-56.32-5.12-102.4-46.080-112.64-97.28zM107.52 535.040v0zM97.28 104.96v0zM512 524.8c-112.64 0-209.92-92.16-209.92-209.92 0-112.64 92.16-209.92 209.92-209.92 112.64 0 209.92 92.16 209.92 209.92 0 56.32-20.48 107.52-61.44 148.48s-92.16 61.44-148.48 61.44v0zM599.040 232.96c-46.080-46.080-128-46.080-174.080 0s-46.080 128 0 174.080c46.080 46.080 128 46.080 174.080 0 25.6-25.6 35.84-56.32 35.84-87.040 0-35.84-15.36-66.56-35.84-87.040v0zM56.32 709.12c0-25.6 20.48-40.96 40.96-40.96h819.2c25.6 0 40.96 20.48 40.96 40.96 0 25.6-20.48 40.96-40.96 40.96h-814.080c-25.6 0-46.080-20.48-46.080-40.96zM870.4 791.040c25.6 0 40.96 20.48 40.96 40.96 0 25.6-20.48 40.96-40.96 40.96h-716.8c-20.48 5.12-40.96-15.36-40.96-35.84 0-25.6 20.48-40.96 40.96-40.96l716.8-5.12z" />
<glyph unicode="&#xe912;" glyph-name="military-bill-small" d="M885.76 294.4c30.72-15.36 51.2-46.080 51.2-76.8 0-46.080-35.84-81.92-81.92-81.92-10.24 0-15.36 0-25.6 5.12v0 0 0h-5.12l-107.52 25.6c-10.24 0-15.36 5.12-20.48 15.36l-30.72 35.84c-15.36 0-30.72 5.12-40.96 5.12l5.12-5.12c46.080-40.96 61.44-66.56 56.32-102.4-5.12-40.96-30.72-51.2-87.040-71.68-5.12 0-10.24-5.12-15.36-5.12-15.36 0-25.6 0-25.6 0 0-15.36-15.36-30.72-30.72-30.72s-30.72 15.36-30.72 30.72v0c0 0-15.36 5.12-35.84 10.24-61.44 15.36-81.92 30.72-87.040 71.68-5.12 35.84 10.24 61.44 56.32 102.4l5.12 5.12c-15.36-5.12-30.72-5.12-40.96-5.12l-30.72-40.96c-5.12-5.12-10.24-10.24-20.48-15.36l-25.6-5.12c10.24-15.36 5.12-35.84-10.24-46.080-5.12-5.12-10.24-5.12-15.36-5.12-10.24 0-20.48 5.12-25.6 10.24l-25.6 20.48-15.36-5.12c-15.36-5.12-35.84 5.12-35.84 25.6v0c0 10.24 0 20.48 10.24 30.72l-112.64 133.12c-10.24 0-25.6 5.12-35.84 20.48-15.36 15.36-5.12 46.080 20.48 66.56s40.96 15.36 61.44-5.12c10.24-10.24 10.24-25.6 5.12-35.84l128-153.6 40.96 5.12 15.36 20.48c-10.24 10.24-15.36 25.6-15.36 40.96-5.12 25.6 5.12 46.080 25.6 71.68-46.080-20.48-92.16-20.48-143.36 5.12-107.52 56.32-143.36 240.64-112.64 414.72 15.36 71.68 30.72 97.28 56.32 102.4 15.36 0 35.84-5.12 46.080-30.72 20.48-40.96 61.44-102.4 112.64-158.72 51.2-61.44 92.16-97.28 102.4-97.28 0 0 0 0 0 5.12 15.36 15.36 15.36 61.44 5.12 81.92-5.12 10.24-15.36 15.36-15.36 15.36-5.12 0-10.24-5.12-20.48-15.36-10.24-15.36-30.72-15.36-46.080 0l-5.12 5.12c-20.48 25.6-25.6 61.44-15.36 87.040 0 15.36 10.24 25.6 15.36 35.84-5.12 20.48-5.12 40.96 5.12 56.32 10.24 20.48 35.84 30.72 66.56 30.72s46.080-5.12 61.44-20.48c10.24-15.36 10.24-30.72 5.12-56.32 30.72-15.36 56.32-40.96 71.68-66.56 20.48 30.72 40.96 51.2 71.68 66.56-5.12 25.6 0 40.96 10.24 56.32 15.36 15.36 30.72 20.48 61.44 20.48s51.2-10.24 66.56-30.72c10.24-15.36 10.24-35.84 5.12-56.32 10.24-10.24 15.36-20.48 15.36-30.72 10.24-30.72 5.12-61.44-15.36-92.16-10.24-15.36-30.72-20.48-46.080-10.24l-5.12 5.12c-10.24 10.24-20.48 15.36-20.48 15.36s-10.24-5.12-15.36-15.36c-10.24-15.36-10.24-61.44 0-81.92 0 0 5.12-5.12 0-5.12 10.24 5.12 51.2 35.84 102.4 97.28 46.080 56.32 92.16 122.88 112.64 158.72 10.24 25.6 30.72 30.72 46.080 30.72 25.6-5.12 46.080-30.72 56.32-102.4 30.72-168.96-5.12-358.4-112.64-414.72-51.2-25.6-92.16-25.6-143.36-5.12 20.48-20.48 30.72-40.96 25.6-71.68 0-15.36-5.12-30.72-15.36-40.96l15.36-20.48 30.72-5.12c0 35.84 20.48 66.56 51.2 76.8v20.48c0 15.36 15.36 30.72 30.72 30.72s30.72-15.36 30.72-30.72l5.12-20.48zM624.64 320c15.36-10.24 25.6-25.6 30.72-40.96 10.24 0 15.36 0 20.48 0 0 0 0 0 0 5.12 0 10.24-5.12 20.48-30.72 40.96v0c-25.6 25.6-35.84 35.84-35.84 61.44 0 15.36 5.12 30.72 20.48 40.96 10.24 10.24 25.6 15.36 40.96 10.24 10.24 0 25.6-5.12 40.96-15.36l10.24-10.24c40.96-25.6 71.68-30.72 107.52-10.24 46.080 25.6 71.68 81.92 81.92 158.72 10.24 71.68 5.12 153.6-5.12 209.92-25.6-40.96-61.44-92.16-102.4-143.36-76.8-92.16-112.64-117.76-143.36-117.76-25.6 0-46.080 15.36-61.44 35.84-25.6 40.96-20.48 112.64 0 148.48 15.36 46.080 35.84 61.44 61.44 61.44 10.24 0 20.48 0 30.72-5.12v0c0 5.12-5.12 10.24-5.12 10.24-15.36 10.24-25.6 25.6-20.48 46.080 0 0 0 0 0 5.12 5.12 10.24 5.12 15.36 5.12 20.48-5.12 0-5.12 0-10.24 0h-5.12v-20.48c10.24-5.12 10.24-5.12 10.24-10.24 0-15.36-5.12-25.6-20.48-35.84-46.080-20.48-76.8-56.32-87.040-107.52-5.12-15.36-15.36-25.6-30.72-25.6s-30.72 10.24-30.72 25.6c-10.24 51.2-40.96 87.040-87.040 107.52-15.36 10.24-25.6 20.48-25.6 35.84v25.6h-5.12c-5.12 0-5.12 0-10.24 0 0-5.12 5.12-10.24 5.12-20.48 10.24-15.36 0-35.84-15.36-40.96 0 0 0 0-5.12 0 0 0-5.12-5.12-5.12-10.24v0c20.48 0 30.72 5.12 40.96 0 25.6 0 46.080-15.36 66.56-46.080 25.6-35.84 25.6-107.52 0-148.48-15.36-25.6-35.84-35.84-61.44-35.84-30.72 0-71.68 25.6-143.36 117.76-40.96 46.080-76.8 97.28-102.4 143.36-15.36-51.2-15.36-138.24-5.12-209.92 10.24-76.8 35.84-138.24 81.92-158.72 40.96-20.48 61.44-15.36 112.64 10.24 40.96 25.6 61.44 30.72 87.040 5.12 15.36-10.24 20.48-25.6 20.48-40.96 0-20.48-10.24-35.84-35.84-61.44v0c-25.6-20.48-30.72-30.72-30.72-40.96 0-5.12 0-5.12 0-5.12 5.12 0 10.24 0 20.48 0 5.12 15.36 15.36 30.72 30.72 40.96s40.96 15.36 66.56 5.12c15.36-5.12 30.72-20.48 35.84-35.84 0-5.12 0-10.24 0-15.36 0 5.12 0 10.24 0 15.36 5.12 15.36 15.36 30.72 35.84 35.84s40.96 0 56.32-10.24v0zM522.24 268.8c0-20.48-10.24-46.080-25.6-66.56-5.12-10.24-15.36-15.36-25.6-25.6l-5.12-5.12c-25.6-25.6-35.84-35.84-35.84-46.080 0 0 10.24-5.12 30.72-10.24l15.36-5.12c25.6-5.12 40.96-10.24 51.2-20.48 15.36 10.24 25.6 15.36 51.2 20.48l15.36 5.12c15.36 5.12 25.6 10.24 30.72 10.24 0 5.12-5.12 20.48-25.6 35.84l-10.24 5.12-5.12 5.12c-10.24 10.24-20.48 15.36-25.6 25.6-20.48 25.6-30.72 51.2-35.84 71.68zM855.040 197.12c10.24 0 20.48 10.24 20.48 20.48s-10.24 20.48-20.48 20.48c-10.24 0-20.48-10.24-20.48-20.48s10.24-20.48 20.48-20.48z" />
<glyph unicode="&#xe913;" glyph-name="blocked" d="M512 960c-282.778 0-512-229.222-512-512s229.222-512 512-512 512 229.222 512 512c0 282.77-229.23 512-512 512v0zM512 38.4c-226.216 0-409.6 183.384-409.6 409.6v0c0 0.149 0 0.327 0 0.504 0 94.881 32.586 182.15 87.178 251.228l-0.65-0.852 573.952-573.952c-68.225-53.942-155.495-86.528-250.376-86.528-0.177 0-0.354 0-0.531 0h0.027zM835.072 197.12l-573.952 573.952c68.225 53.942 155.495 86.528 250.376 86.528 0.177 0 0.354 0 0.531 0h-0.027c226.216 0 409.6-183.384 409.6-409.6v0c0-0.149 0-0.327 0-0.504 0-94.881-32.586-182.15-87.178-251.228l0.65 0.852z" />
<glyph unicode="&#xe914;" glyph-name="plus-in-circle" d="M512 960c-282.778 0-512-229.222-512-512s229.222-512 512-512 512 229.222 512 512c0 282.77-229.23 512-512 512v0zM512 38.4c-226.216 0-409.6 183.384-409.6 409.6s183.384 409.6 409.6 409.6v0c226.216 0 409.6-183.384 409.6-409.6s-183.384-409.6-409.6-409.6v0zM716.8 499.2h-153.6v153.6c0 28.277-22.923 51.2-51.2 51.2s-51.2-22.923-51.2-51.2v0-153.6h-153.6c-28.277 0-51.2-22.923-51.2-51.2s22.923-51.2 51.2-51.2v0h153.6v-153.6c0-28.277 22.923-51.2 51.2-51.2s51.2 22.923 51.2 51.2v0 153.6h153.6c28.277 0 51.2 22.923 51.2 51.2s-22.923 51.2-51.2 51.2v0z" />
<glyph unicode="&#xe919;" glyph-name="ruble-bill" d="M337.92 709.12h-66.56c-20.48 0-35.84-15.36-35.84-30.72s15.36-30.72 35.84-30.72h66.56c20.48 0 35.84 15.36 35.84 30.72s-15.36 30.72-35.84 30.72zM337.92 606.72h-66.56c-20.48 0-35.84-15.36-35.84-30.72s15.36-30.72 35.84-30.72h66.56c20.48 0 35.84 15.36 35.84 30.72s-15.36 30.72-35.84 30.72zM798.72 509.44h-327.68c-15.36 0-30.72-15.36-30.72-30.72s15.36-30.72 30.72-30.72h327.68c15.36 0 30.72 15.36 30.72 30.72s-15.36 30.72-30.72 30.72zM460.8 647.68h327.68c15.36 0 30.72 20.48 30.72 35.84s-15.36 30.72-30.72 30.72h-327.68c-15.36 0-30.72-20.48-30.72-35.84s15.36-30.72 30.72-30.72zM901.12 924.16h-732.16c-15.36 0-30.72-10.24-30.72-25.6v-481.28c-61.44-46.080-102.4-117.76-102.4-199.68 0-138.24 112.64-245.76 245.76-245.76 71.68 0 138.24 35.84 184.32 87.040l51.2-30.72c10.24-5.12 15.36-5.12 20.48-5.12s10.24 0 20.48 10.24l71.68 40.96 71.68-40.96c10.24-5.12 25.6-5.12 35.84 0l71.68 40.96 71.68-40.96c10.24-5.12 20.48-10.24 30.72-5.12s20.48 15.36 20.48 25.6v844.8c0 15.36-10.24 25.6-30.72 25.6zM281.6 28.16c-102.4 0-189.44 87.040-189.44 189.44s81.92 189.44 189.44 189.44 189.44-87.040 189.44-189.44-87.040-189.44-189.44-189.44zM491.52 345.6h307.2c15.36 0 30.72 15.36 30.72 30.72s-15.36 30.72-30.72 30.72h-327.68c-10.24 0-15.36-5.12-20.48-10.24-25.6 25.6-56.32 40.96-92.16 51.2 15.36 5.12 20.48 20.48 20.48 30.72 0 15.36-15.36 30.72-35.84 30.72h-66.56c-20.48 5.12-35.84-5.12-35.84-25.6 0-10.24 5.12-15.36 10.24-25.6-15.36 0-30.72-5.12-46.080-10.24v424.96h660.48v-768l-40.96 25.6c-10.24 5.12-25.6 5.12-35.84 0l-71.68-40.96-71.68 40.96c-10.24 5.12-25.6 5.12-35.84 0l-71.68-40.96-35.84 20.48c15.36 30.72 25.6 66.56 25.6 107.52 0 46.080-15.36 92.16-35.84 128zM788.48 545.28c15.36 0 30.72 20.48 30.72 35.84s-15.36 30.72-30.72 30.72h-327.68c-15.36 0-30.72-20.48-30.72-35.84s15.36-30.72 30.72-30.72h327.68zM312.32 345.6h-71.68c-15.36 0-30.72-10.24-25.6-25.6v-92.16h-5.12c-15.36 0-25.6-10.24-25.6-25.6s10.24-25.6 25.6-25.6h5.12v-5.12h-5.12c-15.36 0-25.6-10.24-25.6-25.6s10.24-25.6 25.6-25.6v-20.48c0-10.24 15.36-25.6 30.72-25.6 10.24 0 25.6 15.36 25.6 30.72v15.36h46.080c10.24 0 25.6 10.24 25.6 25.6s-10.24 25.6-25.6 25.6h-46.080v5.12h46.080c46.080 0 81.92 35.84 81.92 81.92 0 51.2-35.84 87.040-81.92 87.040zM266.24 294.4h46.080c15.36 0 30.72-15.36 30.72-35.84 0-15.36-15.36-30.72-30.72-30.72h-46.080v66.56z" />
<glyph unicode="&#xe91b;" glyph-name="user" d="M701.952 411.648c71.677 56.757 117.248 143.773 117.248 241.433 0 169.662-137.538 307.2-307.2 307.2s-307.2-137.538-307.2-307.2c0-97.66 45.571-184.676 116.608-240.944l0.64-0.489c-172.747-70.547-296.684-227.948-318.245-416.457l-0.219-2.359c-0.197-1.69-0.309-3.648-0.309-5.632 0-28.448 23.061-51.509 51.509-51.509 26.463 0 48.266 19.957 51.178 45.641l0.022 0.236c23.776 205.682 196.934 363.877 407.040 363.877s383.264-158.195 406.861-361.974l0.179-1.903c2.932-25.75 24.596-45.569 50.889-45.569 0.109 0 0.218 0 0.327 0.001h5.615c25.646 3.036 45.347 24.65 45.347 50.864 0 1.922-0.106 3.819-0.312 5.686l0.021-0.23c-21.881 191.391-146.486 349.126-316.569 418.098l-3.431 1.23zM512 448c-113.108 0-204.8 91.692-204.8 204.8s91.692 204.8 204.8 204.8v0c113.108 0 204.8-91.692 204.8-204.8s-91.692-204.8-204.8-204.8v0z" />
<glyph unicode="&#xe91c;" glyph-name="add-template" d="M870.4 821.76h-721.92l-10.24-10.24v-727.040l10.24-10.24h727.040l5.12 15.36v721.92l-10.24 10.24zM665.6 499.2v87.040h138.24v-87.040h-138.24zM665.6 325.12v92.16h138.24v-92.16h-138.24zM803.84 243.2v-87.040h-138.24v87.040h138.24zM435.2 499.2v87.040h158.72v-87.040h-158.72zM435.2 325.12v92.16h158.72v-92.16h-158.72zM593.92 243.2v-87.040h-158.72v87.040h158.72zM215.040 499.2v87.040h143.36v-87.040h-143.36zM215.040 325.12v92.16h143.36v-92.16h-143.36zM358.4 243.2v-87.040h-143.36v87.040h143.36zM808.96 739.84v-71.68h-593.92v71.68h593.92z" />
<glyph unicode="&#xe91d;" glyph-name="doc-pdf" d="M947.2 683.52l-220.16 235.52c-5.12 5.12-10.24 15.36-30.72 15.36h-332.8c-51.2 0-92.16-46.080-92.16-97.28v-220.16h-117.76c-40.96 0-76.8-40.96-76.8-76.8v-266.24c0-46.080 30.72-76.8 76.8-76.8h112.64v-138.24c5.12-56.32 46.080-97.28 92.16-97.28h506.88c51.2 0 92.16 46.080 97.28 102.4v588.8c0 20.48-10.24 25.6-15.36 30.72zM716.8 688.64v112.64l107.52-112.64h-107.52zM348.16 192h266.24c40.96 0 76.8 40.96 76.8 76.8v266.24c0 46.080-30.72 76.8-76.8 76.8h-271.36v225.28c0 5.12 5.12 10.24 15.36 10.24h286.72v-204.8c0-25.6 20.48-40.96 40.96-40.96h194.56v-542.72c0-10.24 0-15.36-10.24-15.36h-506.88c-10.24 0-15.36 5.12-15.36 15.36v133.12zM609.28 524.8v-245.76h-445.44v245.76h445.44zM245.76 366.080h40.96c5.12 0 5.12 5.12 10.24 5.12s5.12 0 5.12 0h10.24v10.24c0 15.36 0 15.36 5.12 20.48 10.24 5.12 10.24 20.48 10.24 30.72v5.12c-5.12 5.12-5.12 5.12-5.12 10.24s-5.12 10.24-5.12 15.36c-10.24 15.36-20.48 20.48-30.72 20.48h-92.16v-174.080h51.2v56.32zM276.48 432.64c0 0 0 0 0-5.12 0 0-5.12 0-5.12-5.12h-30.72v10.24h25.6c5.12 0 10.24 0 10.24 0zM435.2 314.88c0 5.12 5.12 5.12 0 0 10.24 10.24 15.36 10.24 20.48 15.36 5.12 10.24 10.24 20.48 15.36 30.72v35.84c0 15.36 0 25.6-5.12 35.84-5.12 5.12-5.12 10.24-5.12 10.24 0 10.24-5.12 20.48-15.36 25.6l-5.12 5.12c-5.12 5.12-10.24 5.12-15.36 10.24h-10.24c-5.12 5.12-15.36 5.12-20.48 5.12h-61.44v-174.080h66.56c10.24 0 25.6 0 35.84 0zM419.84 417.28v-5.12c5.12 0 5.12-5.12 5.12-10.24-5.12-5.12-5.12-5.12-5.12-10.24s0-10.24-5.12-15.36v-5.12c0-5.12-5.12-10.24-5.12-10.24-5.12 0-5.12 0-5.12 0h-25.6v76.8h25.6c5.12 0 5.12-5.12 10.24-10.24 0-5.12 0-5.12 0-5.12s5.12 0 5.12-5.12zM527.36 376.32h61.44v46.080h-61.44v15.36h66.56v51.2h-117.76v-174.080h51.2z" />
<glyph unicode="&#xe91e;" glyph-name="word" d="M578.56 867.84c0 10.24-5.12 20.48-15.36 25.6s-20.48 5.12-30.72 5.12l-460.8-87.040c-20.48-10.24-35.84-25.6-35.84-46.080v-640c0-20.48 15.36-35.84 35.84-46.080l465.92-87.040h5.12c5.12 0 20.48 0 25.6 15.36 10.24 5.12 15.36 20.48 15.36 30.72v824.32c-5.12 0-5.12 5.12-5.12 5.12zM496.64 801.28v-706.56l-373.76 71.68v568.32l373.76 66.56zM942.080 780.8h-399.36c-25.6 0-46.080-20.48-46.080-40.96 0-25.6 20.48-46.080 46.080-46.080h358.4v-491.52h-358.4c-25.6 0-46.080-20.48-46.080-46.080s20.48-46.080 46.080-46.080h404.48c25.6 0 46.080 20.48 46.080 46.080v588.8c-10.24 20.48-30.72 35.84-51.2 35.84zM829.44 668.16h-286.72c-25.6 0-46.080-20.48-46.080-46.080s20.48-46.080 46.080-46.080h286.72c25.6 0 46.080 20.48 46.080 46.080s-20.48 46.080-46.080 46.080zM829.44 550.4h-286.72c-25.6 0-46.080-20.48-46.080-46.080s20.48-46.080 46.080-46.080h286.72c25.6 0 46.080 20.48 46.080 46.080s-20.48 46.080-46.080 46.080zM829.44 432.64h-286.72c-25.6 0-46.080-20.48-46.080-40.96 0-25.6 20.48-46.080 46.080-46.080h286.72c25.6 0 46.080 20.48 46.080 46.080 0 20.48-20.48 40.96-46.080 40.96zM829.44 320h-286.72c-25.6 0-46.080-20.48-46.080-46.080s20.48-46.080 46.080-46.080h286.72c25.6 0 46.080 20.48 46.080 46.080s-20.48 46.080-46.080 46.080zM430.080 606.72c-25.6 0-46.080-20.48-46.080-40.96l-10.24-76.8-25.6 61.44c-5.12 15.36-20.48 25.6-40.96 25.6-15.36 0-30.72-10.24-40.96-25.6l-20.48-66.56-5.12 25.6c0 20.48-20.48 40.96-46.080 40.96-20.48 0-40.96-20.48-40.96-46.080l30.72-204.8c0-25.6 15.36-40.96 40.96-40.96s40.96 10.24 46.080 30.72l46.080 117.76 35.84-117.76c10.24-15.36 25.6-30.72 46.080-30.72 25.6 0 40.96 15.36 40.96 40.96l30.72 261.12c0 25.6-20.48 46.080-40.96 46.080z" />
<glyph unicode="&#xe91f;" glyph-name="archive" d="M1024 458.24v-384c0-76.8-61.44-138.24-138.24-138.24v0h-747.52c-76.8 0-138.24 61.44-138.24 138.24v747.52c0 76.8 61.44 138.24 138.24 138.24h742.4c81.92 0 143.36-61.44 143.36-138.24v0-363.52zM931.84 494.080v327.68c0 25.6-20.48 46.080-46.080 46.080h-747.52c-25.6 0-46.080-20.48-46.080-46.080v-327.68h839.68zM92.16 401.92v-327.68c0-25.6 20.48-46.080 46.080-46.080h742.4c25.6 0 46.080 20.48 46.080 46.080v327.68h-834.56zM650.24 729.6c0 25.6 20.48 46.080 51.2 46.080 25.6 0 40.96-20.48 46.080-46.080 0-76.8-61.44-138.24-138.24-138.24v0h-189.44c-76.8 0-138.24 61.44-138.24 138.24v0c0 25.6 20.48 46.080 51.2 46.080 25.6 0 40.96-20.48 46.080-46.080 0-25.6 20.48-46.080 46.080-46.080h184.32c20.48-5.12 40.96 20.48 40.96 46.080v0zM650.24 263.68c0 25.6 20.48 46.080 51.2 46.080 25.6 0 40.96-20.48 46.080-46.080 0-76.8-61.44-138.24-138.24-138.24v0h-189.44c-76.8 0-138.24 61.44-138.24 138.24v0c0 25.6 20.48 46.080 51.2 46.080 25.6 0 40.96-20.48 46.080-46.080 0-25.6 20.48-46.080 46.080-46.080h184.32c20.48 0 40.96 20.48 40.96 46.080v0z" />
<glyph unicode="&#xe920;" glyph-name="save" d="M952.32 663.040l-225.28 225.28c-5.12 10.24-20.48 15.36-30.72 15.36h-501.76c-76.8 0-138.24-61.44-138.24-138.24v-634.88c0-76.8 61.44-138.24 138.24-138.24h634.88c76.8 0 138.24 61.44 138.24 138.24v501.76c0 10.24-5.12 20.48-15.36 30.72zM701.44 785.92c0-5.12 0-5.12 0-10.24v-97.28h-368.64v133.12c138.24 0 343.040 0 343.040 0l25.6-25.6zM691.2 84.48h-358.4v271.36h358.4v-271.36zM875.52 130.56c0-25.6-20.48-46.080-46.080-46.080h-40.96v317.44c0 25.6-20.48 46.080-46.080 46.080h-455.68c-25.6 0-46.080-20.48-46.080-46.080v-317.44h-46.080c-25.6 0-46.080 20.48-46.080 46.080v634.88c0 25.6 20.48 46.080 46.080 46.080 0 0 35.84 0 46.080 0v-179.2c0-25.6 20.48-46.080 46.080-46.080h460.8c25.6 0 46.080 20.48 46.080 46.080v61.44l81.92-81.92v-481.28z" />
<glyph unicode="&#xe922;" glyph-name="question-empty" d="M475.648 279.552c-2.095-2.308-4.112-4.812-5.976-7.431l-0.168-0.249c-1.826-2.653-3.384-5.7-4.524-8.943l-0.084-0.273c-1.388-2.665-2.456-5.757-3.042-9.017l-0.030-0.199c-0.12-1.532-0.188-3.318-0.188-5.12s0.068-3.588 0.203-5.355l-0.014 0.235c-0.009-0.33-0.014-0.718-0.014-1.108 0-6.665 1.516-12.976 4.222-18.606l-0.112 0.258c4.761-12.897 14.751-22.887 27.329-27.545l0.319-0.103c5.725-2.595 12.414-4.108 19.456-4.108s13.731 1.512 19.76 4.23l-0.304-0.122c12.897 4.761 22.887 14.751 27.545 27.329l0.103 0.319c1.968 5.223 3.107 11.261 3.107 17.564 0 0.665-0.013 1.328-0.038 1.987l0.003-0.095c0.001 0.088 0.001 0.193 0.001 0.298 0 28.277-22.923 51.2-51.2 51.2-14.213 0-27.073-5.791-36.35-15.142l-0.003-0.003zM512 960c-282.778 0-512-229.222-512-512s229.222-512 512-512 512 229.222 512 512c0 282.77-229.23 512-512 512v0zM512 38.4c-226.216 0-409.6 183.384-409.6 409.6s183.384 409.6 409.6 409.6v0c226.216 0 409.6-183.384 409.6-409.6s-183.384-409.6-409.6-409.6v0zM512 704c-0.029 0-0.064 0-0.098 0-56.554 0-105.969-30.564-132.629-76.075l-0.392-0.725c-5.013-7.776-7.992-17.274-7.992-27.468 0-28.277 22.923-51.2 51.2-51.2 19.601 0 36.629 11.014 45.233 27.191l0.134 0.277c9.017 15.412 25.489 25.6 44.341 25.6 0.071 0 0.143 0 0.214 0h-0.011c28.277 0 51.2-22.923 51.2-51.2s-22.923-51.2-51.2-51.2v0c-28.277 0-51.2-22.923-51.2-51.2v0-51.2c0-28.277 22.923-51.2 51.2-51.2s51.2 22.923 51.2 51.2v0 9.216c59.54 22.055 101.208 78.356 101.208 144.389 0 84.412-68.091 152.92-152.344 153.595h-0.064z" />
<glyph unicode="&#xe925;" glyph-name="tasks" d="M563.2 345.6h-204.8c-30.72 0-51.2-20.48-51.2-51.2s20.48-51.2 51.2-51.2h204.8c30.72 0 51.2 20.48 51.2 51.2s-20.48 51.2-51.2 51.2zM768 857.6h-61.44c-20.48 61.44-81.92 102.4-143.36 102.4h-102.4c-66.56 0-122.88-40.96-143.36-102.4h-61.44c-87.040 0-153.6-66.56-153.6-153.6v-614.4c0-87.040 66.56-153.6 153.6-153.6h512c87.040 0 153.6 66.56 153.6 153.6v614.4c0 87.040-66.56 153.6-153.6 153.6zM409.6 806.4c0 30.72 20.48 51.2 51.2 51.2h102.4c30.72 0 51.2-20.48 51.2-51.2v-51.2h-204.8v51.2zM819.2 89.6c0-30.72-20.48-51.2-51.2-51.2h-512c-30.72 0-51.2 20.48-51.2 51.2v614.4c0 30.72 20.48 51.2 51.2 51.2h51.2v-51.2c0-30.72 20.48-51.2 51.2-51.2h307.2c30.72 0 51.2 20.48 51.2 51.2v51.2h51.2c30.72 0 51.2-20.48 51.2-51.2v-614.4zM665.6 550.4h-307.2c-30.72 0-51.2-20.48-51.2-51.2s20.48-51.2 51.2-51.2h307.2c30.72 0 51.2 20.48 51.2 51.2s-20.48 51.2-51.2 51.2z" />
<glyph unicode="&#xe927;" glyph-name="triangle-in-circle-empty" d="M778.24 586.24c-20.48 20.48-56.32 20.48-76.8 0l-189.44-174.080-189.44 174.080c-20.48 20.48-56.32 20.48-76.8 0-10.24-10.24-15.36-20.48-15.36-35.84s5.12-25.6 15.36-35.84l225.28-209.92c10.24-5.12 25.6-10.24 40.96-10.24s25.6 5.12 35.84 15.36l230.4 209.92c10.24 10.24 15.36 20.48 15.36 35.84 0 10.24-5.12 20.48-15.36 30.72v0z" />
<glyph unicode="&#xe92a;" glyph-name="list" d="M240.64 673.28c0-31.105-25.215-56.32-56.32-56.32s-56.32 25.215-56.32 56.32c0 31.105 25.215 56.32 56.32 56.32s56.32-25.215 56.32-56.32zM240.64 453.12c0-31.105-25.215-56.32-56.32-56.32s-56.32 25.215-56.32 56.32c0 31.105 25.215 56.32 56.32 56.32s56.32-25.215 56.32-56.32zM240.64 238.080c0-31.105-25.215-56.32-56.32-56.32s-56.32 25.215-56.32 56.32c0 31.105 25.215 56.32 56.32 56.32s56.32-25.215 56.32-56.32zM404.48 729.6h440.32c30.72 0 56.32-25.6 56.32-56.32v0c0-30.72-25.6-56.32-56.32-56.32h-440.32c-30.72 0-56.32 25.6-56.32 56.32v0c0 30.72 25.6 56.32 56.32 56.32zM404.48 509.44h440.32c30.72 0 56.32-25.6 56.32-56.32v0c0-30.72-25.6-56.32-56.32-56.32h-440.32c-30.72 0-56.32 25.6-56.32 56.32v0c0 30.72 25.6 56.32 56.32 56.32zM404.48 289.28h440.32c30.72 0 56.32-25.6 56.32-56.32v0c0-30.72-25.6-56.32-56.32-56.32h-440.32c-30.72 0-56.32 25.6-56.32 56.32v0c0 30.72 25.6 56.32 56.32 56.32z" />
<glyph unicode="&#xe92b;" glyph-name="exit" d="M865.28 396.8h-337.92c-25.6 0-40.96 20.48-40.96 40.96s20.48 40.96 40.96 40.96h337.92l-76.8 112.64c-10.24 15.36-5.12 40.96 10.24 51.2 0 0 5.12 0 5.12 5.12 20.48 10.24 51.2 5.12 66.56-15.36l112.64-174.080c10.24-15.36 10.24-30.72 0-40.96l-112.64-174.080c-15.36-20.48-40.96-25.6-66.56-15.36-20.48 10.24-30.72 30.72-20.48 51.2 0 0 0 5.12 5.12 5.12l76.8 112.64zM711.68 709.12v128c0 30.72-25.6 51.2-51.2 51.2v0l-460.8-5.12c-25.6 0-51.2-25.6-51.2-51.2v-762.88c0-30.72 20.48-51.2 51.2-51.2h460.8c30.72 0 51.2 20.48 51.2 51.2v117.76c40.96-5.12 81.92-10.24 81.92-15.36v-148.48c0-46.080-35.84-87.040-81.92-87.040h-563.2c-46.080 0-81.92 35.84-81.92 87.040v849.92c5.12 51.2 35.84 87.040 81.92 87.040h563.2c46.080 0 81.92-35.84 81.92-87.040v-143.36c0-5.12-40.96-15.36-81.92-20.48z" />
<glyph unicode="&#xe92c;" glyph-name="search" d="M1010.176 22.528l-189.952 188.416c63.124 78.19 101.33 178.784 101.33 288.302 0 254.493-206.307 460.8-460.8 460.8s-460.8-206.307-460.8-460.8c0-254.493 206.307-460.8 460.8-460.8 109.518 0 210.112 38.206 289.181 102.017l-0.879-0.686 188.416-188.416c9.28-9.354 22.14-15.145 36.352-15.145s27.072 5.791 36.349 15.142l0.003 0.003c8.901 9.2 14.387 21.751 14.387 35.584s-5.486 26.384-14.4 35.598l0.014-0.014zM461.824 139.776c-197.939 0-358.4 160.461-358.4 358.4s160.461 358.4 358.4 358.4v0c197.939 0 358.4-160.461 358.4-358.4s-160.461-358.4-358.4-358.4v0z" />
<glyph unicode="&#xe92d;" glyph-name="users" d="M527.36 453.12c51.2 46.080 76.8 107.52 76.8 174.080 0 128-107.52 230.4-235.52 225.28-128 0-225.28-102.4-230.4-230.4 0-66.56 30.72-128 76.8-174.080-128-56.32-215.040-189.44-215.040-337.92 0-25.6 20.48-46.080 46.080-46.080s46.080 20.48 46.080 46.080v0c0 153.6 122.88 281.6 281.6 281.6s281.6-122.88 281.6-281.6c0-25.6 20.48-46.080 46.080-46.080s46.080 20.48 46.080 46.080c0 148.48-87.040 281.6-220.16 343.040zM373.76 483.84c-76.8 0-138.24 61.44-138.24 138.24s61.44 138.24 138.24 138.24 138.24-56.32 138.24-138.24-61.44-138.24-138.24-138.24zM824.32 468.48c87.040 97.28 76.8 245.76-20.48 327.68-40.96 35.84-97.28 56.32-153.6 56.32-25.6 0-46.080-20.48-46.080-46.080s20.48-46.080 46.080-46.080c76.8 0 138.24-61.44 138.24-138.24v0c0-51.2-25.6-97.28-71.68-122.88-20.48-15.36-30.72-40.96-15.36-61.44 5.12-5.12 10.24-10.24 15.36-15.36l20.48-10.24 5.12-5.12c112.64-56.32 189.44-168.96 184.32-296.96 0-25.6 20.48-46.080 46.080-46.080s46.080 20.48 46.080 46.080c5.12 148.48-66.56 281.6-194.56 358.4v0z" />
<glyph unicode="&#xe92e;" glyph-name="signed" d="M1018.88 463.36c-5.12 10.24-20.48 20.48-35.84 15.36-76.8 0-128-46.080-163.84-87.040-10.24-10.24-20.48-20.48-25.6-30.72 0 0 0 0 0 5.12 0 20.48 5.12 35.84 0 56.32 0 10.24 0 15.36-10.24 30.72-5.12 10.24-25.6 25.6-46.080 25.6s-30.72-10.24-40.96-15.36c-10.24-5.12-15.36-15.36-25.6-25.6-15.36-20.48-30.72-40.96-51.2-61.44s-35.84-40.96-56.32-56.32c-10.24-10.24-20.48-10.24-30.72-15.36 15.36 20.48 35.84 40.96 46.080 66.56 30.72 51.2 56.32 107.52 61.44 148.48 5.12 20.48 0 46.080-10.24 66.56s-40.96 35.84-66.56 35.84c-51.2 0-97.28-30.72-128-71.68s-51.2-97.28-51.2-158.72c0-35.84 10.24-71.68 25.6-102.4-5.12-5.12-10.24-10.24-10.24-10.24-40.96-35.84-87.040-51.2-128-51.2-15.36 0-30.72 5.12-46.080 10.24 15.36 20.48 25.6 30.72 40.96 51.2 92.16 112.64 174.080 250.88 174.080 389.12 0 15.36 0 46.080-20.48 76.8-20.48 25.6-56.32 51.2-112.64 51.2s-112.64-30.72-163.84-92.16c-51.2-61.44-92.16-153.6-92.16-276.48 0-61.44 20.48-122.88 56.32-179.2 5.12-10.24 15.36-15.36 20.48-25.6-40.96-46.080-71.68-81.92-71.68-81.92-15.36-15.36-15.36-35.84 0-51.2s40.96-10.24 56.32 0c0 0 30.72 35.84 71.68 81.92 25.6-15.36 56.32-25.6 92.16-25.6 66.56 0 128 30.72 179.2 71.68 5.12 5.12 10.24 10.24 15.36 15.36 15.36-5.12 30.72-15.36 51.2-15.36 35.84 0 66.56 15.36 92.16 35.84s46.080 46.080 66.56 66.56c10.24 15.36 20.48 25.6 25.6 35.84 0-15.36 0-30.72 0-46.080 0-10.24 0-15.36 5.12-25.6 0-5.12 5.12-10.24 10.24-20.48 5.12-5.12 20.48-15.36 35.84-15.36 30.72 0 56.32 15.36 71.68 35.84 15.36 15.36 30.72 35.84 46.080 51.2 30.72 35.84 61.44 61.44 107.52 61.44 15.36 0 25.6 5.12 35.84 15.36 5.12 15.36 5.12 30.72 0 40.96zM179.2 289.28c0 0-5.12 5.12-5.12 5.12-30.72 40.96-46.080 97.28-46.080 143.36 0 107.52 35.84 184.32 76.8 230.4s92.16 66.56 102.4 66.56c30.72 0 40.96-10.24 46.080-20.48s10.24-30.72 10.24-35.84c0-107.52-71.68-240.64-148.48-343.040-15.36-20.48-25.6-30.72-35.84-46.080zM522.24 407.040c-10.24-20.48-25.6-35.84-40.96-56.32-5.12 10.24-5.12 25.6-5.12 40.96 0 46.080 15.36 92.16 35.84 117.76s40.96 40.96 61.44 40.96c0 0 5.12-10.24 0-20.48-5.12-25.6-20.48-71.68-51.2-122.88z" />
<glyph unicode="&#xe92f;" glyph-name="outbox" d="M619.52 576l-81.92 87.040c-15.36 15.36-40.96 15.36-56.32 0l-81.92-87.040c-15.36-15.36-15.36-40.96 0-56.32s40.96-15.36 56.32 0l15.36 15.36v-112.64c0-20.48 20.48-40.96 40.96-40.96 25.6 0 40.96 20.48 40.96 40.96v112.64l10.24-15.36c15.36-15.36 40.96-15.36 56.32 0s15.36 40.96 0 56.32zM921.6 524.8l-378.88 389.12c-15.36 15.36-40.96 15.36-56.32 0l-384-389.12c-5.12-10.24-10.24-20.48-10.24-30.72v-481.28c0-20.48 20.48-40.96 40.96-40.96h762.88c20.48 0 40.96 20.48 35.84 40.96v481.28c0 10.24-5.12 20.48-10.24 30.72zM849.92 391.68v-291.84l-163.84 122.88 163.84 168.96zM414.72 258.56l-225.28 235.52 322.56 327.68 322.56-327.68-230.4-235.52h-189.44zM414.72 181.76h199.68l158.72-122.88h-517.12l158.72 122.88zM337.92 222.72l-163.84-122.88v291.84l163.84-168.96z" />
<glyph unicode="&#xe930;" glyph-name="inbox" d="M624.64 540.16c-15.36 15.36-40.96 15.36-56.32 0l-15.36-15.36v112.64c0 20.48-20.48 40.96-40.96 40.96s-40.96-20.48-40.96-40.96v-117.76l-15.36 15.36c-15.36 15.36-40.96 15.36-56.32 0s-15.36-40.96 0-56.32l81.92-87.040c10.24-5.12 20.48-10.24 30.72-10.24s20.48 5.12 30.72 15.36l81.92 87.040c15.36 15.36 15.36 40.96 0 56.32zM921.6 524.8l-378.88 389.12c-15.36 15.36-40.96 15.36-56.32 0l-384-389.12c-5.12-10.24-10.24-20.48-10.24-30.72v-481.28c0-20.48 20.48-40.96 40.96-40.96h762.88c20.48 0 40.96 20.48 35.84 40.96v481.28c0 10.24-5.12 20.48-10.24 30.72zM849.92 391.68v-291.84l-163.84 122.88 163.84 168.96zM414.72 258.56l-225.28 235.52 322.56 327.68 322.56-327.68-230.4-235.52h-189.44zM414.72 181.76h199.68l158.72-122.88h-517.12l158.72 122.88zM337.92 222.72l-163.84-122.88v291.84l163.84-168.96z" />
<glyph unicode="&#xe933;" glyph-name="doc-copy" d="M972.8 606.72c0 5.12 0 10.24-5.12 15.36v0c0 5.12-5.12 10.24-10.24 15.36l-307.2 307.2c-5.12 5.12-10.24 5.12-15.36 10.24 0 0-5.12 0-5.12 0s-5.12 5.12-10.24 5.12h-209.92c-87.040 0-153.6-66.56-153.6-153.6v0-51.2h-51.2c-87.040 0-153.6-66.56-153.6-153.6 0 0 0 0 0 0v-512c0-87.040 66.56-153.6 153.6-153.6h409.6c87.040 0 153.6 66.56 153.6 153.6v51.2h51.2c87.040 0 153.6 66.56 153.6 153.6v312.32zM665.6 785.92l133.12-133.12h-81.92c-30.72 0-51.2 20.48-51.2 51.2v81.92zM665.6 89.6c0-30.72-20.48-51.2-51.2-51.2h-409.6c-30.72 0-51.2 20.48-51.2 51.2v512c0 30.72 20.48 51.2 51.2 51.2h51.2v-358.4c0-87.040 66.56-153.6 153.6-153.6h256v-51.2zM870.4 294.4c0-30.72-20.48-51.2-51.2-51.2h-409.6c-30.72 0-51.2 20.48-51.2 51.2v512c0 30.72 20.48 51.2 51.2 51.2h153.6v-153.6c0-87.040 66.56-153.6 153.6-153.6h153.6v-256z" />
<glyph unicode="&#xe934;" glyph-name="datepicker" d="M870.4 857.6h-102.4v51.2c0 28.277-22.923 51.2-51.2 51.2s-51.2-22.923-51.2-51.2v0-51.2h-307.2v51.2c0 28.277-22.923 51.2-51.2 51.2s-51.2-22.923-51.2-51.2v0-51.2h-102.4c-84.831 0-153.6-68.769-153.6-153.6v0-614.4c0-84.831 68.769-153.6 153.6-153.6v0h716.8c84.831 0 153.6 68.769 153.6 153.6v0 614.4c0 84.831-68.769 153.6-153.6 153.6v0zM921.6 89.6c0-28.277-22.923-51.2-51.2-51.2v0h-716.8c-28.277 0-51.2 22.923-51.2 51.2v0 358.4h819.2v-358.4zM921.6 550.4h-819.2v153.6c0 28.277 22.923 51.2 51.2 51.2v0h102.4v-51.2c0-28.277 22.923-51.2 51.2-51.2s51.2 22.923 51.2 51.2v0 51.2h307.2v-51.2c0-28.277 22.923-51.2 51.2-51.2s51.2 22.923 51.2 51.2v0 51.2h102.4c28.277 0 51.2-22.923 51.2-51.2v0-153.6z" />
<glyph unicode="&#xe935;" glyph-name="details" d="M276.48 509.44c-25.6 0-46.080 20.48-46.080 51.2 5.12 20.48 20.48 40.96 46.080 40.96h179.2c25.6 0 46.080-20.48 51.2-46.080s-20.48-46.080-46.080-51.2h-5.12l-179.2 5.12zM276.48 325.12c-25.6 0-46.080 20.48-46.080 46.080s20.48 46.080 46.080 46.080h179.2c25.6 0 46.080-20.48 46.080-46.080s-20.48-46.080-46.080-46.080h-179.2zM962.56 104.96v640c0 25.6-20.48 40.96-40.96 40.96v0h-168.96v133.12c0 25.6-20.48 40.96-40.96 40.96v0h-46.080c-117.76 0-215.040-97.28-215.040-215.040v0c-35.84 30.72-81.92 46.080-128 46.080h-256c-25.6 0-40.96-20.48-40.96-40.96v0-640c0-25.6 20.48-40.96 40.96-40.96h256c56.32 0 107.52-40.96 122.88-97.28 5.12-20.48 25.6-35.84 40.96-35.84h10.24c20.48 0 35.84 15.36 40.96 30.72 15.36 56.32 66.56 97.28 122.88 97.28h256c30.72 0 46.080 20.48 46.080 40.96zM537.6 744.96c0 71.68 56.32 128 128 128v-552.96c-46.080 0-92.16-15.36-128-46.080v471.040zM322.56 151.040h-209.92v552.96h215.040c71.68 0 128-56.32 128-128v-471.040c-40.96 30.72-87.040 46.080-133.12 46.080zM880.64 151.040h-215.040c-46.080 0-92.16-15.36-128-40.96v0c0 71.68 56.32 128 128 128h40.96c25.6 0 40.96 20.48 40.96 40.96v424.96h128v-552.96h5.12z" />
<glyph unicode="&#xe936;" glyph-name="cloud-down" d="M629.248 177.152l-66.048-66.56v286.208c0 28.277-22.923 51.2-51.2 51.2s-51.2-22.923-51.2-51.2v0-286.208l-66.048 66.56c-9.303 9.303-22.156 15.057-36.352 15.057-28.393 0-51.409-23.017-51.409-51.409 0-14.196 5.754-27.049 15.057-36.352l153.6-153.6c4.724-4.528 10.339-8.169 16.55-10.631l0.346-0.121c5.725-2.595 12.414-4.108 19.456-4.108s13.731 1.512 19.76 4.23l-0.304-0.122c6.557 2.583 12.172 6.224 16.914 10.769l-0.018-0.017 153.6 153.6c9.303 9.303 15.057 22.156 15.057 36.352 0 28.393-23.017 51.409-51.409 51.409-14.196 0-27.049-5.754-36.352-15.057v0zM840.704 743.936c-56.649 127.826-182.414 215.383-328.629 215.383-181.632 0-331.708-135.112-355.202-310.313l-0.202-1.839c-90.8-22.289-157.103-102.986-157.103-199.168 0-113.108 91.692-204.8 204.8-204.8 0.152 0 0.303 0 0.455 0h-0.024c28.277 0 51.2 22.923 51.2 51.2s-22.923 51.2-51.2 51.2v0c-56.554 0-102.4 45.846-102.4 102.4s45.846 102.4 102.4 102.4v0c28.277 0 51.2 22.923 51.2 51.2v0c0.315 141.147 114.809 255.447 255.999 255.447 111.671 0 206.642-71.502 241.628-171.221l0.548-1.794c6.046-17.792 21.123-30.995 39.628-34.259l0.308-0.045c71.69-13.91 125.078-76.184 125.078-150.929 0-70.308-47.238-129.583-111.708-147.818l-1.082-0.262c-21.696-6.308-37.284-26.009-37.284-49.35 0-28.334 22.969-51.302 51.302-51.302 4.107 0 8.102 0.483 11.93 1.394l-0.349-0.070c110.583 29.929 190.598 129.373 190.598 247.505 0 114.951-75.764 212.207-180.080 244.555l-1.813 0.484z" />
<glyph unicode="&#xe937;" glyph-name="edit" d="M1024 691.712c0.001 0.088 0.001 0.192 0.001 0.296 0 14.065-5.671 26.806-14.852 36.059l-217.085 217.085c-9.25 9.177-21.991 14.849-36.056 14.849-0.104 0-0.208 0-0.312-0.001h0.016c-0.088 0.001-0.192 0.001-0.296 0.001-14.065 0-26.806-5.671-36.059-14.852l-704.509-704.509c-9.177-9.25-14.849-21.991-14.849-36.056 0-0.104 0-0.208 0.001-0.312v0.016-217.088c0-28.277 22.923-51.2 51.2-51.2v0h217.088c0.831-0.048 1.803-0.076 2.781-0.076 14.102 0 26.873 5.702 36.133 14.925l-0.002-0.002 556.544 559.616 145.408 142.336c4.534 4.806 8.314 10.388 11.108 16.515l0.156 0.381c0.236 1.845 0.37 3.979 0.37 6.144s-0.134 4.299-0.395 6.394l0.025-0.25c0.114 1.075 0.18 2.322 0.18 3.584s-0.065 2.509-0.193 3.738l0.013-0.154 3.584 2.56zM247.296 38.4h-144.896v144.896l508.416 508.416 144.896-144.896-508.416-508.416zM827.904 619.008l-144.896 144.896 72.704 72.192 144.384-144.384-72.192-72.704z" />
<glyph unicode="&#xe938;" glyph-name="operator" d="M896 601.6h-30.72c-15.36 184.32-168.96 322.56-353.28 322.56s-337.92-138.24-353.28-322.56h-30.72c-51.2 0-92.16-40.96-92.16-92.16v-122.88c0-51.2 40.96-92.16 92.16-92.16h61.44c35.84 0 56.32 25.6 61.44 56.32 46.080-102.4 143.36-168.96 261.12-168.96 112.64 0 215.040 66.56 261.12 163.84 5.12-15.36 10.24-30.72 30.72-40.96v-40.96c0-92.16-66.56-174.080-158.72-184.32-15.36 30.72-40.96 46.080-71.68 46.080h-122.88c-40.96 0-76.8-35.84-76.8-76.8s35.84-76.8 76.8-76.8h122.88c30.72 0 61.44 20.48 71.68 46.080 122.88 15.36 220.16 117.76 220.16 245.76v30.72h30.72c51.2 0 92.16 40.96 92.16 92.16v122.88c0 51.2-40.96 92.16-92.16 92.16zM512 755.2c-122.88 0-230.4-76.8-266.24-184.32-5.12 5.12-15.36 15.36-25.6 20.48 15.36 153.6 138.24 271.36 291.84 271.36s276.48-117.76 291.84-271.36c-10.24-5.12-15.36-10.24-20.48-20.48-40.96 107.52-148.48 184.32-271.36 184.32zM97.28 509.44c0 15.36 15.36 30.72 30.72 30.72v-184.32c-15.36 0-30.72 15.36-30.72 30.72v122.88zM896 540.16c15.36 0 30.72-15.36 30.72-30.72v-122.88c0-15.36-15.36-30.72-30.72-30.72v184.32zM512 248.32c-122.88 0-225.28 97.28-225.28 220.16s102.4 225.28 225.28 225.28 220.16-102.4 220.16-225.28c0-117.76-97.28-220.16-220.16-220.16zM450.56 64h122.88c10.24 0 15.36-5.12 15.36-15.36s-5.12-15.36-15.36-15.36h-122.88c-10.24 0-15.36 5.12-15.36 15.36s5.12 15.36 15.36 15.36z" />
<glyph unicode="&#xe939;" glyph-name="error-circle-fill" d="M0 448c0 281.6 230.4 512 512 512s512-230.4 512-512c0-281.6-230.4-512-512-512s-512 230.4-512 512zM512 519.68l-179.2 179.2-71.68-71.68 179.2-179.2-179.2-179.2 71.68-76.8 179.2 179.2 179.2-179.2 71.68 71.68-174.080 184.32 179.2 179.2-71.68 71.68c0 0-184.32-179.2-184.32-179.2z" />
<glyph unicode="&#xe93a;" glyph-name="error-circle-empty" d="M512 960c-281.6 0-512-230.4-512-512s230.4-512 512-512c281.6 0 512 230.4 512 512s-230.4 512-512 512zM512-2.56c-245.76 0-450.56 199.68-450.56 450.56s204.8 450.56 450.56 450.56c245.76 0 450.56-199.68 450.56-450.56s-204.8-450.56-450.56-450.56zM512 473.6l194.56 189.44 46.080-46.080-194.56-189.44 194.56-189.44-40.96-46.080-199.68 194.56-194.56-189.44-46.080 46.080 194.56 189.44-194.56 184.32 46.080 46.080 194.56-189.44z" />
<glyph unicode="&#xe93b;" glyph-name="exclamation-triangle" d="M512 263.68c-25.6 0-46.080-20.48-46.080-46.080s20.48-46.080 46.080-46.080c25.6 0 46.080 20.48 46.080 46.080 0 20.48-20.48 46.080-46.080 46.080zM1003.52 192l-368.64 650.24c-40.96 66.56-122.88 92.16-189.44 51.2-20.48-10.24-40.96-30.72-51.2-51.2l-373.76-650.24c-40.96-66.56-15.36-153.6 46.080-189.44 20.48-10.24 46.080-20.48 71.68-20.48h747.52c76.8 0 138.24 61.44 138.24 138.24 0 25.6-5.12 51.2-20.48 71.68zM926.72 99.84c-10.24-15.36-25.6-25.6-40.96-25.6h-747.52c-15.36 0-30.72 10.24-40.96 25.6s-10.24 30.72 0 46.080l373.76 650.24c10.24 20.48 40.96 30.72 61.44 20.48 10.24-5.12 15.36-10.24 20.48-20.48l368.64-650.24c10.24-15.36 10.24-30.72 5.12-46.080 0 0 0 0 0 0zM512 632.32c-25.6 0-46.080-20.48-46.080-46.080v-184.32c0-25.6 20.48-46.080 46.080-46.080s46.080 20.48 46.080 46.080v184.32c0 25.6-20.48 46.080-46.080 46.080z" />
<glyph unicode="&#xe93c;" glyph-name="exclamation" d="M512 960c-56.32 0-102.4-46.080-102.4-102.4v-409.6c0-56.32 46.080-102.4 102.4-102.4s102.4 46.080 102.4 102.4v409.6c0 56.32-46.080 102.4-102.4 102.4zM604.16 79.36c0 5.12-5.12 10.24-10.24 20.48l-10.24 15.36c-30.72 30.72-71.68 35.84-112.64 20.48-10.24-5.12-25.6-10.24-35.84-20.48-25.6-35.84-35.84-76.8-15.36-117.76 10.24-25.6 30.72-46.080 56.32-56.32s51.2-10.24 76.8 0c25.6 10.24 46.080 30.72 56.32 56.32 5.12 10.24 10.24 25.6 10.24 40.96 0 5.12 0 15.36 0 20.48-5.12 5.12-10.24 10.24-15.36 20.48z" />
<glyph unicode="&#xe93d;" glyph-name="flag" d="M819.2 960h-614.4c-30.72 0-51.2-20.48-51.2-51.2v-921.6c0-30.72 20.48-51.2 51.2-51.2 10.24 0 25.6 5.12 35.84 10.24l271.36 230.4 271.36-225.28c15.36-15.36 35.84-20.48 56.32-10.24s30.72 25.6 30.72 46.080v921.6c0 30.72-20.48 51.2-51.2 51.2zM768 94.72l-225.28 189.44c-20.48 15.36-46.080 15.36-66.56 0l-220.16-189.44v762.88h512v-762.88z" />
<glyph unicode="&#xe93e;" glyph-name="export" d="M87.040 729.6v-558.080c0-10.24 10.24-20.48 20.48-20.48h814.080c10.24 0 20.48 10.24 20.48 20.48v558.080c0 10.24-10.24 20.48-20.48 20.48h-819.2c-10.24-5.12-15.36-10.24-15.36-20.48zM926.72 64h-829.44c-51.2 0-97.28 40.96-97.28 97.28v573.44c0 51.2 40.96 97.28 97.28 97.28v0h834.56c51.2 0 97.28-40.96 97.28-97.28v-578.56c-5.12-51.2-46.080-92.16-102.4-92.16v0zM762.88 463.36c0 5.12-5.12 10.24-10.24 15.36v0l-128 128c-15.36 15.36-46.080 15.36-61.44 0s-15.36-40.96 0-56.32l56.32-56.32h-322.56c-20.48-5.12-40.96-25.6-40.96-46.080s20.48-40.96 40.96-40.96h322.56l-56.32-56.32c-15.36-15.36-15.36-46.080 0-61.44s46.080-15.36 61.44 0v0l128 128c15.36 10.24 20.48 30.72 10.24 46.080z" />
<glyph unicode="&#xe93f;" glyph-name="external-url" d="M819.2 508.416c-28.277 0-51.2-22.923-51.2-51.2v0-367.616c0-28.277-22.923-51.2-51.2-51.2v0h-563.2c-28.277 0-51.2 22.923-51.2 51.2v0 563.2c0 28.277 22.923 51.2 51.2 51.2v0h367.616c28.277 0 51.2 22.923 51.2 51.2s-22.923 51.2-51.2 51.2v0h-367.616c-84.831 0-153.6-68.769-153.6-153.6v0-563.2c0-84.831 68.769-153.6 153.6-153.6v0h563.2c84.831 0 153.6 68.769 153.6 153.6v0 367.616c0 28.277-22.923 51.2-51.2 51.2v0zM1019.904 928.256c-5.307 12.552-15.096 22.341-27.312 27.522l-0.336 0.126c-5.734 2.51-12.409 4.008-19.423 4.096h-307.233c-28.277 0-51.2-22.923-51.2-51.2s22.923-51.2 51.2-51.2v0h183.808l-527.36-526.848c-9.354-9.28-15.145-22.14-15.145-36.352s5.791-27.072 15.142-36.349l0.003-0.003c9.28-9.354 22.14-15.145 36.352-15.145s27.072 5.791 36.349 15.142l526.851 527.363v-183.808c0-28.277 22.923-51.2 51.2-51.2s51.2 22.923 51.2 51.2v0 307.2c-0.088 7.047-1.586 13.722-4.224 19.787l0.128-0.331z" />
<glyph unicode="&#xe940;" glyph-name="flag-fill" d="M819.2 960h-614.4c-30.72 0-51.2-20.48-51.2-51.2v-921.6c0-30.72 20.48-51.2 51.2-51.2 10.24 0 25.6 5.12 35.84 10.24l271.36 230.4 271.36-225.28c15.36-15.36 35.84-20.48 56.32-10.24s30.72 25.6 30.72 46.080v921.6c0 30.72-20.48 51.2-51.2 51.2z" />
<glyph unicode="&#xe941;" glyph-name="sort-desc" d="M870.4 755.2h-716.8c-30.72 0-51.2-20.48-51.2-51.2s20.48-51.2 51.2-51.2h716.8c30.72 0 51.2 20.48 51.2 51.2s-20.48 51.2-51.2 51.2zM675.84 448c0 30.72-20.48 51.2-51.2 51.2h-471.040c-30.72 0-51.2-20.48-51.2-51.2s20.48-51.2 51.2-51.2h471.040c30.72 0 51.2 20.48 51.2 51.2zM419.84 192c0 30.72-20.48 51.2-51.2 51.2h-215.040c-30.72 0-51.2-20.48-51.2-51.2s20.48-51.2 51.2-51.2h215.040c30.72 0 51.2 20.48 51.2 51.2z" />
<glyph unicode="&#xe942;" glyph-name="pdf" d="M947.2 683.52l-220.16 235.52c-5.12 5.12-10.24 15.36-30.72 15.36h-332.8c-51.2 0-92.16-46.080-92.16-97.28v-220.16h-117.76c-40.96 0-76.8-40.96-76.8-76.8v-266.24c0-46.080 30.72-76.8 76.8-76.8h112.64v-138.24c5.12-56.32 46.080-97.28 92.16-97.28h506.88c51.2 0 92.16 46.080 97.28 102.4v588.8c0 20.48-10.24 25.6-15.36 30.72zM716.8 688.64v112.64l107.52-112.64h-107.52zM348.16 192h266.24c40.96 0 76.8 40.96 76.8 76.8v266.24c0 46.080-30.72 76.8-76.8 76.8h-271.36v225.28c0 5.12 5.12 10.24 15.36 10.24h286.72v-204.8c0-25.6 20.48-40.96 40.96-40.96h194.56v-542.72c0-10.24 0-15.36-10.24-15.36h-506.88c-10.24 0-15.36 5.12-15.36 15.36v133.12zM609.28 524.8v-245.76h-445.44v245.76h445.44zM245.76 366.080h40.96c5.12 0 5.12 5.12 10.24 5.12s5.12 0 5.12 0h10.24v10.24c0 15.36 0 15.36 5.12 20.48 10.24 5.12 10.24 20.48 10.24 30.72v5.12c-5.12 5.12-5.12 5.12-5.12 10.24s-5.12 10.24-5.12 15.36c-10.24 15.36-20.48 20.48-30.72 20.48h-92.16v-174.080h51.2v56.32zM276.48 432.64c0 0 0 0 0-5.12 0 0-5.12 0-5.12-5.12h-30.72v10.24h25.6c5.12 0 10.24 0 10.24 0zM435.2 314.88c0 5.12 5.12 5.12 0 0 10.24 10.24 15.36 10.24 20.48 15.36 5.12 10.24 10.24 20.48 15.36 30.72v35.84c0 15.36 0 25.6-5.12 35.84-5.12 5.12-5.12 10.24-5.12 10.24 0 10.24-5.12 20.48-15.36 25.6l-5.12 5.12c-5.12 5.12-10.24 5.12-15.36 10.24h-10.24c-5.12 5.12-15.36 5.12-20.48 5.12h-61.44v-174.080h66.56c10.24 0 25.6 0 35.84 0zM419.84 417.28v-5.12c5.12 0 5.12-5.12 5.12-10.24-5.12-5.12-5.12-5.12-5.12-10.24s0-10.24-5.12-15.36v-5.12c0-5.12-5.12-10.24-5.12-10.24-5.12 0-5.12 0-5.12 0h-25.6v76.8h25.6c5.12 0 5.12-5.12 10.24-10.24 0-5.12 0-5.12 0-5.12s5.12 0 5.12-5.12zM527.36 376.32h61.44v46.080h-61.44v15.36h66.56v51.2h-117.76v-174.080h51.2z" />
<glyph unicode="&#xe943;" glyph-name="phone" d="M892.928 396.8c-11.264 0-23.040 3.584-34.304 6.144-26.283 5.838-48.705 12.706-70.371 21.091l3.299-1.123c-10.412 3.908-22.446 6.17-35.008 6.17-40.161 0-74.922-23.12-91.7-56.776l-0.268-0.594-11.264-23.040c-51.954 29.206-96.705 63.192-136.228 102.436l0.036-0.036c-39.208 39.487-73.194 84.238-100.784 133.081l-1.616 3.111 21.504 14.336c34.25 17.046 57.37 51.807 57.37 91.968 0 12.562-2.262 24.596-6.401 35.716l0.231-0.708c-7.041 18.095-13.903 40.508-19.266 63.498l-0.702 3.574c-2.56 11.264-4.608 23.040-6.144 34.816-12.905 72.871-75.756 127.504-151.367 127.504-0.785 0-1.569-0.006-2.351-0.018l0.118 0.001h-153.6c-0.429 0.004-0.935 0.007-1.442 0.007-84.831 0-153.6-68.769-153.6-153.6 0-7.406 0.524-14.69 1.537-21.816l-0.095 0.818c57.714-441.297 404.124-786.659 841.004-842.251l4.82-0.501h19.456c0.067 0 0.146 0 0.225 0 39.303 0 75.158 14.761 102.323 39.043l-0.149-0.131c31.485 28.248 51.202 69.065 51.202 114.488 0 0.25-0.001 0.5-0.002 0.75v-0.038 153.6c-1.348 74.117-54.99 135.317-125.519 148.335l-0.945 0.145zM918.528 89.6c-0.020-15.277-6.728-28.984-17.352-38.352l-0.056-0.048c-9.453-8.197-21.877-13.193-35.467-13.193-2.297 0-4.56 0.143-6.782 0.42l0.265-0.027c-394.454 52.014-703.028 361.81-752.705 752.425l-0.447 4.311c-0.208 1.809-0.327 3.905-0.327 6.028 0 13.737 4.963 26.314 13.194 36.038l-0.067-0.082c9.416 10.68 23.123 17.388 38.396 17.408h153.604c0.339 0.008 0.738 0.013 1.139 0.013 24.473 0 44.935-17.17 49.998-40.121l0.063-0.34c2.048-13.978 4.608-27.802 7.68-41.472 5.939-26.982 13.824-53.504 23.552-79.36l-71.68-33.28c-17.762-8.292-29.849-26.002-29.849-46.536 0-7.825 1.755-15.239 4.893-21.872l-0.132 0.311c75.178-158.472 199.929-283.223 353.911-356.478l4.489-1.922c5.752-2.429 12.439-3.841 19.456-3.841s13.704 1.412 19.793 3.966l-0.337-0.126c13.010 4.746 23.326 14.23 29.051 26.313l0.133 0.311 31.744 71.68c21.44-8.069 48.485-16.165 76.16-22.621l4.736-0.931c13.67-3.072 27.494-5.632 41.472-7.68 24.064-5.12 40.96-26.624 40.448-51.2l1.024-159.744z" />
<glyph unicode="&#xe944;" glyph-name="print" d="M256 550.4c-28.277 0-51.2-22.923-51.2-51.2s22.923-51.2 51.2-51.2v0c28.277 0 51.2 22.923 51.2 51.2s-22.923 51.2-51.2 51.2v0zM870.4 755.2h-51.2v153.6c0 28.277-22.923 51.2-51.2 51.2v0h-512c-28.277 0-51.2-22.923-51.2-51.2v0-153.6h-51.2c-84.831 0-153.6-68.769-153.6-153.6v0-307.2c0-84.831 68.769-153.6 153.6-153.6v0h51.2v-153.6c0-28.277 22.923-51.2 51.2-51.2v0h512c28.277 0 51.2 22.923 51.2 51.2v0 153.6h51.2c84.831 0 153.6 68.769 153.6 153.6v0 307.2c0 84.831-68.769 153.6-153.6 153.6v0zM307.2 857.6h409.6v-102.4h-409.6v102.4zM716.8 38.4h-409.6v204.8h409.6v-204.8zM921.6 294.4c0-28.277-22.923-51.2-51.2-51.2v0h-51.2v51.2c0 28.277-22.923 51.2-51.2 51.2v0h-512c-28.277 0-51.2-22.923-51.2-51.2v0-51.2h-51.2c-28.277 0-51.2 22.923-51.2 51.2v0 307.2c0 28.277 22.923 51.2 51.2 51.2v0h716.8c28.277 0 51.2-22.923 51.2-51.2v0-307.2z" />
<glyph unicode="&#xe945;" glyph-name="question" d="M476.16 279.040c0 0-5.12-5.12-5.12-5.12 0-5.12-5.12-5.12-5.12-10.24s0-5.12-5.12-10.24c0-5.12 0-5.12 0-10.24s0-15.36 5.12-20.48 15.36-20.48 25.6-25.6c10.24-5.12 25.6-5.12 40.96 0s20.48 15.36 25.6 25.6c0 5.12 5.12 15.36 5.12 20.48 0 30.72-20.48 51.2-51.2 51.2-15.36 0-25.6-5.12-35.84-15.36zM512 38.4c-225.28 0-409.6 184.32-409.6 409.6s184.32 409.6 409.6 409.6 409.6-184.32 409.6-409.6-184.32-409.6-409.6-409.6zM512 704c-56.32 0-107.52-30.72-133.12-76.8-15.36-25.6-10.24-56.32 15.36-71.68s56.32-5.12 71.68 15.36c0 0 0 0 0 5.12 10.24 15.36 25.6 25.6 46.080 25.6 30.72 0 51.2-20.48 51.2-51.2s-20.48-51.2-51.2-51.2c-30.72 0-51.2-20.48-51.2-51.2v-51.2c0-30.72 20.48-51.2 51.2-51.2s51.2 20.48 51.2 51.2v10.24c81.92 30.72 122.88 117.76 92.16 194.56-20.48 61.44-76.8 102.4-143.36 102.4z" />
<glyph unicode="&#xe946;" glyph-name="sort-asc" d="M921.6 192c0 30.72-20.48 51.2-51.2 51.2h-716.8c-30.72 0-51.2-20.48-51.2-51.2s20.48-51.2 51.2-51.2h716.8c30.72 0 51.2 20.48 51.2 51.2zM675.84 448c0-30.72-20.48-51.2-51.2-51.2h-471.040c-30.72 0-51.2 20.48-51.2 51.2s20.48 51.2 51.2 51.2h471.040c30.72 0 51.2-20.48 51.2-51.2zM419.84 704c0-30.72-20.48-51.2-51.2-51.2h-215.040c-30.72 0-51.2 20.48-51.2 51.2s20.48 51.2 51.2 51.2h215.040c30.72 0 51.2-20.48 51.2-51.2z" />
<glyph unicode="&#xe947;" glyph-name="settings" d="M989.184 573.44l-96.768 32.256 45.568 91.136c3.229 6.52 5.118 14.196 5.118 22.314 0 14.064-5.67 26.803-14.85 36.057l-109.053 109.053c-9.267 9.276-22.075 15.014-36.222 15.014-8.252 0-16.049-1.952-22.953-5.42l0.295 0.134-91.136-45.568-32.256 96.768c-7.003 20.295-25.868 34.645-48.108 34.816h-153.62c-0.039 0-0.086 0-0.132 0-22.413 0-41.463-14.402-48.4-34.456l-0.108-0.36-32.256-96.768-91.136 45.568c-6.52 3.229-14.196 5.118-22.314 5.118-14.064 0-26.803-5.67-36.057-14.85l-109.053-109.053c-9.276-9.267-15.014-22.075-15.014-36.222 0-8.252 1.952-16.049 5.42-22.953l-0.134 0.295 45.568-91.136-96.768-32.256c-20.295-7.003-34.645-25.868-34.816-48.108v-153.62c0-0.039 0-0.086 0-0.132 0-22.413 14.402-41.463 34.456-48.4l0.36-0.108 96.768-32.256-45.568-91.136c-3.229-6.52-5.118-14.196-5.118-22.314 0-14.064 5.67-26.803 14.85-36.057l109.053-109.053c9.267-9.276 22.075-15.014 36.222-15.014 8.252 0 16.049 1.952 22.953 5.42l-0.295-0.134 91.136 45.568 32.256-96.768c7.045-20.414 26.094-34.816 48.508-34.816 0.046 0 0.093 0 0.139 0h153.593c0.039 0 0.086 0 0.132 0 22.413 0 41.463 14.402 48.4 34.456l0.108 0.36 32.256 96.768 91.136-45.568c6.429-3.126 13.986-4.953 21.97-4.953 13.981 0 26.654 5.604 35.893 14.688l109.049 109.049c9.276 9.267 15.014 22.075 15.014 36.222 0 8.252-1.952 16.049-5.42 22.953l0.134-0.295-45.568 91.136 96.768 32.256c20.295 7.003 34.645 25.868 34.816 48.108v153.62c0 0.039 0 0.086 0 0.132 0 22.413-14.402 41.463-34.456 48.4l-0.36 0.108zM921.6 408.064l-61.44-20.48c-41.44-13.74-70.805-52.143-70.805-97.404 0-17.16 4.221-33.335 11.682-47.542l-0.269 0.562 29.184-58.368-56.32-56.32-56.832 30.72c-13.308 6.775-29.022 10.745-45.663 10.745-45.014 0-83.244-29.045-96.972-69.416l-0.213-0.721-20.48-61.44h-81.408l-20.48 61.44c-13.74 41.44-52.143 70.805-97.404 70.805-17.16 0-33.335-4.221-47.542-11.682l0.562 0.269-58.368-29.184-56.32 56.32 30.72 56.832c7.192 13.645 11.413 29.82 11.413 46.98 0 45.261-29.365 83.664-70.082 97.196l-0.723 0.208-61.44 20.48v79.872l61.44 20.48c41.44 13.74 70.805 52.143 70.805 97.404 0 17.16-4.221 33.335-11.682 47.542l0.269-0.562-29.184 56.832 56.32 56.32 56.832-29.184c13.645-7.192 29.82-11.413 46.98-11.413 45.261 0 83.664 29.365 97.196 70.082l0.208 0.723 20.48 61.44h79.872l20.48-61.44c13.74-41.44 52.143-70.805 97.404-70.805 17.16 0 33.335 4.221 47.542 11.682l-0.562-0.269 58.368 29.184 56.32-56.32-30.72-56.832c-6.775-13.308-10.745-29.022-10.745-45.663 0-45.014 29.045-83.244 69.416-96.972l0.721-0.213 61.44-20.48v-81.408zM512 652.8c-113.108 0-204.8-91.692-204.8-204.8s91.692-204.8 204.8-204.8v0c113.108 0 204.8 91.692 204.8 204.8s-91.692 204.8-204.8 204.8v0zM512 345.6c-56.554 0-102.4 45.846-102.4 102.4s45.846 102.4 102.4 102.4v0c56.554 0 102.4-45.846 102.4-102.4s-45.846-102.4-102.4-102.4v0z" />
<glyph unicode="&#xe948;" glyph-name="spinner" d="M0 448c0 51.2 40.96 92.16 92.16 92.16s92.16-40.96 92.16-92.16c0-51.2-40.96-92.16-92.16-92.16s-92.16 40.96-92.16 92.16zM839.68 448c0 51.2 40.96 92.16 92.16 92.16s92.16-40.96 92.16-92.16c0-51.2-40.96-92.16-92.16-92.16s-92.16 40.96-92.16 92.16zM419.84 28.16c0 51.2 40.96 92.16 92.16 92.16s92.16-40.96 92.16-92.16c0-51.2-40.96-92.16-92.16-92.16s-92.16 40.96-92.16 92.16zM419.84 867.84c0 51.2 40.96 92.16 92.16 92.16s92.16-40.96 92.16-92.16c0-51.2-40.96-92.16-92.16-92.16s-92.16 40.96-92.16 92.16zM793.6 729.6c0 25.6 20.48 46.080 46.080 46.080s46.080-20.48 46.080-46.080c0-25.6-20.48-46.080-46.080-46.080-25.6-5.12-46.080 15.36-46.080 46.080zM793.6 166.4c0 25.6 20.48 46.080 46.080 46.080s46.080-20.48 46.080-46.080c0-25.6-20.48-46.080-46.080-46.080s-46.080 20.48-46.080 46.080zM184.32 166.4c0 25.6 20.48 46.080 46.080 46.080s46.080-20.48 46.080-46.080c0-25.6-20.48-46.080-46.080-46.080s-46.080 20.48-46.080 46.080zM184.32 729.6c0 25.6 20.48 46.080 46.080 46.080s51.2-20.48 51.2-46.080c0-25.6-20.48-46.080-46.080-46.080-30.72-5.12-51.2 15.36-51.2 46.080z" />
<glyph unicode="&#xe949;" glyph-name="star" d="M486.4 156.16l-184.32-97.28c-25.6-15.36-56.32-5.12-66.56 20.48-5.12 10.24-5.12 20.48-5.12 30.72l35.84 204.8c5.12 15.36-5.12 35.84-15.36 46.080l-153.6 148.48c-20.48 20.48-20.48 51.2 0 71.68 10.24 10.24 20.48 15.36 30.72 15.36l204.8 30.72c15.36 0 30.72 15.36 40.96 25.6l92.16 189.44c10.24 25.6 40.96 35.84 66.56 25.6 10.24-5.12 20.48-15.36 25.6-25.6l92.16-189.44c5.12-15.36 20.48-25.6 40.96-25.6l204.8-30.72c25.6-5.12 46.080-30.72 40.96-56.32 0-10.24-5.12-20.48-15.36-30.72l-148.48-148.48c-10.24-10.24-15.36-30.72-15.36-46.080l35.84-204.8c5.12-25.6-15.36-56.32-40.96-61.44-10.24 0-20.48 0-30.72 5.12l-184.32 97.28c-15.36 10.24-35.84 10.24-51.2 5.12z" />
<glyph unicode="&#xe94a;" glyph-name="success-empty" d="M512 960c-281.6 0-512-230.4-512-512s230.4-512 512-512c281.6 0 512 230.4 512 512s-230.4 512-512 512zM512-2.56c-245.76 0-450.56 199.68-450.56 450.56s204.8 450.56 450.56 450.56c245.76 0 450.56-199.68 450.56-450.56s-204.8-450.56-450.56-450.56zM783.36 657.92l-378.88-378.88-163.84 168.96-46.080-46.080 209.92-209.92 424.96 424.96-46.080 40.96z" />
<glyph unicode="&#xe94b;" glyph-name="bell-slash" d="M465.92 750.080c15.36 5.12 30.72 5.12 46.080 5.12 112.64 0 204.8-92.16 204.8-204.8v-66.56c0-30.72 20.48-51.2 51.2-51.2s51.2 20.48 51.2 51.2v66.56c0 148.48-107.52 276.48-256 302.080v56.32c0 30.72-20.48 51.2-51.2 51.2s-51.2-25.6-51.2-51.2v-56.32l-20.48-5.12c-30.72-5.12-46.080-35.84-40.96-61.44 10.24-30.72 35.84-46.080 66.56-35.84zM1008.64 23.040l-921.6 921.6c-20.48 20.48-51.2 20.48-71.68 0s-20.48-51.2 0-71.68l209.92-209.92c-15.36-35.84-20.48-76.8-20.48-112.64v-163.84c-61.44-20.48-102.4-76.8-102.4-143.36v-102.4c0-30.72 20.48-51.2 51.2-51.2h158.72c30.72-107.52 143.36-174.080 250.88-143.36 71.68 20.48 122.88 71.68 143.36 143.36h87.040l138.24-138.24c20.48-20.48 51.2-20.48 71.68 0 0 0 0 0 0 0 25.6 20.48 25.6 51.2 5.12 71.68 0 0 0 0 0 0zM307.2 550.4c0 10.24 0 20.48 0 25.6l184.32-179.2h-184.32v153.6zM512 38.4c-35.84 0-71.68 20.48-87.040 51.2h174.080c-15.36-30.72-51.2-51.2-87.040-51.2zM204.8 192v51.2c0 30.72 20.48 51.2 51.2 51.2h337.92l102.4-102.4h-491.52z" />
<glyph unicode="&#xe94c;" glyph-name="key" d="M732.16 678.4c-5.12 117.76-102.4 215.040-220.16 220.16-81.92 0-148.48-40.96-189.44-107.52s-35.84-153.6 5.12-220.16c35.84-56.32 92.16-97.28 153.6-107.52v-117.76h-92.16c-10.24 0-20.48-5.12-30.72-15.36s-20.48-20.48-15.36-30.72l5.12-158.72c0-20.48 20.48-40.96 40.96-40.96h92.16l5.12-46.080c0-20.48 20.48-40.96 40.96-40.96 25.6 5.12 40.96 20.48 40.96 51.2l-5.12 66.56c-5.12 5.12 0 5.12 0 15.36v148.48c5.12 5.12 5.12 10.24 5.12 20.48l-5.12 148.48c35.84 5.12 81.92 30.72 107.52 56.32 40.96 40.96 61.44 97.28 61.44 158.72zM430.080 181.76l-5.12 81.92h56.32l5.12-81.92h-56.32zM614.4 576c-25.6-25.6-56.32-35.84-92.16-35.84-51.2 0-97.28 25.6-122.88 71.68-25.6 40.96-30.72 92.16-5.12 133.12s66.56 66.56 117.76 66.56c76.8-5.12 138.24-66.56 143.36-143.36 0-35.84-15.36-66.56-40.96-92.16z" />
<glyph unicode="&#xe94d;" glyph-name="trash" d="M409.6 140.8c30.72 0 51.2 20.48 51.2 51.2v307.2c0 30.72-20.48 51.2-51.2 51.2s-51.2-20.48-51.2-51.2v-307.2c0-30.72 20.48-51.2 51.2-51.2zM921.6 755.2h-204.8v51.2c0 87.040-66.56 153.6-153.6 153.6h-102.4c-87.040 0-153.6-66.56-153.6-153.6v-51.2h-204.8c-30.72 0-51.2-20.48-51.2-51.2s20.48-51.2 51.2-51.2h51.2v-563.2c0-87.040 66.56-153.6 153.6-153.6h409.6c87.040 0 153.6 66.56 153.6 153.6v563.2h51.2c30.72 0 51.2 20.48 51.2 51.2s-20.48 51.2-51.2 51.2zM409.6 806.4c0 30.72 20.48 51.2 51.2 51.2h102.4c30.72 0 51.2-20.48 51.2-51.2v-51.2h-204.8v51.2zM768 89.6c0-30.72-20.48-51.2-51.2-51.2h-409.6c-30.72 0-51.2 20.48-51.2 51.2v563.2h512v-563.2zM614.4 140.8c30.72 0 51.2 20.48 51.2 51.2v307.2c0 30.72-20.48 51.2-51.2 51.2s-51.2-20.48-51.2-51.2v-307.2c0-30.72 20.48-51.2 51.2-51.2z" />
<glyph unicode="&#xe94e;" glyph-name="bell" d="M819.2 386.56v163.84c0 148.48-107.52 276.48-256 302.080v56.32c0 30.72-20.48 51.2-51.2 51.2s-51.2-20.48-51.2-51.2v-56.32c-148.48-25.6-256-153.6-256-302.080v-163.84c-61.44-20.48-102.4-81.92-102.4-143.36v-102.4c0-30.72 20.48-51.2 51.2-51.2h158.72c30.72-107.52 143.36-174.080 250.88-143.36 71.68 20.48 122.88 71.68 143.36 143.36h163.84c30.72 0 51.2 20.48 51.2 51.2v102.4c0 66.56-40.96 122.88-102.4 143.36zM307.2 550.4c0 112.64 92.16 204.8 204.8 204.8s204.8-92.16 204.8-204.8v-153.6h-409.6v153.6zM512 38.4c-35.84 0-71.68 20.48-87.040 51.2h174.080c-15.36-30.72-51.2-51.2-87.040-51.2zM819.2 192h-614.4v51.2c0 30.72 20.48 51.2 51.2 51.2h512c30.72 0 51.2-20.48 51.2-51.2v-51.2z" />
<glyph unicode="&#xe94f;" glyph-name="success-fill" d="M0 448c0 281.6 230.4 512 512 512s512-230.4 512-512c0-281.6-230.4-512-512-512s-512 230.4-512 512zM322.56 555.52l-71.68-76.8 225.28-204.8 317.44 327.68-71.68 71.68-245.76-256-153.6 138.24z" />
<glyph unicode="&#xe950;" glyph-name="clone" d="M972.8 606.72c0 5.12 0 10.24-5.12 15.36v0c0 5.12-5.12 10.24-10.24 15.36l-307.2 307.2c-5.12 5.12-10.24 5.12-15.36 10.24 0 0-5.12 0-5.12 0s-5.12 5.12-10.24 5.12h-209.92c-87.040 0-153.6-66.56-153.6-153.6v0-51.2h-51.2c-87.040 0-153.6-66.56-153.6-153.6 0 0 0 0 0 0v-512c0-87.040 66.56-153.6 153.6-153.6h409.6c87.040 0 153.6 66.56 153.6 153.6v51.2h51.2c87.040 0 153.6 66.56 153.6 153.6v312.32zM665.6 785.92l133.12-133.12h-81.92c-30.72 0-51.2 20.48-51.2 51.2v81.92zM665.6 89.6c0-30.72-20.48-51.2-51.2-51.2h-409.6c-30.72 0-51.2 20.48-51.2 51.2v512c0 30.72 20.48 51.2 51.2 51.2h51.2v-358.4c0-87.040 66.56-153.6 153.6-153.6h256v-51.2zM870.4 294.4c0-30.72-20.48-51.2-51.2-51.2h-409.6c-30.72 0-51.2 20.48-51.2 51.2v512c0 30.72 20.48 51.2 51.2 51.2h153.6v-153.6c0-87.040 66.56-153.6 153.6-153.6h153.6v-256z" />
<glyph unicode="&#xe951;" glyph-name="lock" d="M512 396.8c-40.96 0-76.8-30.72-76.8-76.8 0-20.48 10.24-46.080 25.6-56.32v-71.68c0-30.72 20.48-51.2 51.2-51.2s51.2 20.48 51.2 51.2v71.68c30.72 25.6 35.84 76.8 5.12 107.52-10.24 15.36-35.84 25.6-56.32 25.6zM768 601.6v102.4c0 143.36-112.64 256-256 256s-256-112.64-256-256v-102.4c-87.040 0-153.6-66.56-153.6-153.6v-358.4c0-87.040 66.56-153.6 153.6-153.6h512c87.040 0 153.6 66.56 153.6 153.6v358.4c0 87.040-66.56 153.6-153.6 153.6zM358.4 704c0 87.040 66.56 153.6 153.6 153.6s153.6-66.56 153.6-153.6v-102.4h-307.2v102.4zM819.2 89.6c0-30.72-20.48-51.2-51.2-51.2h-512c-30.72 0-51.2 20.48-51.2 51.2v358.4c0 30.72 20.48 51.2 51.2 51.2h512c30.72 0 51.2-20.48 51.2-51.2v-358.4z" />
<glyph unicode="&#xe952;" glyph-name="more" d="M716.8 448c0 56.32 46.080 102.4 102.4 102.4s102.4-46.080 102.4-102.4-46.080-102.4-102.4-102.4-102.4 46.080-102.4 102.4zM102.4 448c0 56.32 46.080 102.4 102.4 102.4s102.4-46.080 102.4-102.4-46.080-102.4-102.4-102.4-102.4 46.080-102.4 102.4zM409.6 448c0 56.32 46.080 102.4 102.4 102.4s102.4-46.080 102.4-102.4-46.080-102.4-102.4-102.4-102.4 46.080-102.4 102.4z" />
<glyph unicode="&#xe953;" glyph-name="doc-overdue" d="M1009.152 317.952l-128 130.048c-9.28 9.354-22.14 15.145-36.352 15.145s-27.072-5.791-36.349-15.142l-0.003-0.003-142.848-145.408-142.848 145.408c-9.28 9.354-22.14 15.145-36.352 15.145s-27.072-5.791-36.349-15.142l-0.003-0.003-117.248-119.808-117.248 119.808c-9.28 9.354-22.14 15.145-36.352 15.145s-27.072-5.791-36.349-15.142l-128.003-128.003c-4.528-4.724-8.169-10.339-10.631-16.55l-0.121-0.346c-2.51-5.734-4.008-12.409-4.096-19.423v-194.081c0-84.831 68.769-153.6 153.6-153.6v0h716.8c84.831 0 153.6 68.769 153.6 153.6v0 192c-0.088 7.047-1.586 13.722-4.224 19.787l0.128-0.331c-2.583 6.557-6.224 12.172-10.769 16.914l0.017-0.018zM921.6 89.6c0-28.277-22.923-51.2-51.2-51.2v0h-716.8c-28.277 0-51.2 22.923-51.2 51.2v0 171.008l76.8 76.8 117.248-117.76c9.28-9.354 22.14-15.145 36.352-15.145s27.072 5.791 36.349 15.142l0.003 0.003 117.248 117.76 142.848-145.408c9.28-9.354 22.14-15.145 36.352-15.145s27.072 5.791 36.349 15.142l0.003 0.003 142.848 143.36 76.8-76.8v-168.96zM870.4 960h-716.8c-84.831 0-153.6-68.769-153.6-153.6v0-269.312c-0.512-4.608-0.512-9.216 0-13.824v-5.12c7.762-19.014 26.11-32.17 47.532-32.17 14.775 0 28.087 6.258 37.433 16.268l0.027 0.030 94.208 91.136 117.248-117.76c9.28-9.354 22.14-15.145 36.352-15.145s27.072 5.791 36.349 15.142l0.003 0.003 117.248 117.76 142.848-145.408c9.28-9.354 22.14-15.145 36.352-15.145s27.072 5.791 36.349 15.142l0.003 0.003 142.848 143.36 90.624-91.136c9.373-10.040 22.686-16.298 37.46-16.298 21.421 0 39.77 13.155 47.408 31.828l0.124 0.342c0.119 0.693 0.186 1.49 0.186 2.304s-0.068 1.611-0.198 2.388l0.012-0.084c1.711 4.224 2.816 9.115 3.068 14.231l0.004 0.105v271.36c0 0 0 0.001 0 0.001 0 84.651-68.477 153.308-153.060 153.599h-0.028zM921.6 660.992l-40.448 43.008c-9.28 9.354-22.14 15.145-36.352 15.145s-27.072-5.791-36.349-15.142l-0.003-0.003-142.848-145.408-142.848 145.408c-9.28 9.354-22.14 15.145-36.352 15.145s-27.072-5.791-36.349-15.142l-0.003-0.003-117.248-119.808-117.248 119.808c-9.28 9.354-22.14 15.145-36.352 15.145s-27.072-5.791-36.349-15.142l-0.003-0.003-40.448-43.008v145.408c0 28.277 22.923 51.2 51.2 51.2v0h716.8c28.277 0 51.2-22.923 51.2-51.2v0-145.408z" />
<glyph unicode="&#xe954;" glyph-name="refresh" d="M512 806.4v153.6l204.8-204.8-204.8-204.8v153.6c-143.36 0-256-112.64-256-256 0-51.2 15.36-97.28 40.96-138.24l-76.8-66.56c-112.64 158.72-76.8 384 87.040 496.64 56.32 46.080 133.12 66.56 204.8 66.56zM512 89.6v-153.6l-204.8 204.8 204.8 204.8v-153.6c143.36 0 256 112.64 256 256 0 46.080-10.24 92.16-35.84 128l71.68 76.8c112.64-163.84 76.8-384-87.040-501.76-56.32-35.84-128-61.44-204.8-61.44z" />
<glyph unicode="&#xe955;" glyph-name="revert" d="M972.8 499.098c-28.277 0-51.2-22.923-51.2-51.2v0c0.005-0.778 0.008-1.699 0.008-2.62 0-227.63-184.53-412.16-412.16-412.16s-412.16 184.53-412.16 412.16c0 227.63 184.53 412.16 412.16 412.16 117.362 0 223.268-49.053 298.332-127.776l0.156-0.164h-122.88c-28.277 0-51.2-22.923-51.2-51.2s22.923-51.2 51.2-51.2v0h231.936c28.277 0 51.2 22.923 51.2 51.2v0 230.4c0 28.277-22.923 51.2-51.2 51.2s-51.2-22.923-51.2-51.2v0-90.624c-91.761 87.831-216.462 141.898-353.792 141.898-282.77 0-512-229.23-512-512s229.23-512 512-512c282.744 0 511.958 229.188 512 511.922v0.004c0 28.277-22.923 51.2-51.2 51.2v0z" />
<glyph unicode="&#xe956;" glyph-name="comment-add" d="M512 601.6c-28.277 0-51.2-22.923-51.2-51.2s22.923-51.2 51.2-51.2v0c28.277 0 51.2 22.923 51.2 51.2s-22.923 51.2-51.2 51.2v0zM870.4 960h-716.8c-84.831 0-153.6-68.769-153.6-153.6v0-512c0-84.831 68.769-153.6 153.6-153.6v0h593.408l189.44-189.952c9.241-9.121 21.943-14.755 35.961-14.755 7.166 0 13.988 1.472 20.18 4.13l-0.333-0.127c18.709 7.833 31.635 25.945 31.744 47.090v819.214c0 84.831-68.769 153.6-153.6 153.6v0zM921.6 110.592l-117.248 117.76c-9.25 9.177-21.991 14.849-36.056 14.849-0.104 0-0.208 0-0.312-0.001h-614.384c-28.277 0-51.2 22.923-51.2 51.2v0 512c0 28.277 22.923 51.2 51.2 51.2v0h716.8c28.277 0 51.2-22.923 51.2-51.2v0-695.808zM307.2 601.6c-28.277 0-51.2-22.923-51.2-51.2s22.923-51.2 51.2-51.2v0c28.277 0 51.2 22.923 51.2 51.2s-22.923 51.2-51.2 51.2v0zM716.8 601.6c-28.277 0-51.2-22.923-51.2-51.2s22.923-51.2 51.2-51.2v0c28.277 0 51.2 22.923 51.2 51.2s-22.923 51.2-51.2 51.2v0z" />
<glyph unicode="&#xe957;" glyph-name="bill" d="M153.6 704h-102.4v102.4h921.6v-102.4h-102.4v-716.8h-716.8v716.8zM307.2 550.4v-51.2h409.6v51.2h-409.6zM307.2 396.8v-51.2h409.6v51.2h-409.6zM307.2 243.2v-51.2h307.2v51.2h-307.2z" />
<glyph unicode="&#xe958;" glyph-name="cloud-up" d="M839.68 642.56c-76.8 179.2-291.84 266.24-471.040 184.32-112.64-51.2-194.56-158.72-209.92-281.6-107.52-25.6-179.2-138.24-153.6-245.76 20.48-92.16 102.4-158.72 199.68-158.72 30.72 0 51.2 20.48 51.2 51.2s-20.48 51.2-51.2 51.2c-56.32 0-102.4 46.080-102.4 102.4s46.080 102.4 102.4 102.4c30.72 0 51.2 20.48 51.2 51.2 0 143.36 112.64 256 256 256 107.52 0 204.8-71.68 240.64-174.080 5.12-20.48 20.48-30.72 40.96-35.84 81.92-15.36 138.24-97.28 122.88-179.2-10.24-56.32-51.2-102.4-112.64-117.76-25.6-5.12-46.080-35.84-35.84-61.44s35.84-46.080 61.44-35.84c0 0 0 0 0 0 138.24 35.84 220.16 174.080 184.32 312.32-20.48 81.92-87.040 153.6-174.080 179.2zM547.84 535.040c-5.12 5.12-10.24 10.24-15.36 10.24-15.36 5.12-25.6 5.12-40.96 0-5.12 0-10.24-5.12-15.36-10.24l-153.6-153.6c-20.48-20.48-20.48-51.2 0-71.68s51.2-20.48 71.68 0l66.56 66.56v-286.72c0-30.72 20.48-51.2 51.2-51.2s51.2 20.48 51.2 51.2v286.72l66.56-66.56c20.48-20.48 51.2-20.48 71.68 0 0 0 0 0 0 0 20.48 20.48 20.48 51.2 0 71.68 0 0 0 0 0 0l-153.6 153.6z" />
<glyph unicode="&#xe959;" glyph-name="comment" d="M256 704c-28.277 0-51.2-22.923-51.2-51.2s22.923-51.2 51.2-51.2v0c28.277 0 51.2 22.923 51.2 51.2s-22.923 51.2-51.2 51.2v0zM256 499.2c-28.277 0-51.2-22.923-51.2-51.2s22.923-51.2 51.2-51.2v0c28.277 0 51.2 22.923 51.2 51.2s-22.923 51.2-51.2 51.2v0zM768 499.2h-307.2c-28.277 0-51.2-22.923-51.2-51.2s22.923-51.2 51.2-51.2v0h307.2c28.277 0 51.2 22.923 51.2 51.2s-22.923 51.2-51.2 51.2v0zM768 704h-307.2c-28.277 0-51.2-22.923-51.2-51.2s22.923-51.2 51.2-51.2v0h307.2c28.277 0 51.2 22.923 51.2 51.2s-22.923 51.2-51.2 51.2v0zM870.4 960h-716.8c-84.831 0-153.6-68.769-153.6-153.6v0-512c0-84.831 68.769-153.6 153.6-153.6v0h593.408l189.44-189.952c9.241-9.121 21.943-14.755 35.961-14.755 7.166 0 13.988 1.472 20.18 4.13l-0.333-0.127c18.709 7.833 31.635 25.945 31.744 47.090v819.214c0 84.831-68.769 153.6-153.6 153.6v0zM921.6 110.592l-117.248 117.76c-9.25 9.177-21.991 14.849-36.056 14.849-0.104 0-0.208 0-0.312-0.001h-614.384c-28.277 0-51.2 22.923-51.2 51.2v0 512c0 28.277 22.923 51.2 51.2 51.2v0h716.8c28.277 0 51.2-22.923 51.2-51.2v0-695.808z" />
<glyph unicode="&#xe95e;" glyph-name="question1" d="M475.648 279.552c-2.095-2.308-4.112-4.812-5.976-7.431l-0.168-0.249c-1.826-2.653-3.384-5.7-4.524-8.943l-0.084-0.273c-1.388-2.665-2.456-5.757-3.042-9.017l-0.030-0.199c-0.12-1.532-0.188-3.318-0.188-5.12s0.068-3.588 0.203-5.355l-0.014 0.235c-0.009-0.33-0.014-0.718-0.014-1.108 0-6.665 1.516-12.976 4.222-18.606l-0.112 0.258c4.761-12.897 14.751-22.887 27.329-27.545l0.319-0.103c5.725-2.595 12.414-4.108 19.456-4.108s13.731 1.512 19.76 4.23l-0.304-0.122c12.897 4.761 22.887 14.751 27.545 27.329l0.103 0.319c1.968 5.223 3.107 11.261 3.107 17.564 0 0.665-0.013 1.328-0.038 1.987l0.003-0.095c0.001 0.088 0.001 0.193 0.001 0.298 0 28.277-22.923 51.2-51.2 51.2-14.213 0-27.073-5.791-36.35-15.142l-0.003-0.003zM512 960c-282.778 0-512-229.222-512-512s229.222-512 512-512 512 229.222 512 512c0 282.77-229.23 512-512 512v0zM512 38.4c-226.216 0-409.6 183.384-409.6 409.6s183.384 409.6 409.6 409.6v0c226.216 0 409.6-183.384 409.6-409.6s-183.384-409.6-409.6-409.6v0zM512 704c-0.029 0-0.064 0-0.098 0-56.554 0-105.969-30.564-132.629-76.075l-0.392-0.725c-5.013-7.776-7.992-17.274-7.992-27.468 0-28.277 22.923-51.2 51.2-51.2 19.601 0 36.629 11.014 45.233 27.191l0.134 0.277c9.017 15.412 25.489 25.6 44.341 25.6 0.071 0 0.143 0 0.214 0h-0.011c28.277 0 51.2-22.923 51.2-51.2s-22.923-51.2-51.2-51.2v0c-28.277 0-51.2-22.923-51.2-51.2v0-51.2c0-28.277 22.923-51.2 51.2-51.2s51.2 22.923 51.2 51.2v0 9.216c59.54 22.055 101.208 78.356 101.208 144.389 0 84.412-68.091 152.92-152.344 153.595h-0.064z" />
<glyph unicode="&#xe960;" glyph-name="minus" d="M563.2 396.8h307.2c30.72 0 51.2 20.48 51.2 51.2s-20.48 51.2-51.2 51.2h-716.8c-30.72 0-51.2-20.48-51.2-51.2s20.48-51.2 51.2-51.2h409.6z" />
<glyph unicode="&#xe961;" glyph-name="mail1" d="M870.4 857.6h-716.8c-87.040 0-153.6-66.56-153.6-153.6v-512c0-87.040 66.56-153.6 153.6-153.6h716.8c87.040 0 153.6 66.56 153.6 153.6v512c0 87.040-66.56 153.6-153.6 153.6zM153.6 755.2h716.8c30.72 0 51.2-20.48 51.2-51.2l-409.6-250.88-409.6 250.88c0 30.72 20.48 51.2 51.2 51.2zM921.6 192c0-30.72-20.48-51.2-51.2-51.2h-716.8c-30.72 0-51.2 20.48-51.2 51.2v394.24l384-235.52c15.36-10.24 35.84-10.24 51.2 0l384 235.52v-394.24z" />
<glyph unicode="&#xe963;" glyph-name="receipt" d="M358.4 448h-102.4c-28.277 0-51.2-22.923-51.2-51.2s22.923-51.2 51.2-51.2v0h102.4c28.277 0 51.2 22.923 51.2 51.2s-22.923 51.2-51.2 51.2v0zM307.2 550.4h204.8c28.277 0 51.2 22.923 51.2 51.2s-22.923 51.2-51.2 51.2v0h-204.8c-28.277 0-51.2-22.923-51.2-51.2s22.923-51.2 51.2-51.2v0zM358.4 243.2h-102.4c-28.277 0-51.2-22.923-51.2-51.2s22.923-51.2 51.2-51.2v0h102.4c28.277 0 51.2 22.923 51.2 51.2s-22.923 51.2-51.2 51.2v0zM972.8 448h-153.6v460.8c0 0.060 0 0.132 0 0.204 0 28.277-22.923 51.2-51.2 51.2-9.426 0-18.257-2.547-25.842-6.991l0.242 0.131-153.6-88.064-153.6 88.064c-7.344 4.312-16.174 6.859-25.6 6.859s-18.256-2.547-25.842-6.99l0.242 0.131-153.6-88.064-153.6 88.064c-7.344 4.313-16.175 6.86-25.6 6.86-28.277 0-51.2-22.923-51.2-51.2 0-0.072 0-0.143 0-0.215v0.011-819.2c0-84.831 68.769-153.6 153.6-153.6v0h716.8c84.831 0 153.6 68.769 153.6 153.6v0 307.2c0 28.277-22.923 51.2-51.2 51.2v0zM153.6 38.4c-28.277 0-51.2 22.923-51.2 51.2v0 730.624l102.4-58.368c7.427-3.958 16.242-6.283 25.6-6.283s18.173 2.325 25.899 6.428l-0.299-0.145 153.6 88.064 153.6-88.064c7.427-3.958 16.242-6.283 25.6-6.283s18.173 2.325 25.899 6.428l-0.299-0.145 102.4 58.368v-730.624c0.151-18.41 3.516-35.987 9.562-52.262l-0.346 1.062h-572.416zM921.6 89.6c0-28.277-22.923-51.2-51.2-51.2s-51.2 22.923-51.2 51.2v0 256h102.4v-256zM591.872 234.496c-2.653 1.826-5.7 3.384-8.943 4.524l-0.273 0.084c-2.82 1.475-6.098 2.553-9.563 3.052l-0.165 0.020c-3.022 0.634-6.495 0.997-10.053 0.997-14.051 0-26.78-5.66-36.031-14.824l0.004 0.004c-9.026-9.453-14.645-22.227-14.848-36.312v-0.040c-0.002-0.187-0.004-0.407-0.004-0.627 0-6.779 1.318-13.251 3.711-19.172l-0.123 0.344c2.765-6.246 6.605-11.93 11.264-16.896 4.966-4.506 10.701-8.192 16.896-10.752 5.725-2.595 12.414-4.108 19.456-4.108s13.731 1.512 19.76 4.23l-0.304-0.122c6.506 2.758 12.095 6.376 16.943 10.794l-0.047-0.042c9.177 9.25 14.849 21.991 14.849 36.056 0 0.104 0 0.208-0.001 0.312v-0.016c-0.203 14.125-5.822 26.899-14.868 36.373l0.020-0.021c-2.308 2.095-4.812 4.112-7.431 5.976l-0.249 0.168zM599.040 433.152c-9.215 8.981-21.821 14.52-35.721 14.52-21.135 0-39.279-12.806-47.096-31.082l-0.127-0.334c-2.429-5.752-3.841-12.439-3.841-19.457 0-28.187 22.778-51.055 50.931-51.199h0.014c28.277 0 51.2 22.923 51.2 51.2v0c-0.088 7.047-1.586 13.722-4.224 19.787l0.128-0.331c-2.6 6.628-6.429 12.266-11.247 16.88l-0.017 0.016z" />
<glyph unicode="&#xe965;" glyph-name="value-drop" d="M512-64c-282.778 0-512 229.222-512 512s229.222 512 512 512 512-229.222 512-512-229.222-512-512-512zM105.574 396.8c18.984-146.15 112.555-266.735 240.687-323.572l2.615-1.036c-48.282 86.118-83.302 203.674-91.187 324.608h-152.115zM105.574 499.2h152.064c7.731 121.037 42.086 238.182 89.907 324.045-130.060-58.12-223.058-178.38-241.752-321.982l-0.219-2.063zM918.426 499.2c-18.914 145.664-111.911 265.925-239.373 323.005l-2.598 1.040c47.821-85.862 82.176-203.008 89.907-324.045h152.064zM675.123 72.192c130.747 57.873 224.318 178.457 243.083 322.544l0.22 2.064h-152.115c-7.885-120.934-42.906-238.49-91.187-324.608zM426.291 144.947c33.229-66.765 72.192-106.547 85.709-106.547s52.48 39.782 85.709 106.547c35.584 71.526 59.494 159.744 66.048 251.853h-303.514c6.554-92.058 30.464-180.326 66.048-251.853zM425.37 751.155c-35.123-71.168-58.726-159.539-65.178-251.955h303.616c-6.451 92.416-30.054 180.736-65.178 251.955-33.126 67.072-71.885 106.445-86.63 106.445s-53.504-39.322-86.63-106.445z" />
<glyph unicode="&#xe966;" glyph-name="plus" d="M870.4 499.2h-307.2v307.2c0 30.72-20.48 51.2-51.2 51.2s-51.2-20.48-51.2-51.2v-307.2h-307.2c-30.72 0-51.2-20.48-51.2-51.2s20.48-51.2 51.2-51.2h307.2v-307.2c0-30.72 20.48-51.2 51.2-51.2s51.2 20.48 51.2 51.2v307.2h307.2c30.72 0 51.2 20.48 51.2 51.2s-20.48 51.2-51.2 51.2z" />
<glyph unicode="&#xe967;" glyph-name="rub" d="M624.64 883.2h-317.44v-389.12h-102.4v-143.36h102.4v-92.16h-102.4v-92.16h102.4v-158.72h128v158.72h240.64v92.16h-240.64v92.16h184.32c133.12 0 194.56 112.64 194.56 245.76s-20.48 286.72-189.44 286.72zM624.64 494.080h-189.44v245.76h184.32c71.68 0 81.92-61.44 81.92-122.88 5.12-61.44-5.12-122.88-76.8-122.88v0z" />
<glyph unicode="&#xe96a;" glyph-name="euro" d="M650.24 350.72h-148.48c0-46.080 15.36-76.8 35.84-97.28s56.32-35.84 102.4-35.84c30.72 0 61.44 5.12 87.040 15.36l15.36-107.52c-35.84-10.24-76.8-15.36-117.76-15.36-76.8 0-143.36 20.48-189.44 61.44s-71.68 102.4-71.68 179.2h-76.8v66.56h76.8v61.44h-76.8v66.56h76.8c5.12 76.8 30.72 133.12 76.8 174.080s112.64 61.44 189.44 61.44c30.72 0 66.56-5.12 107.52-15.36l-15.36-107.52c-25.6 10.24-56.32 15.36-81.92 15.36-87.040 0-133.12-40.96-138.24-128h148.48v-66.56h-148.48v-56.32h148.48v-71.68z" />
<glyph unicode="&#xe96b;" glyph-name="del" d="M568.32 448l240.64 240.64c15.36 15.36 15.36 40.96 0 51.2-15.36 15.36-40.96 15.36-51.2 0v0l-245.76-235.52-240.64 240.64c-15.36 15.36-40.96 15.36-51.2 0s-15.36-40.96 0-51.2l240.64-245.76-240.64-240.64c-15.36-15.36-15.36-40.96 0-51.2v0c15.36-15.36 40.96-15.36 56.32 0v0l235.52 240.64 240.64-240.64c15.36-15.36 40.96-15.36 51.2 0v0c15.36 15.36 15.36 40.96 0 51.2v0l-235.52 240.64z" />
<glyph unicode="&#xe96c;" glyph-name="check" d="M855.040 693.76c-20.48 20.48-51.2 20.48-71.68 0 0 0 0 0 0 0l-378.88-384-163.84 163.84c-20.48 20.48-51.2 20.48-71.68 0s-20.48-51.2 0-71.68c0 0 0 0 0 0l194.56-194.56c20.48-20.48 51.2-20.48 71.68 0 0 0 0 0 0 0l419.84 419.84c20.48 10.24 20.48 40.96 0 66.56 0 0 0 0 0 0z" />
<glyph unicode="&#xe96d;" glyph-name="check-light" d="M855.040 693.76c-20.48 20.48-51.2 20.48-71.68 0 0 0 0 0 0 0l-378.88-384-163.84 163.84c-20.48 20.48-51.2 20.48-71.68 0s-20.48-51.2 0-71.68c0 0 0 0 0 0l194.56-194.56c20.48-20.48 51.2-20.48 71.68 0 0 0 0 0 0 0l419.84 419.84c20.48 10.24 20.48 40.96 0 66.56 0 0 0 0 0 0z" />
<glyph unicode="&#xe96e;" glyph-name="clock" d="M512 960c-282.778 0-512-229.222-512-512s229.222-512 512-512 512 229.222 512 512c0 282.77-229.23 512-512 512v0zM512 38.4c-226.216 0-409.6 183.384-409.6 409.6s183.384 409.6 409.6 409.6v0c226.216 0 409.6-183.384 409.6-409.6s-183.384-409.6-409.6-409.6v0zM670.72 415.744l-107.52 61.952v226.304c0 28.277-22.923 51.2-51.2 51.2s-51.2-22.923-51.2-51.2v0-262.144c0.332-3.77 1.242-7.244 2.643-10.454l-0.083 0.214c1.172-3.339 2.555-6.213 4.209-8.901l-0.113 0.197c1.519-3.122 3.224-5.81 5.189-8.282l-0.069 0.090 8.192-6.656 4.608-4.608 133.12-76.8c7.259-4.187 15.964-6.657 25.246-6.657 0.124 0 0.249 0 0.373 0.001h-0.019c0.106-0.001 0.232-0.001 0.358-0.001 28.277 0 51.2 22.923 51.2 51.2 0 18.996-10.345 35.576-25.709 44.413l-0.249 0.132h1.024z" />
<glyph unicode="&#xe970;" glyph-name="prev" d="M476.16 448l174.080 189.44c20.48 20.48 20.48 56.32 0 76.8-10.24 10.24-20.48 15.36-35.84 15.36s-25.6-5.12-35.84-15.36l-204.8-225.28c-10.24-10.24-15.36-25.6-15.36-40.96s5.12-25.6 15.36-35.84l209.92-230.4c15.36-20.48 46.080-20.48 66.56-5.12 0 0 0 0 5.12 5.12 20.48 20.48 20.48 56.32 0 76.8l-179.2 189.44z" />
<glyph unicode="&#xe975;" glyph-name="ellips-eye" d="M1018.88 468.48c-102.4 240.64-296.96 389.12-506.88 389.12s-404.48-148.48-506.88-389.12c-5.12-15.36-5.12-25.6 0-40.96 102.4-240.64 296.96-389.12 506.88-389.12s404.48 148.48 506.88 389.12c5.12 15.36 5.12 25.6 0 40.96zM512 140.8c-163.84 0-317.44 117.76-404.48 307.2 87.040 189.44 240.64 307.2 404.48 307.2s317.44-117.76 404.48-307.2c-87.040-189.44-240.64-307.2-404.48-307.2zM512 652.8c-112.64 0-204.8-92.16-204.8-204.8s92.16-204.8 204.8-204.8 204.8 92.16 204.8 204.8-92.16 204.8-204.8 204.8zM512 345.6c-56.32 0-102.4 46.080-102.4 102.4s46.080 102.4 102.4 102.4 102.4-46.080 102.4-102.4-46.080-102.4-102.4-102.4z" />
<glyph unicode="&#xe976;" glyph-name="corpcard" d="M870.4 832h-716.8c-87.040 0-153.6-66.56-153.6-153.6v-460.8c0-87.040 66.56-153.6 153.6-153.6h716.8c87.040 0 153.6 66.56 153.6 153.6v460.8c0 87.040-66.56 153.6-153.6 153.6zM921.6 217.6c0-30.72-20.48-51.2-51.2-51.2h-716.8c-30.72 0-51.2 20.48-51.2 51.2v460.8c0 30.72 20.48 51.2 51.2 51.2h716.8c30.72 0 51.2-20.48 51.2-51.2v-460.8zM716.8 524.8c-25.6 0-56.32-5.12-76.8-20.48-71.68 40.96-168.96 20.48-209.92-51.2s-20.48-168.96 51.2-209.92c46.080-30.72 107.52-30.72 158.72 0 71.68-40.96 168.96-20.48 209.92 51.2s20.48 168.96-51.2 209.92c-25.6 15.36-56.32 20.48-81.92 20.48zM573.44 320c-5.12 0-5.12 0-10.24 0-30.72 0-51.2 20.48-51.2 51.2s20.48 51.2 51.2 51.2c5.12 0 5.12 0 10.24 0-15.36-30.72-15.36-66.56 0-102.4v0zM716.8 320c-30.72 0-51.2 20.48-51.2 51.2s20.48 51.2 51.2 51.2 51.2-20.48 51.2-51.2-20.48-51.2-51.2-51.2z" />
<glyph unicode="&#xe978;" glyph-name="success" d="M651.264 612.352l-219.648-220.16-84.48 84.48c-9.446 10.984-23.36 17.897-38.889 17.897-28.277 0-51.2-22.923-51.2-51.2 0-15.528 6.913-29.442 17.829-38.832l0.067-0.057 120.32-120.832c9.255-9.201 22.011-14.889 36.096-14.889s26.842 5.687 36.098 14.891l255.998 255.998c9.347 9.283 15.133 22.142 15.133 36.352 0 28.293-22.936 51.229-51.229 51.229-14.083 0-26.838-5.682-36.099-14.88l0.003 0.003zM512 960c-282.778 0-512-229.222-512-512s229.222-512 512-512 512 229.222 512 512c0 282.77-229.23 512-512 512v0zM512 38.4c-226.216 0-409.6 183.384-409.6 409.6s183.384 409.6 409.6 409.6v0c226.216 0 409.6-183.384 409.6-409.6s-183.384-409.6-409.6-409.6v0z" />
<glyph unicode="&#xe979;" glyph-name="comments" d="M870.4 652.8h-51.2v153.6c0 84.831-68.769 153.6-153.6 153.6v0h-512c-84.831 0-153.6-68.769-153.6-153.6v0-614.4c0.109-21.159 13.035-39.271 31.407-46.978l0.337-0.126c5.859-2.531 12.681-4.003 19.847-4.003 14.018 0 26.721 5.634 35.967 14.761l-0.005-0.005 143.872 144.384h75.776v-73.728c0-84.831 68.769-153.6 153.6-153.6v0h354.304l121.344-121.856c9.241-9.121 21.943-14.755 35.961-14.755 7.166 0 13.988 1.472 20.18 4.13l-0.333-0.127c18.709 7.833 31.635 25.945 31.744 47.090v512.014c0 84.831-68.769 153.6-153.6 153.6v0zM307.2 499.2v-96.768h-96.768c-0.088 0.001-0.192 0.001-0.296 0.001-14.065 0-26.806-5.671-36.059-14.852l0.003 0.003-71.68-72.192v491.008c0 28.277 22.923 51.2 51.2 51.2v0h512c28.277 0 51.2-22.923 51.2-51.2v0-153.6h-256c-84.831 0-153.6-68.769-153.6-153.6v0zM921.6 110.592l-51.2 51.2c-9.251 9.433-22.111 15.299-36.34 15.36h-373.26c-28.277 0-51.2 22.923-51.2 51.2v0 270.848c0 28.277 22.923 51.2 51.2 51.2v0h409.6c28.277 0 51.2-22.923 51.2-51.2v0-388.608z" />
<glyph unicode="&#xe97d;" glyph-name="calendar" d="M839.68 744.96c0 25.6 20.48 46.080 46.080 46.080s46.080-20.48 46.080-46.080v-670.72c0-76.8-61.44-138.24-138.24-138.24v0h-563.2c-76.8 0-138.24 61.44-138.24 138.24v747.52c0 76.8 61.44 138.24 138.24 138.24h558.080c76.8 0 138.24-61.44 138.24-138.24v0-92.16c0-25.6-20.48-46.080-46.080-46.080s-46.080 20.48-46.080 46.080v92.16c0 25.6-20.48 46.080-46.080 46.080h-558.080c-25.6 0-46.080-20.48-46.080-46.080v-742.4c0-25.6 20.48-46.080 46.080-46.080h558.080c25.6 0 46.080 20.48 46.080 46.080l5.12 665.6zM373.76 632.32c-25.6 0-46.080 20.48-46.080 46.080s20.48 46.080 46.080 46.080h281.6c25.6 0 46.080-20.48 46.080-46.080s-20.48-46.080-46.080-46.080c0 0 0 0-5.12 0h-276.48zM373.76 401.92c-25.6 0-46.080 20.48-46.080 46.080s20.48 46.080 46.080 46.080h281.6c25.6 0 46.080-20.48 46.080-46.080s-20.48-46.080-46.080-46.080v0h-281.6zM373.76 166.4c-25.6 0-46.080 20.48-46.080 46.080s20.48 46.080 46.080 46.080h281.6c25.6 0 46.080-20.48 46.080-46.080s-20.48-46.080-46.080-46.080c0 0 0 0-5.12 0h-276.48z" />
<glyph unicode="&#xe97f;" glyph-name="receipt2" d="M409.6 652.8h307.2c30.72 0 51.2 20.48 51.2 51.2s-20.48 51.2-51.2 51.2h-307.2c-30.72 0-51.2-20.48-51.2-51.2s20.48-51.2 51.2-51.2zM307.2 448h409.6c30.72 0 51.2 20.48 51.2 51.2s-20.48 51.2-51.2 51.2h-409.6c-30.72 0-51.2-20.48-51.2-51.2s20.48-51.2 51.2-51.2zM307.2 243.2h409.6c30.72 0 51.2 20.48 51.2 51.2s-20.48 51.2-51.2 51.2h-409.6c-30.72 0-51.2-20.48-51.2-51.2s20.48-51.2 51.2-51.2zM921.6 960h-819.2c-30.72 0-51.2-20.48-51.2-51.2v-921.6c0-30.72 20.48-51.2 51.2-51.2 10.24 0 20.48 5.12 30.72 10.24l107.52 76.8 107.52-76.8c20.48-15.36 40.96-15.36 61.44 0l107.52 76.8 107.52-76.8c20.48-15.36 40.96-15.36 61.44 0l107.52 76.8 107.52-76.8c20.48-15.36 56.32-10.24 71.68 10.24 5.12 10.24 10.24 20.48 10.24 30.72v921.6c-10.24 30.72-30.72 51.2-61.44 51.2zM870.4 89.6l-56.32 40.96c-20.48 15.36-40.96 15.36-61.44 0l-107.52-76.8-107.52 76.8c-20.48 15.36-40.96 15.36-61.44 0l-107.52-76.8-107.52 76.8c-20.48 15.36-40.96 15.36-61.44 0l-46.080-40.96v768h716.8v-768z" />
<glyph unicode="&#xe980;" glyph-name="house" d="M460.8 616.96c-56.32 0-102.4-46.080-102.4-102.4v-450.56c0-20.48-15.36-35.84-35.84-35.84h-189.44c-20.48 0-35.84 15.36-35.84 35.84v0 762.88c0 20.48 15.36 35.84 35.84 35.84h378.88c20.48 0 35.84-15.36 35.84-35.84v-133.12h97.28v163.84c0 56.32-46.080 102.4-102.4 102.4v0h-440.32c-56.32 0-102.4-46.080-102.4-102.4v-819.2c0-56.32 46.080-102.4 102.4-102.4h250.88c56.32 0 102.4 46.080 102.4 102.4v450.56c0 20.48 15.36 35.84 35.84 35.84h384c20.48 0 35.84-15.36 35.84-35.84v-419.84c0-20.48-15.36-35.84-35.84-35.84v0h-194.56c-20.48 0-35.84 15.36-35.84 35.84v0 5.12c0 20.48-15.36 35.84-35.84 35.84h-25.6c-20.48 0-35.84-15.36-35.84-35.84v-35.84c0-56.32 46.080-102.4 102.4-102.4h250.88c56.32 0 102.4 46.080 102.4 102.4v476.16c0 56.32-46.080 102.4-102.4 102.4v0h-440.32zM721.92 181.76h97.28v97.28h-97.28v-97.28zM189.44 181.76h97.28v97.28h-97.28v-97.28zM358.4 693.76h97.28v97.28h-97.28v-97.28zM189.44 350.72h97.28v97.28h-97.28v-97.28zM189.44 524.8h97.28v92.16h-97.28v-92.16zM189.44 693.76h97.28v97.28h-97.28v-97.28zM547.84 350.72h97.28v97.28h-97.28v-97.28zM547.84 181.76h97.28v97.28h-97.28v-97.28zM721.92 350.72h97.28v97.28h-97.28v-97.28z" />
<glyph unicode="&#xe981;" glyph-name="doc-remove" d="M921.6 606.72c0 5.12 0 10.24-5.12 15.36v0c0 5.12-5.12 10.24-10.24 15.36l-307.2 307.2c-5.12 5.12-10.24 5.12-15.36 10.24 0 0-5.12 0-5.12 0s-5.12 5.12-10.24 5.12h-312.32c-87.040 0-153.6-66.56-153.6-153.6v-716.8c0-87.040 66.56-153.6 153.6-153.6h512c87.040 0 153.6 66.56 153.6 153.6v517.12zM614.4 785.92l133.12-133.12h-81.92c-30.72 0-51.2 20.48-51.2 51.2v81.92zM819.2 89.6c0-30.72-20.48-51.2-51.2-51.2h-512c-30.72 0-51.2 20.48-51.2 51.2v716.8c0 30.72 20.48 51.2 51.2 51.2h256v-153.6c0-87.040 66.56-153.6 153.6-153.6h153.6v-460.8zM512 366.080l66.56 66.56c20.48 20.48 51.2 20.48 71.68 0s20.48-51.2 0-71.68l-66.56-66.56 66.56-66.56c20.48-20.48 20.48-51.2 0-71.68s-51.2-20.48-71.68 0l-66.56 66.56-66.56-66.56c-20.48-20.48-51.2-20.48-71.68 0s-20.48 51.2 0 71.68c0 0 0 0 0 0l66.56 66.56-66.56 66.56c-20.48 20.48-20.48 51.2 0 71.68s51.2 20.48 71.68 0l66.56-66.56z" />
<glyph unicode="&#xe982;" glyph-name="dollar" d="M604.16 289.28c0 25.6-5.12 46.080-20.48 56.32-15.36 15.36-35.84 25.6-71.68 40.96-30.72 10.24-56.32 20.48-87.040 35.84-20.48 15.36-40.96 25.6-56.32 46.080-20.48 15.36-30.72 30.72-40.96 56.32-10.24 20.48-15.36 46.080-15.36 71.68 0 51.2 15.36 92.16 46.080 122.88s76.8 51.2 128 56.32v102.4h76.8v-97.28c51.2-5.12 92.16-30.72 122.88-66.56s46.080-81.92 46.080-143.36h-128c0 35.84-5.12 61.44-20.48 81.92-15.36 15.36-35.84 25.6-61.44 25.6s-46.080-5.12-56.32-20.48c-15.36-15.36-20.48-35.84-20.48-61.44 0-20.48 5.12-40.96 20.48-56.32 10.24-10.24 35.84-25.6 71.68-40.96s66.56-25.6 87.040-40.96c25.6-15.36 40.96-25.6 56.32-40.96s25.6-35.84 35.84-56.32c10.24-20.48 10.24-46.080 10.24-71.68 0-51.2-15.36-92.16-46.080-122.88s-76.8-51.2-133.12-56.32v-87.040h-66.56v87.040c-61.44 5.12-107.52 30.72-143.36 66.56s-51.2 87.040-51.2 148.48h128c0-35.84 10.24-61.44 25.6-81.92s40.96-30.72 71.68-30.72c25.6 0 46.080 5.12 61.44 20.48 20.48 15.36 30.72 30.72 30.72 56.32z" />
<glyph unicode="&#xe983;" glyph-name="excel" d="M578.56 908.8c-5.12 0-5.12 5.12 0 0l-5.12 10.24h-5.12c-15.36 5.12-20.48 5.12-35.84 5.12l-486.4-92.16c-20.48-10.24-35.84-25.6-35.84-46.080v-675.84c0-20.48 10.24-35.84 35.84-46.080l491.52-92.16h5.12c5.12 0 20.48 0 30.72 15.36 10.24 5.12 15.36 20.48 15.36 35.84v860.16c0 10.24-5.12 20.48-10.24 25.6zM496.64 821.76v-752.64l-394.24 76.8v604.16l394.24 71.68zM967.68 801.28h-424.96c-25.6 0-46.080-20.48-46.080-46.080s20.48-46.080 46.080-46.080h378.88v-522.24h-378.88c-25.6 0-46.080-20.48-46.080-46.080s20.48-46.080 46.080-46.080h424.96c25.6 0 46.080 20.48 46.080 46.080v614.4c0 25.6-20.48 46.080-46.080 46.080zM665.6 678.4h-122.88c-25.6 0-46.080-20.48-46.080-46.080s20.48-46.080 46.080-46.080h122.88c25.6 0 46.080 20.48 46.080 46.080s-20.48 46.080-46.080 46.080zM665.6 555.52h-122.88c-25.6 0-46.080-20.48-46.080-46.080s20.48-46.080 46.080-46.080h122.88c25.6 0 46.080 20.48 46.080 46.080s-20.48 46.080-46.080 46.080zM665.6 432.64h-122.88c-25.6 0-46.080-20.48-46.080-46.080s20.48-46.080 46.080-46.080h122.88c25.6 0 46.080 20.48 46.080 46.080s-20.48 46.080-46.080 46.080zM665.6 309.76h-122.88c-25.6 0-46.080-20.48-46.080-46.080s20.48-46.080 46.080-46.080h122.88c25.6 0 46.080 20.48 46.080 46.080s-20.48 46.080-46.080 46.080zM844.8 678.4h-61.44c-25.6 0-46.080-20.48-46.080-46.080v-5.12c10.24-25.6 25.6-40.96 46.080-40.96h61.44c25.6 0 46.080 20.48 46.080 46.080 0 20.48-15.36 46.080-46.080 46.080zM844.8 555.52h-61.44c-25.6 0-46.080-20.48-46.080-46.080s20.48-46.080 46.080-46.080h61.44c25.6 0 46.080 20.48 46.080 46.080 0 20.48-15.36 46.080-46.080 46.080zM844.8 432.64h-61.44c-25.6 0-46.080-20.48-46.080-46.080s20.48-46.080 46.080-46.080h61.44c25.6 0 46.080 20.48 46.080 46.080 0 20.48-15.36 46.080-46.080 46.080zM844.8 309.76h-61.44c-25.6 0-46.080-20.48-46.080-46.080s20.48-46.080 46.080-46.080h61.44c25.6 0 46.080 20.48 46.080 46.080 0 20.48-15.36 46.080-46.080 46.080zM455.68 355.84l-215.040 245.76c-10.24 10.24-20.48 15.36-35.84 15.36-10.24 0-20.48-5.12-25.6-10.24-20.48-20.48-20.48-40.96-5.12-66.56l215.040-245.76c5.12-10.24 20.48-15.36 30.72-15.36 5.12 0 20.48 0 30.72 10.24 15.36 20.48 20.48 46.080 5.12 66.56zM450.56 637.44c-25.6 20.48-51.2 0-61.44-5.12l-215.040-281.6c-10.24-10.24-10.24-20.48-10.24-30.72 0-5.12 5.12-15.36 15.36-25.6 10.24-15.36 20.48-15.36 30.72-15.36 15.36 0 30.72 5.12 35.84 15.36l220.16 276.48v5.12c5.12 20.48 0 46.080-15.36 61.44z" />
<glyph unicode="&#xe985;" glyph-name="next" d="M650.24 483.84l-209.92 204.8c-20.48 20.48-51.2 20.48-71.68 0 0 0 0 0 0 0-20.48-20.48-20.48-51.2 0-66.56 0 0 0 0 0 0l174.080-174.080-174.080-174.080c-20.48-20.48-20.48-51.2 0-66.56 15.36-10.24 25.6-15.36 40.96-15.36s25.6 5.12 35.84 15.36l209.92 204.8c15.36 20.48 15.36 51.2-5.12 71.68 0 0 0 0 0 0z" />
<glyph unicode="&#xe987;" glyph-name="arrow-down" d="M220.16 483.84c20.48 20.48 51.2 20.48 71.68 0 0 0 0 0 0 0l168.96-168.96v389.12c0 30.72 20.48 51.2 51.2 51.2s51.2-20.48 51.2-51.2v-389.12l168.96 168.96c20.48 20.48 51.2 20.48 71.68 0s20.48-51.2 0-71.68c0 0 0 0 0 0l-256-256c-5.12-5.12-10.24-10.24-15.36-10.24-10.24-5.12-25.6-5.12-40.96 0-5.12 0-10.24 5.12-15.36 10.24l-256 256c-20.48 20.48-20.48 51.2 0 71.68 0 0 0 0 0 0z" />
<glyph unicode="&#xe988;" glyph-name="arrow-left" d="M768 499.2h-389.12l168.96 168.96c20.48 20.48 20.48 51.2 0 71.68s-51.2 20.48-71.68 0c0 0 0 0 0 0l-256-256c-5.12-5.12-10.24-10.24-10.24-15.36-5.12-15.36-5.12-25.6 0-40.96 0-5.12 5.12-10.24 10.24-15.36l256-256c20.48-20.48 51.2-20.48 71.68 0 0 0 0 0 0 0 20.48 20.48 20.48 51.2 0 71.68 0 0 0 0 0 0l-168.96 168.96h389.12c30.72 0 51.2 20.48 51.2 51.2s-20.48 51.2-51.2 51.2z" />
<glyph unicode="&#xe989;" glyph-name="swap" d="M819.2 550.4c0 30.72-20.48 51.2-51.2 51.2h-593.92l117.76 117.76c20.48 20.48 20.48 51.2 0 71.68s-51.2 20.48-71.68 0c0 0 0 0 0 0l-204.8-204.8c-15.36-15.36-20.48-35.84-10.24-56.32 5.12-20.48 25.6-30.72 46.080-30.72h716.8c30.72 0 51.2 20.48 51.2 51.2zM1018.88 366.080c-5.12 20.48-25.6 30.72-46.080 30.72h-716.8c-30.72 0-51.2-20.48-51.2-51.2s20.48-51.2 51.2-51.2h593.92l-117.76-117.76c-20.48-20.48-20.48-51.2 0-71.68 0 0 0 0 0 0 20.48-20.48 51.2-20.48 71.68 0 0 0 0 0 0 0l204.8 204.8c15.36 15.36 20.48 35.84 10.24 56.32z" />
<glyph unicode="&#xe98a;" glyph-name="arrow-right" d="M814.080 468.48c0 5.12-5.12 10.24-10.24 15.36l-256 256c-20.48 20.48-51.2 20.48-71.68 0s-20.48-51.2 0-71.68l168.96-168.96h-389.12c-30.72 0-51.2-20.48-51.2-51.2s20.48-51.2 51.2-51.2h389.12l-168.96-168.96c-20.48-20.48-20.48-51.2 0-71.68 0 0 0 0 0 0 20.48-20.48 51.2-20.48 71.68 0 0 0 0 0 0 0l256 256c5.12 5.12 10.24 10.24 10.24 15.36 5.12 15.36 5.12 25.6 0 40.96z" />
<glyph unicode="&#xe98b;" glyph-name="arrow-up" d="M803.84 483.84l-256 256c-5.12 5.12-10.24 10.24-15.36 10.24-15.36 5.12-25.6 5.12-40.96 0-5.12 0-10.24-5.12-15.36-10.24l-256-256c-20.48-20.48-20.48-51.2 0-71.68s51.2-20.48 71.68 0v0l168.96 168.96v-389.12c0-30.72 20.48-51.2 51.2-51.2s51.2 20.48 51.2 51.2v389.12l168.96-168.96c20.48-20.48 51.2-20.48 71.68 0 0 0 0 0 0 0 20.48 20.48 20.48 51.2 0 71.68 0 0 0 0 0 0z" />
<glyph unicode="&#xe98c;" glyph-name="upload" d="M343.552 667.904l117.248 117.76v-491.008c0-28.277 22.923-51.2 51.2-51.2s51.2 22.923 51.2 51.2v0 491.008l117.248-117.76c9.28-9.354 22.14-15.145 36.352-15.145s27.072 5.791 36.349 15.142l0.003 0.003c9.354 9.28 15.145 22.14 15.145 36.352s-5.791 27.072-15.142 36.349l-204.803 204.803c-4.724 4.528-10.339 8.169-16.55 10.631l-0.346 0.121c-5.752 2.429-12.439 3.841-19.456 3.841s-13.704-1.412-19.793-3.966l0.337 0.126c-6.557-2.583-12.172-6.224-16.914-10.769l0.018 0.017-204.8-204.8c-9.303-9.303-15.057-22.156-15.057-36.352 0-28.393 23.017-51.409 51.409-51.409 14.196 0 27.049 5.754 36.352 15.057v0zM972.8 345.856c-28.277 0-51.2-22.923-51.2-51.2v0-204.8c0-28.277-22.923-51.2-51.2-51.2v0h-716.8c-28.277 0-51.2 22.923-51.2 51.2v0 204.8c0 28.277-22.923 51.2-51.2 51.2s-51.2-22.923-51.2-51.2v0-204.8c0-84.831 68.769-153.6 153.6-153.6v0h716.8c84.831 0 153.6 68.769 153.6 153.6v0 204.8c0 28.277-22.923 51.2-51.2 51.2v0z" />
<glyph unicode="&#xe98d;" glyph-name="download" d="M972.8 345.6c-28.277 0-51.2-22.923-51.2-51.2v0-204.8c0-28.277-22.923-51.2-51.2-51.2v0h-716.8c-28.277 0-51.2 22.923-51.2 51.2v0 204.8c0 28.277-22.923 51.2-51.2 51.2s-51.2-22.923-51.2-51.2v0-204.8c0-84.831 68.769-153.6 153.6-153.6v0h716.8c84.831 0 153.6 68.769 153.6 153.6v0 204.8c0 28.277-22.923 51.2-51.2 51.2v0zM475.648 258.048c4.724-4.528 10.339-8.169 16.55-10.631l0.346-0.121c5.725-2.595 12.414-4.108 19.456-4.108s13.731 1.512 19.76 4.23l-0.304-0.122c6.557 2.583 12.172 6.224 16.914 10.769l-0.018-0.017 204.8 204.8c9.303 9.303 15.057 22.156 15.057 36.352 0 28.393-23.017 51.409-51.409 51.409-14.196 0-27.049-5.754-36.352-15.057v0l-117.248-117.76v491.008c0 28.277-22.923 51.2-51.2 51.2s-51.2-22.923-51.2-51.2v0-491.008l-117.248 117.76c-9.303 9.303-22.156 15.057-36.352 15.057-28.393 0-51.409-23.017-51.409-51.409 0-14.196 5.754-27.049 15.057-36.352l204.8-204.8z" />
<glyph unicode="&#xe98e;" glyph-name="dot" d="M819.2 448c0-169.662-137.538-307.2-307.2-307.2s-307.2 137.538-307.2 307.2c0 169.662 137.538 307.2 307.2 307.2s307.2-137.538 307.2-307.2z" />
<glyph unicode="&#xe98f;" glyph-name="double-arrow-down" d="M476.16 478.72c10.24-10.24 20.48-15.36 35.84-15.36s25.6 5.12 35.84 15.36l153.6 158.72c15.36 15.36 20.48 30.72 15.36 51.2s-20.48 35.84-35.84 40.96c-20.48 5.12-35.84 0-51.2-15.36l-117.76-122.88-117.76 122.88c-20.48 20.48-51.2 20.48-71.68 0 0 0 0 0 0 0-20.48-20.48-20.48-56.32 0-76.8l153.6-158.72zM629.76 417.28l-117.76-117.76-117.76 122.88c-20.48 20.48-51.2 20.48-71.68 0 0 0 0 0 0 0-20.48-20.48-20.48-56.32 0-76.8l153.6-158.72c10.24-10.24 20.48-15.36 35.84-15.36s25.6 5.12 35.84 15.36l153.6 158.72c20.48 20.48 20.48 56.32 0 76.8-20.48 15.36-51.2 15.36-71.68-5.12 0 0 0 0 0 0s0 0 0 0z" />
</font>
</defs>
</svg>
