<?xml version="1.0" standalone="no"?>
<!DOCTYPE svg PUBLIC "-//W3C//DTD SVG 1.1//EN" "http://www.w3.org/Graphics/SVG/1.1/DTD/svg11.dtd" >
<svg xmlns="http://www.w3.org/2000/svg">
<metadata>
<json>
<![CDATA[
{
	"fontFamily": "uicons",
	"description": "Font generated by IcoMoon.",
	"majorVersion": 1,
	"minorVersion": 0,
	"copyright": "Fedyaev Alexandr",
	"designer": "",
	"version": "Version 1.0",
	"fontId": "uicons",
	"psName": "uicons",
	"subFamily": "Regular",
	"fullName": "uicons"
}
]]>
</json>
</metadata>
<defs>
<font id="uicons" horiz-adv-x="1024">
<font-face units-per-em="1024" ascent="960" descent="-64" />
<missing-glyph horiz-adv-x="1024" />
<glyph unicode="&#x20;" horiz-adv-x="512" d="" />
<glyph unicode="&#xe900;" glyph-name="doc-check" data-tags="doc-check" d="M640 921.6h-486.4v-870.4h665.6v691.2l-179.2 179.2zM768 102.4h-563.2v768h358.4v-204.8h204.8v-563.2zM614.4 716.8v153.6l153.6-153.6h-153.6zM345.6 414.72l-38.4-35.84 128-128 230.4 230.4-38.4 38.4-192-192-89.6 87.040z" />
<glyph unicode="&#xe901;" glyph-name="doc-edit" data-tags="doc-edit" d="M908.8 371.2l-76.8 76.8 64 64 76.8-76.8-64-64zM768 665.6h-204.8v204.8h-358.4v-768h204.8v-51.2h-256v870.4h486.4l179.2-179.2v-230.4l-51.2-51.2v204.8zM614.4 870.4v-153.6h153.6l-153.6 153.6zM806.4 422.4l76.8-76.8-345.6-345.6h-76.8v76.8l345.6 345.6zM768 153.6l51.2 51.2v-153.6h-153.6l51.2 51.2h51.2v51.2z" />
<glyph unicode="&#xe902;" glyph-name="cloud" data-tags="cloud" d="M870.4 537.6c-12.8 130.56-122.88 230.4-256 230.4-110.080 0-204.8-71.68-240.64-168.96-20.48 10.24-43.52 15.36-66.56 15.36-84.48 0-153.6-69.12-153.6-153.6 0-2.56 0-5.12 0-10.24-58.88-20.48-102.4-76.8-102.4-143.36 0-84.48 69.12-153.6 153.6-153.6h563.2c112.64 0 204.8 92.16 204.8 204.8 0 76.8-40.96 143.36-102.4 179.2zM768 204.8c0 0 0 0 0 0h-563.2c-56.32 0-102.4 46.080-102.4 102.4s46.080 102.4 102.4 102.4v51.2c0 56.32 46.080 102.4 102.4 102.4 25.6 0 48.64-10.24 66.56-25.6h35.84c12.8 99.84 99.84 179.2 202.24 179.2 112.64 0 204.8-92.16 204.8-204.8 0-2.56 0-5.12 0-10.24 58.88-20.48 102.4-76.8 102.4-143.36 2.56-84.48-66.56-153.6-151.040-153.6z" />
<glyph unicode="&#xe903;" glyph-name="doc-add" data-tags="doc-add" d="M640 921.6h-486.4v-870.4h665.6v691.2l-179.2 179.2zM768 102.4h-563.2v768h358.4v-204.8h204.8v-563.2zM614.4 716.8v153.6l153.6-153.6h-153.6zM512 512h-51.2v-102.4h-102.4v-51.2h102.4v-102.4h51.2v102.4h102.4v51.2h-102.4v102.4z" />
<glyph unicode="&#xe904;" glyph-name="token" data-tags="token" d="M716.8 307.2v-51.2h-563.2c-56.32 0-102.4 46.080-102.4 102.4v256c0 56.32 46.080 102.4 102.4 102.4h563.2v-51.2h256v-358.4h-256zM665.6 665.6h-512c-28.16 0-51.2-23.040-51.2-51.2v-256c0-28.16 23.040-51.2 51.2-51.2h512v358.4zM921.6 614.4h-204.8v-256h204.8v256zM870.4 512h-102.4v51.2h102.4v-51.2zM870.4 409.6h-102.4v51.2h102.4v-51.2z" />
<glyph unicode="&#xe905;" glyph-name="air-landing" data-tags="air-landing" d="M960.102 172.372c-4.966-13.619-42.086-51.302-308.685 44.954l-261.376 94.362c-90.982 32.819-219.034 84.429-269.21 113.51-35.123 20.326-42.803 65.638-42.803 65.638s-8.346 151.347-13.466 188.621c-5.12 37.274 4.864 43.674 40.755 25.19 22.323-11.52 95.488-131.174 126.157-182.63 77.414-19.507 146.534-38.963 178.842-48.589-13.158 87.91-37.888 252.314-46.746 303.77-8.499 49.306 28.16 27.392 28.16 27.392 16.947-9.728 50.33-33.843 61.747-51.302 77.926-119.091 188.006-337.92 196.403-354.714 45.875-14.336 116.582-37.53 158.822-52.736 110.387-39.885 158.054-155.341 151.398-173.466z" />
<glyph unicode="&#xe906;" glyph-name="air-take-off" data-tags="air-take-off" d="M1017.344 621.897c6.093-13.158 6.502-66.048-250.061-186.47l-251.546-118.067c-87.552-41.114-214.579-95.181-270.592-110.131-39.219-10.445-76.646 16.179-76.646 16.179s-112.947 101.12-142.95 123.853c-29.952 22.733-27.392 34.304 11.008 46.592 23.91 7.629 160.256-25.242 218.368-39.936 68.557 40.96 131.174 76.083 160.819 92.058-71.475 52.89-205.21 151.654-247.859 181.76-40.909 28.928 0.512 39.322 0.512 39.322 18.842 5.069 59.494 11.674 79.974 7.373 139.315-29.133 371.866-106.035 389.683-111.923 42.598 22.323 108.954 55.91 149.606 75.008 106.24 49.869 221.542 1.894 229.683-15.616z" />
<glyph unicode="&#xe907;" glyph-name="aircraft" data-tags="aircraft" d="M639.795 76.090c-20.173 56.115-92.416 244.48-122.368 322.406-56.474-37.734-119.501-73.472-179.814-98.714-18.739-65.536-56.013-189.901-74.035-206.49-30.925-28.518-42.598-24.832-47.36 14.285s-24.832 165.683-24.832 165.683-110.694 62.413-145.408 80.282-34.15 30.259 2.918 49.869c21.606 11.418 149.862 4.352 217.19-0.256 44.083 48.691 98.867 96.358 153.242 137.165-62.208 55.091-212.48 188.16-257.741 226.509-39.731 33.69 4.045 40.806 4.045 40.806 19.968 3.584 62.566 6.758 83.354 0.461 129.229-39.066 329.83-105.882 376.986-121.651 18.074 12.749 37.734 26.624 59.494 42.035 240.742 170.496 301.414 132.762 312.883 116.224s25.754-87.091-214.989-257.638c-21.76-15.411-41.37-29.338-59.392-42.138-1.485-50.176-8.038-263.731-15.923-399.923-1.28-21.914-18.79-61.338-28.928-79.053-0.051 0-21.658-39.168-39.322 10.138z" />
<glyph unicode="&#xe908;" glyph-name="expand" data-tags="expand" d="M256 614.4l256-256 256 256 51.2-51.2-307.2-307.2-307.2 307.2 51.2 51.2z" />
<glyph unicode="&#xe909;" glyph-name="doc-landscape" data-tags="doc-landscape" d="M742.4 768h-640v-614.4h819.2v435.2l-179.2 179.2zM716.8 716.8l153.6-153.6h-153.6v153.6zM870.4 204.8h-716.8v512h512v-204.8h204.8v-307.2z" />
<glyph unicode="&#xe90a;" glyph-name="collapse" data-tags="collapse" d="M768 307.2l-256 256-256-256-51.2 51.2 307.2 307.2 307.2-307.2-51.2-51.2z" />
<glyph unicode="&#xe90b;" glyph-name="doc" data-tags="doc" d="M640 921.6h-486.4v-870.4h665.6v691.2l-179.2 179.2zM768 102.4h-563.2v768h358.4v-204.8h204.8v-563.2zM614.4 716.8v153.6l153.6-153.6h-153.6z" />
<glyph unicode="&#xe90c;" glyph-name="close-in-circle" data-tags="close-in-circle" d="M512 922.010c-254.72 0-461.21-206.49-461.21-461.21s206.49-461.21 461.21-461.21 461.21 206.49 461.21 461.21-206.49 461.21-461.21 461.21zM706.97 231.987l-194.918 194.918-195.789-195.789-36.198 36.198 195.789 195.789-190.054 190.106 36.198 36.198 190.106-190.106 191.181 191.181 36.198-36.198-191.181-191.181 194.918-194.918-36.25-36.198z" />
<glyph unicode="&#xe90d;" glyph-name="close" data-tags="close" d="M716.8 307.2l-51.2-51.2-153.6 153.6-153.6-153.6-51.2 51.2 153.6 153.6-153.6 153.6 51.2 51.2 153.6-153.6 153.6 153.6 51.2-51.2-153.6-153.6 153.6-153.6z" />
<glyph unicode="&#xe90e;" glyph-name="check-small" data-tags="check-small" d="M688.742 618.547l-174.182-174.182c-9.216-9.216-24.166-9.216-33.382 0l-122.931 122.982c-9.216 9.216-24.166 9.216-33.382 0l-30.362-30.413c-9.216-9.216-9.216-24.166 0-33.382l186.726-186.726c9.216-9.216 24.166-9.216 33.382 0l237.926 237.926c9.216 9.216 9.216 24.166 0 33.382l-30.413 30.413c-9.216 9.216-24.115 9.216-33.382 0z" />
<glyph unicode="&#xe90f;" glyph-name="exclamation-in-circle" data-tags="exclamation-in-circle" d="M486.4 870.4c215.040 0 389.12-174.080 389.12-389.12s-174.080-389.12-389.12-389.12-389.12 174.080-389.12 389.12 174.080 389.12 389.12 389.12zM486.4 916.48c-240.64 0-435.2-194.56-435.2-430.080s194.56-435.2 435.2-435.2 435.2 194.56 435.2 435.2-199.68 430.080-435.2 430.080v0zM563.2 691.2c0 40.96-35.84 76.8-76.8 76.8s-76.8-35.84-76.8-76.8c0 0 76.8-332.8 76.8-332.8s76.8 332.8 76.8 332.8zM537.6 256c0-28.277-22.923-51.2-51.2-51.2s-51.2 22.923-51.2 51.2c0 28.277 22.923 51.2 51.2 51.2s51.2-22.923 51.2-51.2z" />
<glyph unicode="&#xe910;" glyph-name="deposites" data-tags="deposites" d="M256 512.001h307.2v-51.2h-307.2v51.2zM388.659 552.961c101.376 0 183.859 82.483 183.859 183.808 0 101.376-82.483 183.859-183.859 183.859s-183.859-82.432-183.859-183.808c0-101.376 82.483-183.859 183.859-183.859zM388.659 869.428c73.165 0 132.659-59.494 132.659-132.659 0-73.114-59.494-132.608-132.659-132.608s-132.659 59.494-132.659 132.659c0 73.114 59.494 132.608 132.659 132.608zM817.613 460.801h-100.813v51.2h102.4zM121.037 308.686c-74.445 6.349-121.498 49.818-121.037 89.088 0.819 69.222 0.41 129.69 0 130.509l51.2-21.299c0.819-37.581-0.461-52.941-0.461-86.528 0-34.918 35.84-57.395 74.65-60.774l-4.352-50.995zM358.4 51.201v51.2h-204.8v246.374c0 131.174-12.8 171.725 48.026 230.4l-24.832 40.038c-60.518-30.413-74.394-113.613-74.394-196.813 0-56.525 0-371.2 0-371.2h256zM915.507 509.492c-12.493 75.981-60.826 137.472-123.29 169.984 18.381 29.952 34.202 52.992 34.202 52.992l-17.459 18.893c-2.714 2.355-87.142 82.995-207.36 64l7.987-50.534c67.738 7.475 121.088-18.125 148.685-41.472-5.478-9.779-57.446-97.741-95.846-160.154h-46.387c0-30.925 15.974-43.93 36.813-48.026 20.685-4.096 40.755 1.894 52.787 19.2 25.907 37.274 42.342 76.237 59.597 101.427 55.757-26.931 99.226-95.693 102.042-165.222l1.178-29.133 104.346 27.904v-214.426l-204.8 1.075v-153.6h-204.8v-51.2h256v153.6h204.8v333.261l-108.493-28.57zM614.4 76.801h-51.2v26.829c0 27.546-22.426 49.971-49.971 49.971h-104.858c-27.546 0-49.971-22.426-49.971-49.971v-26.829h-51.2v26.829c0 55.757 45.363 101.171 101.171 101.171h104.909c55.757 0 101.12-45.414 101.12-101.171v-26.829z" />
<glyph unicode="&#xe911;" glyph-name="valuta" data-tags="valuta" d="M1024 819.2h-921.6v-153.651l-102.4-0.154v-562.995h921.6v102.4h102.4v614.4zM870.4 153.6h-819.2v460.8h51.2v-409.6h768v-51.2zM972.8 256h-819.2v512h819.2v-512zM409.6 358.4h-153.6v307.2h153.6v51.2h-204.8v-409.6h204.8zM921.6 716.8h-204.8v-51.2h153.6v-307.2h-153.6v-51.2h204.8zM563.2 344.115c81.459 0 147.763 80.691 147.814 179.866v0c0 99.226-66.304 179.917-147.814 179.917-81.459 0-147.763-80.691-147.763-179.917s66.304-179.866 147.763-179.866zM563.2 652.698c53.248 0 96.614-57.702 96.614-128.666-0.051-70.963-43.418-128.717-96.614-128.717-53.248 0-96.563 57.702-96.563 128.717s43.315 128.666 96.563 128.666z" />
<glyph unicode="&#xe912;" glyph-name="military-bill-small" data-tags="military-bill-small" d="M921.6 576l-51.2 51.2v153.6c-48.742 11.674-185.702 47.309-358.4 110.336-173.261-63.181-308.838-97.229-358.4-108.8v-155.136l-51.2-51.2v256c0 0 181.453 29.798 400.794 110.438l8.806 3.226 8.806-3.226c219.392-80.64 400.794-110.438 400.794-110.438v-256zM752.026 598.426l-46.131-31.693-72.499 23.654 38.605 58.163-32.768 30.003-48.947-7.526 0.614 44.902-78.899 64.87-78.95-64.87 0.614-44.902-48.896 7.475-32.768-30.003 38.605-58.163-72.499-23.603-46.131 31.693-204.134-185.498c0 0 79.36-32.614 159.334-36.403 94.31-4.454 163.43 14.131 163.43 14.131l-33.024-69.888 153.6-116.019 0.819 0.666 0.819-0.614 153.6 116.019-33.024 69.888c0 0 69.12-18.586 163.43-14.131 80.026 3.789 159.334 36.403 159.334 36.403l-204.134 185.446zM617.574 433.050l-30.515-30.874 29.798-64.154-104.038-84.224-0.819 0.563-0.819-0.563-104.038 84.224 29.798 64.154-30.515 30.874c0 0-184.934-41.523-263.885 0.819l129.843 114.944 35.533-26.778 139.93 46.080-47.872 67.635 6.81 4.403 63.283-11.059-0.87 65.024 42.803 35.482 42.752-35.482-0.87-65.024 63.283 11.059 6.81-4.403-47.77-67.635 139.93-46.080 35.533 26.778 129.843-114.944c-79.002-42.342-263.936-0.819-263.936-0.819zM874.65 320c-74.65-142.95-259.123-255.488-360.55-271.718-101.376 16.23-285.85 128.768-360.499 271.718h-51.2c73.626-177.613 304.384-308.787 408.269-322.97l3.43-0.512 3.43 0.512c103.885 14.131 334.694 145.357 408.269 322.97h-51.149z" />
<glyph unicode="&#xe913;" glyph-name="blocked" data-tags="blocked" d="M539.75 866.151c-239.155 0-433.050-193.894-433.050-433.101 0-239.155 193.894-433.050 433.050-433.050s433.050 193.894 433.050 433.050c0.051 239.206-193.843 433.101-433.050 433.101zM152.78 433.051c0 213.402 173.619 386.97 386.97 386.97 97.485 0 186.419-36.506 254.566-96.256l-545.28-545.229c-59.75 68.096-96.256 157.030-96.256 254.515zM539.75 46.081c-97.485 0-186.419 36.506-254.566 96.256l545.28 545.28c59.699-68.147 96.256-157.082 96.256-254.566 0.051-213.35-173.568-386.97-386.97-386.97z" />
<glyph unicode="&#xe914;" glyph-name="plus-in-circle" data-tags="plus-in-circle" d="M539.75 866.151c-239.155 0-433.050-193.894-433.050-433.101s193.894-433.050 433.050-433.050 433.050 193.894 433.050 433.050-193.843 433.101-433.050 433.101zM539.75 46.081c-213.402 0-386.97 173.619-386.97 386.97s173.619 387.021 386.97 387.021c213.402 0 386.97-173.619 386.97-386.97s-173.568-387.021-386.97-387.021zM567.5 460.801v204.8h-51.2v-204.8h-204.8v-51.2h204.8v-204.8h51.2v204.8h204.8v51.2z" />
<glyph unicode="&#xe915;" glyph-name="ruble-in-circle" data-tags="ruble-in-circle" d="M516.3 409.601c90.266 0 153.6 63.334 153.6 153.6 0 90.214-63.334 153.6-153.6 153.6h-153.293l-0.307-256h-51.2v-51.2h51.2v-51.2h-51.2v-51.2h51.2v-104.55h51.2v104.55h153.6v51.2h-153.6v51.2h102.4zM413.9 665.601h102.4c62.003 0 102.4-40.397 102.4-102.4s-40.346-102.4-102.4-102.4h-102.4v204.8zM488.55 871.271c213.402 0 386.97-173.619 386.97-386.97s-173.568-387.021-386.97-387.021-386.97 173.619-386.97 386.97 173.619 387.021 386.97 387.021zM488.55 917.351c-239.155 0-433.050-193.894-433.050-433.101s193.894-433.050 433.050-433.050 433.050 193.894 433.050 433.050-193.843 433.101-433.050 433.101v0z" />
<glyph unicode="&#xe916;" glyph-name="military-bill" data-tags="military-bill" d="M441.108 87.631h-110.277l-173.292 173.292v614.4h582.892v-220.554h-31.508v189.046h-519.877v-582.892l141.785-141.785h110.277zM283.569 749.292h346.585v-31.508h-346.585v31.508zM337.558 90.687c-4.096 0-8.129 1.607-11.138 4.616l-161.067 161.067c-4.506 4.506-5.86 11.28-3.419 17.172s4.994 3.135 11.359 3.135h157.538c8.696 0 15.754-7.042 15.754-15.754v-141.785c0-6.365 2.883-24.812-2.993-27.238-1.953-0.819-4.001-1.213-6.034-1.213zM204.8 245.169l110.277-110.277v110.277h-110.277zM283.569 686.277h157.538v-31.508h-157.538v31.508zM882.215 386.954h-31.508v173.292c-31.665 2.426-104.164 16.51-218.096 57.817-113.932-41.307-191.898-51.31-223.563-53.736l0.551-177.373h-31.508v204.8l15.155 3.308c0.866 0 88.253 1.008 233.945 54.556l5.435 2.001 5.435-2.001c145.676-53.547 227.549-57.785 228.415-57.785l15.675-0.079 0.063-204.8zM636.125 38.495l-7.987 0.126c-111.506 13.895-227.186 122.959-247.556 233.362l30.988 5.719c17.755-96.288 122.218-195.033 219.53-207.714h3.040c97.611 12.729 202.122 111.695 219.609 208.203l31.019-5.624c-20.055-110.671-135.798-220.002-247.682-233.96l-0.961-0.11zM632.611 276.063l-8.35 8.35c-54.036 54.020-56.73 132.474-56.808 135.798l23.631 0.63c0.016-0.662 2.332-63.803 41.527-110.592 39.211 46.789 41.543 109.93 41.559 110.592l23.631-0.63c-0.095-3.324-2.788-81.778-56.808-135.798l-8.381-8.35zM632.611 193.638l-98.808 76.28 20.228 30.909-13.895 9.83c-20.149-5.12-89.419-19.409-157.932 5.199l-21.425 7.704 158.972 111.663 33.335-26.057 11.815 15.328-47.482 37.211 38.046 24.749 29.050-4.474-0.378 26.829 48.475 24.765 48.459-24.765-0.378-26.829 29.066 4.474 38.046-24.749-47.482-37.211 11.815-15.328 33.319 26.057 158.972-111.663-21.409-7.704c-68.498-24.608-137.783-10.35-157.932-5.199l-13.895-9.815 20.244-30.925-98.824-76.28zM565.547 275.275l67.064-51.783 67.064 51.783-20.732 31.697 41.763 29.538 5.545-1.67c0.677-0.189 61.519-18.133 125.889-3.403l-105.913 74.39-38.282-29.932-40.645 52.775 39.904 31.271-2.788 1.812-47.734-7.341 0.536 40.078-24.608 12.587-24.623-12.587 0.567-40.078-47.75 7.341-2.788-1.812 39.904-31.271-40.645-52.775-38.266 29.932-105.929-74.405c64.575-14.793 125.196 3.198 125.873 3.419l5.545 1.67 41.811-29.523-20.764-31.712z" />
<glyph unicode="&#xe917;" glyph-name="main-military-bill" data-tags="main-military-bill" d="M148.858 403.448c45.214-2.158 88.962 3.812 125.054 11.674 9.846-30.389 19.708-60.92 28.294-87.591l3.434-10.665 86.158 11.595 92.475-91.278 38.124 37.652-18.81 19.046-19.314-19.062-83.023 81.952-77.005-10.366c-9.074 28.168-17.077 52.949-24.214 74.988 20.968 5.561 37.888 11.232 48.742 15.187l22.496-66.324 25.364 8.617-31.586 93.121-13.249-5.545c-0.599-0.252-24.324-9.909-60.132-19.235-16.951 52.287-27.853 85.543-34.895 106.701l46.222 32.736 64.67-50.617 15.407 22.953c6.916-46.064 27.916-130.095 91.703-193.883l9.468-9.484 9.468 9.484c13.265 13.28 36.785 44.363 46.458 69.112l-21.898 15.423c-6.916-20.89-22.166-41.196-34.217-55.359-73.444 82.44-77.588 197.9-77.635 199.097h-0.268l8.633 12.855-71.554 56.052 17.597 14.903 106.039-63.52-3.875 87.938-19.755 11.169-6.585 38.408 47.624 24.324 47.608-24.324-6.585-38.408-19.755-11.169-3.875-87.938 106.039 63.52 17.581-14.887-71.538-56.068 8.428-12.556h-0.095c-0.047-0.725-3.844-72.893-20.827-110.277l24.371-11.075c11.138 24.497 17.109 60.054 20.181 86.142l15.045-22.418 64.67 50.617 174.348-120.942 11.784 16.652h14.809v392.271l-15.691 0.047c-1.308 0-139.232-2.804-357.392 77.399l-5.435 2.001-5.435-2.001c-218.159-80.187-355.218-77.383-356.51-77.399l-15.722-0.047v-393.169l-75.949-52.303 24.166-8.696c19.062-6.853 38.676-11.232 58.321-13.974 1.497-14.698 8.901-65.111 43.213-124.188 36.58-62.952 112.104-148.102 264.208-196.277l9.515 30.027c-241.696 76.564-279.268 245.933-284.893 287.382zM141.785 843.815c41.118 2.552 166.518 11.296 346.159 76.721 179.641-65.426 305.924-74.169 347.026-76.721l-0.016-341.78-170.205 118.012-57.691-45.166-17.187 25.6 77.84 60.983-57.312 48.538-79.762-47.797 1.024 23.379 17.896 10.13 12.067 70.357-63.945 32.673v32.012h-26.782v-32.012l-63.961-32.673 12.067-70.357 17.896-10.13 1.024-23.363-79.762 47.797-57.312-48.538 77.84-60.999-17.172-25.6-57.691 45.166-55.973-39.637c-3.576 10.272-4.128 11.106-4.553 11.752l-13.422-8.932-9.862-4.112c0.599-1.449 2.458-6.853 5.136-14.793l-83.369-51.342v330.831zM233.96 537.75c8.397-25.505 19.692-60.148 31.571-96.744-49.325-10.461-112.987-17.172-172.331-2.946l140.761 99.69zM551.385 449.969v-252.062h-78.769v-157.538h441.108v126.031h78.769v283.569h-441.108zM882.215 71.877h-378.092v94.523h378.092v-94.523zM960.985 197.908h-378.092v94.523h378.092v-94.523zM582.892 323.938v94.523h378.092v-94.523h-378.092z" />
<glyph unicode="&#xe918;" glyph-name="valuta-bill" data-tags="valuta-bill" d="M866.462 339.692l-4.206-3.072c-2.3 162.139-134.727 293.384-297.401 293.384-164.108 0-297.637-133.514-297.637-297.637 0-164.108 133.53-297.622 297.637-297.622 51.499 0 99.958 13.17 142.241 36.281l1.827-14.903h283.569v283.569h-126.031zM298.74 332.367c0 146.731 119.383 266.13 266.13 266.13 146.731 0 266.114-119.383 266.114-266.13 0-146.731-119.367-266.114-266.114-266.114s-266.13 119.367-266.13 266.114zM960.985 87.631h-220.554c35.399 26.656 67.631 68.009 88.285 107.552l6.239-13.028h126.031v-94.523zM834.954 213.662c13.139 32.831 30.972 57.186 31.508 94.523h94.523v-94.523h-126.031zM157.538 780.8h346.585v-31.508h-346.585v31.508zM157.538 607.508h173.292v-31.508h-173.292v31.508zM236.308 292.431c0 8.712-7.058 15.754-15.754 15.754h-157.538v567.138h535.631v-220.554h31.508v252.062h-598.646v-616.227l85.15-85.15 88.143-86.315h94.523v31.508h-63.015v141.785zM204.8 166.4l-65.867 61.345-44.41 48.931h110.277v-110.277zM157.538 670.523h63.015v-31.508h-63.015v31.508zM252.062 670.523h63.015v-31.508h-63.015v31.508zM346.585 670.523h63.015v-31.508h-63.015v31.508zM441.108 670.523h63.015v-31.508h-63.015v31.508zM581.522 346.766h-33.319c-28.845 0-52.303 18.668-52.303 41.622s23.457 41.622 52.303 41.622h97.469v31.508h-68.072v49.215h-31.508v-49.404c-45.214-1.008-81.699-33.256-81.699-72.94 0-40.33 37.604-73.129 83.81-73.129h33.319c28.845 0 52.303-18.684 52.303-41.637s-23.457-41.622-52.303-41.622h-101.392v-31.508h65.946v-46.49h31.508v46.49h3.938c46.222 0 83.81 32.8 83.81 73.129s-37.589 73.145-83.81 73.145z" />
<glyph unicode="&#xe919;" glyph-name="ruble-bill" data-tags="ruble-bill" d="M866.462 339.692c-9.106 155.979-138.949 286.767-297.165 286.767-164.108 0-297.622-133.514-297.622-297.637 0-164.108 133.514-297.622 297.622-297.622 48.522 0 94.24 11.91 134.758 32.595v-4.080h285.995v159.019l2.442 120.958h-126.031zM303.183 328.838c0 146.731 119.383 266.13 266.114 266.13s266.13-119.383 266.13-266.13c0-146.731-119.383-266.114-266.13-266.114-146.731 0-266.114 119.367-266.114 266.114zM960.985 87.631h-220.554c34.107 25.679 70.089 61.881 90.585 99.612l3.938-5.088h126.031v-94.523zM866.462 213.662l-20.89 5.088c11.973 29.932 19.298 55.658 20.89 89.435h94.523v-94.523h-94.523zM157.538 780.8h346.585v-31.508h-346.585v31.508zM157.538 607.508h173.292v-31.508h-173.292v31.508zM236.308 292.431c0 8.712-7.058 15.754-15.754 15.754h-157.538v567.138h535.631v-216.411h31.508v247.918h-598.646v-616.227l4.616-4.616 168.676-166.849h94.523v31.508h-63.015v141.785zM204.8 166.4l-61.424 57.801-48.853 52.476h110.277v-110.277zM157.538 670.523h63.015v-31.508h-63.015v31.508zM252.062 670.523h63.015v-31.508h-63.015v31.508zM346.585 670.523h63.015v-31.508h-63.015v31.508zM441.108 670.523h63.015v-31.508h-63.015v31.508zM588.296 478.043h-84.015v-182.65l-26.388 0.378-0.441-31.508 26.845-0.378v-26.545h-26.624v-31.508h26.624v-41.291h31.508v41.291h101.108v31.508h-101.124v26.104l52.508-0.756c59.392 0 107.693 48.301 107.693 107.678s-48.317 107.678-107.693 107.678zM588.516 294.195l-52.728 0.756v151.584h52.508c42.016 0 76.186-34.17 76.186-76.17s-34.17-76.17-75.965-76.17z" />
<glyph unicode="&#xe91a;" glyph-name="user-fill" data-tags="user-fill" d="M512 512c84.48 0 153.6 69.12 153.6 153.6s-69.12 153.6-153.6 153.6-153.6-69.12-153.6-153.6 69.12-153.6 153.6-153.6zM563.2 460.8h-102.4c-112.64 0-204.8-92.16-204.8-204.8v-153.6h512v153.6c0 112.64-92.16 204.8-204.8 204.8z" />
<glyph unicode="&#xe91b;" glyph-name="user" data-tags="user" d="M512 512c84.48 0 153.6 69.12 153.6 153.6s-69.12 153.6-153.6 153.6-153.6-69.12-153.6-153.6 69.12-153.6 153.6-153.6zM512 768c56.32 0 102.4-46.080 102.4-102.4s-46.080-102.4-102.4-102.4-102.4 46.080-102.4 102.4 46.080 102.4 102.4 102.4zM563.2 460.8h-102.4c-112.64 0-204.8-92.16-204.8-204.8v-153.6h512v153.6c0 112.64-92.16 204.8-204.8 204.8zM716.8 153.6h-409.6v102.4c0 84.48 69.12 153.6 153.6 153.6h102.4c84.48 0 153.6-69.12 153.6-153.6v-102.4z" />
<glyph unicode="&#xe91c;" glyph-name="add-template" data-tags="add-template" d="M716.8 460.8h-256v51.2h-51.2v-51.2h-153.6v-51.2h153.6v-51.2h51.2v51.2h256zM716.8 665.6h-307.2v51.2h-51.2v-51.2h-102.4v-51.2h102.4v-51.2h51.2v51.2h307.2zM768 51.2h-563.2v768h358.4v51.2h-409.6v-870.4h665.6v614.4h-51.2zM358.4 153.6v51.2h358.4v51.2h-358.4v51.2h-51.2v-51.2h-51.2v-51.2h51.2v-51.2zM921.6 870.4h-102.4v102.4h-51.2v-102.4h-102.4v-51.2h102.4v-102.4h51.2v102.4h102.4z" />
<glyph unicode="&#xe91d;" glyph-name="doc-pdf" data-tags="pdf2" d="M614.4 306.945h51.2v-102.4h-51.2v102.4zM819.2 409.345v358.4l-246.426 204.8h-456.397c-35.942 0-65.178-29.235-65.178-65.178v-842.189c0-35.942 29.235-65.178 65.178-65.178h636.621c35.942 0 65.178 29.235 65.178 65.178l1.024 36.966h153.6v307.2h-153.6zM768 65.793c0-7.731-7.117-14.848-14.848-14.848h-636.57c-7.68 0-14.592 6.861-14.592 14.592l-0.154 842.394c0 7.731 7.322 13.875 15.002 13.875h436.838l9.523-7.885v-197.376h204.8v-307.2l-443.955-1.331c15.053 29.235 29.491 63.59 43.008 101.222 12.442 4.352 23.757 8.192 33.229 11.418 13.363 4.506 25.242 8.499 34.918 12.032 8.141 2.97 15.974 5.683 23.347 8.141 46.694-51.251 96.358-76.39 136.243-66.714 29.952 7.475 48.64 33.024 51.354 70.093 2.099 29.491-11.264 46.080-22.784 54.784-26.778 20.224-76.186 20.48-147.251 0.717-7.322 9.626-14.643 20.326-22.016 32-11.571 18.534-22.733 35.84-33.178 52.019 4.608 16.998 9.011 33.485 13.158 49.254l1.946 7.475c14.080 53.658 5.837 102.093-21.453 126.515-17.869 15.974-41.984 19.661-66.048 10.291h-0.051c-23.552-9.114-38.707-23.45-44.902-42.598-12.851-39.629 14.541-85.914 61.901-159.488-10.496-37.581-23.706-82.278-38.554-125.798-94.106-34.202-198.349-83.354-191.693-161.075 4.045-47.462 31.59-62.771 47.718-67.686 7.27-2.202 14.797-3.174 22.374-3.174 36.659 0 74.138 22.938 87.091 39.014 4.966 6.144 9.779 13.875 14.643 21.504v-275.558l460.954-0.256v-36.352zM716.8 306.945v-102.4h-51.2v-51.2h-102.4v204.8h102.4v-51.2h51.2zM512 358.145v-153.6h-102.4v-51.2h-51.2v204.8h153.6zM386.509 753.511l-1.997-7.526c-0.307-1.126-0.614-2.304-0.922-3.533-21.146 34.918-35.533 63.539-31.334 76.39 1.485 4.71 8.806 8.397 14.694 10.701 8.653 3.43 11.827 0.768 13.517-0.666 10.086-9.114 15.667-38.605 6.042-75.366zM402.227 617.985c2.816-4.403 5.581-8.858 8.448-13.414 4.608-7.322 9.318-14.438 14.029-21.248-2.304-0.819-4.659-1.638-7.014-2.509-8.499-3.072-18.637-6.554-30.054-10.394 5.069 15.821 9.933 31.744 14.592 47.565zM514.97 556.699c46.899 10.394 70.349 6.912 77.568 1.434 1.024-0.768 3.174-2.355 2.56-10.24-1.024-14.131-5.274-22.272-12.595-24.064-13.312-3.482-38.246 6.298-67.533 32.87zM303.155 484.916c-16.128-40.090-33.382-74.906-50.688-96.41-6.298-7.782-37.325-24.269-54.579-18.995-2.765 0.819-9.933 3.021-11.674 23.091-2.918 33.946 56.218 66.97 116.941 92.314zM921.6 306.945h-102.4v-51.2h51.2v-51.2h-51.2v-51.2h-51.2v204.8h153.6v-51.2zM409.6 306.945h51.2v-51.2h-51.2v51.2z" />
<glyph unicode="&#xe91e;" glyph-name="word" data-tags="word" d="M983.040 844.8h-368.64v102.4l-614.4-94.433v-820.347l614.4-109.22v102.4h368.64c23.142 0.287 39.793 21.115 40.96 44.564v728.556c-1.167 23.45-17.347 45.834-40.96 46.080zM400.876 267.858h-65.987l-44.175 228.495-50.258-228.495h-69.222l-53.473 309.289h53.473l40.96-230.216 53.473 230.216h55.931l51.016-233.431 40.96 258.847h58.409l-71.107-334.705zM614.4 66.56v61.44h327.68v61.44h-327.68v61.44h327.68v61.44h-327.68v61.44h327.68v40.96h-327.68v61.44h327.68v40.96h-327.68v61.44h327.68v40.96h-327.68v61.44h327.68v40.96h-327.68v81.92h368.64v-737.28h-368.64z" />
<glyph unicode="&#xe91f;" glyph-name="archive" data-tags="archive" d="M605.867 121.363v41.339c-0.152 51.352-41.756 92.956-93.108 93.108-51.39-0.152-93.051-41.719-93.298-93.108v-41.339c0.247-51.39 41.908-92.956 93.298-93.108v0c51.352 0.152 92.956 41.756 93.108 93.108zM644.741 55.941v-75.852h-265.481v75.852h-56.889v-94.815c0.379-17.446 14.962-37.547 32.389-37.926h315.259c17.446 0.379 31.232 20.48 31.611 37.926v94.815h-56.889zM992.256 812.885c-0.038 0-0.076 0-0.114 0h-448.284l-192.284 134.315h-319.716c-17.446-0.379-31.479-14.412-31.858-31.858v-769.138c0.379-17.446 20.48-32.996 37.926-33.375h341.333v189.63h265.481v-189.63h341.333c17.446 0.379 37.547 15.929 37.926 33.375v634.823c0.038 17.56-14.184 31.82-31.744 31.858zM530.963 700.681h113.778v-56.889h-113.778v56.889zM379.259 757.57h113.778v-56.889h-113.778v56.889zM379.259 643.793h113.778v-56.889h-113.778v56.889zM493.037 359.348h-113.778v56.889h113.778v-56.889zM493.037 473.126h-113.778v56.889h113.778v-56.889zM644.741 416.237h-113.778v56.889h113.778v-56.889zM644.741 530.015h-113.778v56.889h113.778v-56.889z" />
<glyph unicode="&#xe920;" glyph-name="save" data-tags="save" d="M870.4 921.6h-409.6v-51.2h-204.8v-307.2h204.8v-51.2h-256v409.6h-153.6v-921.6h921.6v819.2l-102.4 102.4zM153.6 51.2h-51.2v51.2h51.2v-51.2zM819.2 51.2h-614.4v358.4h614.4v-358.4zM819.2 512h-307.2v358.4h307.2v-358.4zM768 819.2h-102.4v-256h102.4v256z" />
<glyph unicode="&#xe921;" glyph-name="add-state" data-tags="add-state" d="M768 153.6h-460.8v614.4h204.8v51.2h-256v-716.8h563.2v512h-51.2zM716.8 768v102.4h-51.2v-102.4h-102.4v-51.2h102.4v-102.4h51.2v102.4h102.4v51.2zM358.4 409.6h358.4v-51.2h-358.4v51.2zM358.4 512h358.4v-51.2h-358.4v51.2zM358.4 307.2h358.4v-51.2h-358.4v51.2z" />
<glyph unicode="&#xe922;" glyph-name="question-empty" data-tags="question-empty" d="M538.675 778.24c160.358 0 290.765-130.458 290.765-290.765v-53.35c0-160.358-130.458-290.765-290.765-290.765h-53.35c-160.307 0-290.765 130.458-290.765 290.765v53.35c0 160.307 130.458 290.765 290.765 290.765h53.35zM538.675 819.2h-53.35c-183.194 0-331.725-148.531-331.725-331.725v-53.35c0-183.194 148.531-331.725 331.725-331.725h53.35c183.194 0 331.725 148.531 331.725 331.725v53.35c0 183.194-148.531 331.725-331.725 331.725v0zM405.606 614.4c-26.061 0-47.206-21.146-47.206-47.206v-55.194h51.2v51.2h204.8v-102.4h-106.394c-26.061 0-47.206-21.146-47.206-47.206v-55.194h51.2v51.2h106.394c26.061 0 47.206 21.146 47.206 47.206v110.387c0 26.061-21.146 47.206-47.206 47.206h-212.787zM460.8 307.2h51.2v-51.2h-51.2v51.2z" />
<glyph unicode="&#xe923;" glyph-name="corporate-cards" data-tags="corporate-cards" d="M870.195 306.432v408.986c0 56.474-45.926 102.4-102.4 102.4h-665.395c-56.474 0-102.4-45.926-102.4-102.4v-408.986c0-56.474 45.926-102.4 102.4-102.4h665.395c56.474 0 102.4 45.926 102.4 102.4zM102.4 766.618h666.829c28.262 0 51.2-22.989 51.2-51.2v-52.275h-769.229v52.275c0 28.211 22.989 51.2 51.2 51.2zM51.2 305.204v206.49h769.229v-206.49c0-28.262-22.938-51.2-51.2-51.2h-666.829c-28.211 0-51.2 22.938-51.2 51.2zM937.114 630.426h-14.95v-403.2c0-42.394-34.406-76.8-76.8-76.8h-657.613v-22.426c0-42.394 34.406-76.8 76.8-76.8h682.65c42.394 0 76.8 34.406 76.8 76.8v425.626c0 42.394-44.442 76.8-86.886 76.8zM563.2 459.418h51.2v-102.4h-51.2v102.4zM665.6 459.418h51.2v-102.4h-51.2v102.4z" />
<glyph unicode="&#xe924;" glyph-name="mail" data-tags="mail" d="M1023.974 738.415c0 61.106-49.573 110.768-110.679 110.768h-802.601c-61.15 0-110.679-49.573-110.679-110.768v-529.614c0-61.106 49.573-110.768 110.679-110.768h802.601c23.781 0 45.684 7.644 63.699 20.428 5.276 1.252 10.371 3.398 14.483 7.509 3.799 3.799 5.901 8.404 7.243 13.231 15.555 19.087 25.21 43.092 25.21 69.644v529.569zM913.294 788.839c3.307 0 6.168-1.296 9.254-1.878l-368.781-303.697c-23.11-18.998-61.867-18.775-84.528 0.491l-359.036 304.993c0.179 0 0.313 0.089 0.491 0.089h802.601zM127.412 158.335l214.653 214.653c11.8 11.8 11.8 30.888 0 42.689s-30.888 11.8-42.689 0l-231.639-231.639c-4.292 7.42-7.42 15.555-7.42 24.72v529.658c0 4.067 1.385 7.689 2.324 11.488l367.485-312.145c45.013-38.219 116.356-38.621 161.996-1.072l370.748 305.307c0.089-1.252 0.715-2.324 0.715-3.577v-529.614c0-3.621-1.341-6.839-2.056-10.282l-217.156 217.156c-11.8 11.8-30.888 11.8-42.689 0s-11.8-30.888 0-42.689l214.161-214.161c-0.894-0.044-1.654-0.537-2.549-0.537h-785.882z" />
<glyph unicode="&#xe925;" glyph-name="tasks" data-tags="tasks" d="M954.506 646.614c-18.988 0-34.358-15.373-34.358-34.358v-379.573c0-20.464-16.491-37.108-36.241-37.108h-602.012c-19.851 0-36.241 16.543-36.241 36.648v605.473c0 20.21 16.443 36.648 36.548 36.648h537.011c18.988 0 34.358 15.373 34.358 34.358s-15.373 34.358-34.358 34.358h-536.961c-58.080 0-105.264-47.187-105.264-105.367v-72.635h-71.873c-57.927 0-105.112-47.236-105.112-105.367v-605.524c0-57.875 47.033-105.367 104.96-105.367h602.012c57.773 0 104.96 47.388 104.96 105.57v72.482h72.027c57.824 0 104.96 47.542 104.96 105.823v379.573c-0.052 18.936-15.422 34.358-34.41 34.358zM743.214 54.425c0-20.258-16.491-36.854-36.241-36.854h-602.012c-19.851 0-36.241 16.543-36.241 36.648v605.524c0 20.157 16.443 36.648 36.394 36.648h71.821v-464.17c0-57.875 47.033-105.367 104.96-105.367h461.32v-72.434zM1013.603 862.538c-13.793 13.745-36.141 13.692-49.885-0.153l-370.207-372.344-180.241 181.261c-13.745 13.793-36.088 13.897-49.885 0.153s-13.897-36.088-0.153-49.885l205.234-206.406c13.793-13.897 36.241-13.897 50.037 0l395.199 397.489c13.745 13.793 13.692 36.141-0.101 49.885z" />
<glyph unicode="&#xe926;" glyph-name="triangle-in-circle-fill" data-tags="triangle-in-circle-fill" d="M512 921.6c-254.515 0-460.8-206.285-460.8-460.8s206.285-460.8 460.8-460.8 460.8 206.285 460.8 460.8-206.285 460.8-460.8 460.8zM512.256 266.086l-195.072 246.989h390.093l-195.021-246.989z" />
<glyph unicode="&#xe927;" glyph-name="triangle-in-circle-empty" data-tags="triangle-in-circle-empty" d="M707.072 512h-390.144l195.072-246.989zM512 921.6c-254.515 0-460.8-206.285-460.8-460.8s206.285-460.8 460.8-460.8 460.8 206.285 460.8 460.8c0 254.515-206.285 460.8-460.8 460.8zM512 54.733c-224.256 0-406.067 181.811-406.067 406.067s181.811 406.067 406.067 406.067 406.067-181.811 406.067-406.067-181.811-406.067-406.067-406.067z" />
<glyph unicode="&#xe928;" glyph-name="percent-in-circle" data-tags="percent-in-circle" d="M511.95 938.45c-263.508 0-477.6-214.092-477.6-477.6s214.092-477.7 477.6-477.7c263.508 0 477.7 214.192 477.7 477.7s-214.192 477.6-477.7 477.6zM511.95 887.25c235.837 0 426.5-190.563 426.5-426.4s-190.663-426.5-426.5-426.5c-235.837 0-426.4 190.663-426.4 426.5s190.563 426.4 426.4 426.4zM298.45 621.471c0 29.967 9.278 54.806 27.835 74.515s42.127 29.564 70.711 29.564c28.584 0 52.155-9.855 70.711-29.564s27.835-45.239 27.835-76.59v-24.55c0-29.506-9.163-54.114-27.489-73.823s-41.781-29.564-70.366-29.564c-28.354 0-51.982 9.682-70.884 29.045s-28.354 44.951-28.354 76.762v24.204zM331.99 594.846c0-21.438 5.936-39.073 17.808-52.904s27.835-20.747 47.89-20.747c19.594 0 35.212 6.973 46.853 20.919s17.462 31.984 17.462 54.114v25.242c0 21.438-5.993 39.13-17.98 53.077s-27.662 20.919-47.026 20.919c-19.133 0-34.751-6.915-46.853-20.747s-18.153-32.272-18.153-55.324v-24.55zM551.904 338.28c0 29.967 9.278 54.748 27.835 74.342s42.012 29.391 70.366 29.391c28.354 0 51.924-9.739 70.711-29.218s28.181-45.124 28.181-76.935v-24.55c0-29.967-9.278-54.748-27.835-74.342s-42.012-29.391-70.366-29.391c-28.354 0-51.924 9.739-70.711 29.218s-28.181 44.893-28.181 76.244v25.242zM585.099 311.309c0-21.669 5.936-39.418 17.808-53.25s27.835-20.747 47.89-20.747c19.825 0 35.557 6.973 47.199 20.919s17.462 32.215 17.462 54.806v25.242c0 22.13-5.936 39.937-17.808 53.423s-27.72 20.228-47.544 20.228c-19.364 0-35.039-6.8-47.026-20.401s-17.98-31.811-17.98-54.633v-25.587zM410.827 256.677l-25.933 16.597 245.847 393.494 25.933-16.597-245.847-393.494z" />
<glyph unicode="&#xe929;" glyph-name="service-availability" data-tags="service-availability" d="M921.6 256v153.6h-51.2v-153.6h-51.2v153.6h-51.2v-153.6h-512v307.2h256v51.2h-307.2v-358.4h-51.2v409.6h358.4v51.2h-409.6v-460.8h-51.2v-204.8h921.6v204.8h-51.2zM921.6 102.4h-819.2v102.4h819.2v-102.4zM870.4 665.6h-102.4v102.4h-51.2v-102.4h-102.4v-51.2h102.4v-102.4h51.2v102.4h102.4zM972.8 409.6h-460.8v460.8h460.8v-460.8zM563.2 460.8h358.4v358.4h-358.4v-358.4z" />
<glyph unicode="&#xe92a;" glyph-name="list" data-tags="list" d="M358.4 768v-51.2h511.181v51.2h-511.181zM358.4 460.8h511.181v51.2h-511.181v-51.2zM358.4 204.8h511.181v51.2h-511.181v-51.2zM153.6 512v-51.2h101.581v51.2h-101.581zM153.6 256v-51.2h101.581v51.2h-101.581zM153.6 768v-51.2h101.581v51.2h-101.581z" />
<glyph unicode="&#xe92b;" glyph-name="exit" data-tags="exit" d="M614.4 50.484h-466.739l248.32 108.749c8.294 4.454 13.466 13.107 13.466 22.528l-0.154 534.886h205.107v-194.202h51.2v219.392c0 14.131-11.469 25.6-25.6 25.6h-231.014l0.461 179.098c0 9.421-5.222 18.125-13.517 22.528-8.346 4.506-18.381 4.045-26.214-1.178l-306.893-203.418c-7.168-4.762-11.469-12.749-11.469-21.35v-717.517c0-9.011 4.762-17.357 12.493-21.965 3.994-2.406 8.55-3.635 13.107-3.635h563.046c14.131 0 25.6 11.469 25.6 25.6v228.915h-51.2v-204.032zM102.042 729.447l256.461 169.574v-701.798l-256.461-128.717v660.941zM992.154 401.716l-188.826 188.774-36.198-36.198 154.47-145.101h-458.496v-51.2h458.496l-154.47-145.101 36.198-36.198 188.774 188.826c10.035 9.984 10.035 26.163 0.051 36.198z" />
<glyph unicode="&#xe92c;" glyph-name="search" data-tags="search" d="M909.875 135.808l-218.010 212.787c39.629 54.016 63.334 120.422 63.334 192.41 0 179.968-146.381 326.349-326.349 326.349s-326.349-146.432-326.349-326.349 146.432-326.349 326.349-326.349c72.243 0 138.906 23.91 193.024 63.795l217.907-212.736c19.354-19.354 50.739-19.354 70.093 0s19.354 50.739 0 70.093zM175.411 541.004c0 139.725 113.715 253.44 253.44 253.44s253.44-113.664 253.44-253.44-113.715-253.44-253.44-253.44c-139.725 0-253.44 113.715-253.44 253.44z" />
<glyph unicode="&#xe92d;" glyph-name="users" data-tags="users" d="M819.2 512c56.32 0 102.4 46.080 102.4 102.4s-46.080 102.4-102.4 102.4-102.4-46.080-102.4-102.4 46.080-102.4 102.4-102.4zM204.8 512c56.32 0 102.4 46.080 102.4 102.4s-46.080 102.4-102.4 102.4-102.4-46.080-102.4-102.4 46.080-102.4 102.4-102.4zM230.4 460.8h-51.2c-71.68 0-128-56.32-128-128v-128h256v51.2c0 43.52 17.92 81.92 46.080 110.080-15.36 53.76-64 94.72-122.88 94.72zM844.8 460.8h-51.2c-58.88 0-107.52-40.96-122.88-94.72 28.16-28.16 46.080-66.56 46.080-110.080v-51.2h256v128c0 71.68-56.32 128-128 128zM512 512c84.48 0 153.6 69.12 153.6 153.6s-69.12 153.6-153.6 153.6-153.6-69.12-153.6-153.6 69.12-153.6 153.6-153.6zM512 768c56.32 0 102.4-46.080 102.4-102.4s-46.080-102.4-102.4-102.4-102.4 46.080-102.4 102.4c0 56.32 46.080 102.4 102.4 102.4zM563.2 460.8h-102.4c-112.64 0-204.8-92.16-204.8-204.8v-153.6h512v153.6c0 112.64-92.16 204.8-204.8 204.8zM716.8 153.6h-409.6v102.4c0 84.48 69.12 153.6 153.6 153.6h102.4c84.48 0 153.6-69.12 153.6-153.6v-102.4z" />
<glyph unicode="&#xe92e;" glyph-name="signed" data-tags="signed" d="M986.521 619.623l-113.306 113.306c-9.984 9.984-26.214 9.984-36.198 0l-370.637-370.637c-2.816-2.816-4.608-6.144-5.888-9.677-0.102-0.307-0.41-0.461-0.461-0.768l-51.661-164.966c-2.867-9.114-0.41-18.995 6.349-25.754 4.864-4.915 11.418-7.475 18.125-7.475 2.56 0 5.171 0.41 7.629 1.126l164.966 51.661c0.307 0.102 0.512 0.41 0.768 0.512 3.533 1.229 6.861 3.021 9.677 5.837l370.637 370.637c9.984 10.035 9.984 26.214 0 36.198zM471.859 218.317l24.422 77.875 53.504-53.504-77.926-24.371zM597.76 267.111l-77.107 77.107 334.438 334.438 77.107-77.107-334.438-334.438zM180.736 463.975h95.078c2.099 0 4.096 0.256 6.042 0.717 92.16 8.243 164.608 85.862 164.608 180.070 0 99.686-81.101 180.787-180.787 180.787-14.131 0-25.6-11.469-25.6-25.6s11.469-25.6 25.6-25.6c71.475 0 129.587-58.163 129.587-129.587s-58.163-129.587-129.587-129.587h-95.078c-2.099 0-4.096-0.256-6.042-0.717-92.109-8.243-164.557-85.862-164.557-180.122 0-99.635 81.101-180.736 180.736-180.736h151.552c14.131 0 25.6 11.469 25.6 25.6s-11.469 25.6-25.6 25.6h-151.552c-71.424 0-129.536 58.112-129.536 129.536 0 71.526 58.061 129.638 129.536 129.638z" />
<glyph unicode="&#xe92f;" glyph-name="outbox" data-tags="outbox" d="M923.75 662.169c-7.885 4.608-17.715 4.608-25.6 0l-286.771-165.581c-12.237-7.066-16.435-22.682-9.318-34.918 7.066-12.237 22.682-16.384 34.97-9.37l248.32 143.411v-442.061h-746.701v442.010l251.546-145.254c12.288-7.117 27.955-2.918 34.97 9.37 7.066 12.237 2.867 27.853-9.37 34.918l-289.946 167.424c-7.885 4.608-17.715 4.608-25.6 0-7.885-4.557-12.8-13.005-12.8-22.118v-512c0-14.131 11.469-25.6 25.6-25.6h797.901c14.131 0 25.6 11.469 25.6 25.6v512c0 9.165-4.915 17.613-12.8 22.17zM358.554 639.129l153.446 125.030 153.446-124.979c4.762-3.84 10.445-5.734 16.128-5.734 7.373 0 14.797 3.226 19.866 9.472 8.96 10.957 7.322 27.034-3.686 35.994l-169.574 138.138c-9.421 7.68-22.886 7.68-32.307 0l-169.626-138.189c-11.008-8.96-12.646-25.037-3.686-35.994 8.909-11.059 25.037-12.544 35.994-3.738zM486.4 658.994v-225.075c0-14.131 11.469-25.6 25.6-25.6s25.6 11.469 25.6 25.6v225.075c0 14.131-11.469 25.6-25.6 25.6s-25.6-11.469-25.6-25.6z" />
<glyph unicode="&#xe930;" glyph-name="inbox" data-tags="inbox" d="M908.186 646.042c-7.885 4.557-17.715 4.557-25.6 0l-370.586-223.027-370.586 223.027c-7.885 4.557-17.715 4.557-25.6 0s-12.8-13.005-12.8-22.17v-495.872c0-14.131 11.469-25.6 25.6-25.6h766.771c14.131 0 25.6 11.469 25.6 25.6v495.872c0 9.165-4.864 17.613-12.8 22.17zM871.014 152.32h-717.517v427.213l345.702-208.23c7.885-4.557 17.715-4.557 25.6 0l346.214 208.23v-427.213zM495.872 517.325c4.71-3.84 10.394-5.734 16.128-5.734s11.469 1.894 16.128 5.734l169.626 138.138c11.008 8.909 12.646 25.037 3.686 36.045-8.909 10.957-25.088 12.595-35.994 3.686l-153.446-124.979-153.446 124.979c-10.957 8.909-27.034 7.27-35.994-3.686s-7.322-27.085 3.686-36.045l169.626-138.138zM512 649.728c14.131 0 25.6 11.469 25.6 25.6v225.075c0 14.131-11.469 25.6-25.6 25.6s-25.6-11.469-25.6-25.6v-225.075c0-14.131 11.469-25.6 25.6-25.6z" />
<glyph unicode="&#xe931;" glyph-name="draft" data-tags="draft" d="M204.8 205.158h-51.2v51.2c0 14.131-11.418 25.6-25.6 25.6s-25.6-11.418-25.6-25.6v-76.8c0-14.131 11.469-25.6 25.6-25.6h76.8c14.131 0 25.6 11.469 25.6 25.6 0 14.182-11.469 25.6-25.6 25.6zM128 378.778c14.131 0 25.6 11.469 25.6 25.6v143.206c0 14.131-11.418 25.6-25.6 25.6s-25.6-11.469-25.6-25.6v-143.206c0-14.131 11.469-25.6 25.6-25.6zM128 665.242c14.131 0 25.6 11.469 25.6 25.6v51.2h51.2c14.131 0 25.6 11.469 25.6 25.6s-11.469 25.6-25.6 25.6h-76.8c-14.131 0-25.6-11.469-25.6-25.6v-76.8c0-14.182 11.469-25.6 25.6-25.6zM327.68 742.042h122.88c14.131 0 25.6 11.469 25.6 25.6s-11.469 25.6-25.6 25.6h-122.88c-14.131 0-25.6-11.469-25.6-25.6 0-14.182 11.469-25.6 25.6-25.6zM573.44 742.042h122.88c14.131 0 25.6 11.469 25.6 25.6s-11.469 25.6-25.6 25.6h-122.88c-14.131 0-25.6-11.469-25.6-25.6 0-14.182 11.469-25.6 25.6-25.6zM896 793.242h-76.8c-14.131 0-25.6-11.469-25.6-25.6s11.469-25.6 25.6-25.6h51.2v-51.2c0-14.131 11.469-25.6 25.6-25.6s25.6 11.469 25.6 25.6v76.8c0 14.131-11.469 25.6-25.6 25.6zM896 573.184c-14.131 0-25.6-11.469-25.6-25.6v-143.206c0-14.131 11.469-25.6 25.6-25.6s25.6 11.469 25.6 25.6v143.206c0 14.131-11.469 25.6-25.6 25.6zM896 281.958c-14.131 0-25.6-11.469-25.6-25.6v-51.2h-51.2c-14.131 0-25.6-11.469-25.6-25.6s11.469-25.6 25.6-25.6h76.8c14.131 0 25.6 11.469 25.6 25.6v76.8c0 14.182-11.469 25.6-25.6 25.6zM450.611 205.158h-122.931c-14.131 0-25.6-11.469-25.6-25.6s11.469-25.6 25.6-25.6h122.88c14.131 0 25.6 11.469 25.6 25.6 0.051 14.182-11.418 25.6-25.549 25.6zM696.371 205.158h-122.88c-14.131 0-25.6-11.469-25.6-25.6s11.469-25.6 25.6-25.6h122.88c14.131 0 25.6 11.469 25.6 25.6 0 14.182-11.469 25.6-25.6 25.6zM795.187 662.118c-7.936 11.674-23.859 14.541-35.584 6.707l-253.286-190.515-241.459 190.208c-11.52 8.141-27.443 5.478-35.686-5.99-8.192-11.469-5.478-27.494 5.99-35.686l256-200.55c4.454-3.174 9.626-4.762 14.848-4.762 5.069 0 10.086 1.485 14.438 4.454l268.032 200.55c11.674 7.987 14.694 23.91 6.707 35.584z" />
<glyph unicode="&#xe932;" glyph-name="cloud-up-fill" data-tags="cloud-up-fill" horiz-adv-x="1638" d="M1323.985 555.622l-1.331-0.102c0.563 8.499 1.331 16.998 1.331 25.651 0 207.821-168.448 376.32-376.32 376.32-157.44 0-292.147-96.768-348.262-233.984-23.091 4.915-47.002 7.373-71.578 7.373-137.011 0-255.386-78.643-313.088-193.331-123.187-43.008-211.763-160.154-211.763-298.035 0-174.592 141.619-290.714 316.211-290.714h1004.749c174.643 0 311.091 116.070 311.091 290.714 0.154 174.643-136.397 316.211-310.886 316.211l-0.154-0.102zM918.225 307.2v-256h-204.8v256h-204.8l307.2 377.6 307.2-377.6h-204.8z" />
<glyph unicode="&#xe933;" glyph-name="doc-copy" data-tags="doc-copy" d="M716.8 0h-563.2v768h51.2v51.2h-102.4v-870.4h665.6v102.4h-51.2v-51.2zM742.4 972.8h-486.4v-870.4h665.6v691.2l-179.2 179.2zM870.4 153.6h-563.2v768h358.4v-204.8h204.8v-563.2zM716.8 768v153.6l153.6-153.6h-153.6zM614.4 563.2h-51.2v-102.4h-102.4v-51.2h102.4v-102.4h51.2v102.4h102.4v51.2h-102.4v102.4z" />
<glyph unicode="&#xe934;" glyph-name="datepicker" data-tags="datepicker" d="M819.2 768v102.4h-102.4v-102.4h-358.4v102.4h-102.4v-102.4h-153.6v-716.8h870.4v716.8h-153.6zM153.6 102.4v614.4h768v-614.4h-768zM419.84 619.52h97.28v-97.28h-97.28zM573.44 619.52h97.28v-97.28h-97.28zM727.040 619.52h97.28v-97.28h-97.28zM419.84 465.92h97.28v-97.28h-97.28zM573.44 465.92h97.28v-97.28h-97.28zM261.12 465.92h97.28v-97.28h-97.28zM727.040 465.92h97.28v-97.28h-97.28zM419.84 312.32h97.28v-97.28h-97.28zM573.44 312.32h97.28v-97.28h-97.28zM261.12 312.32h97.28v-97.28h-97.28z" />
<glyph unicode="&#xe935;" glyph-name="details" data-tags="details" d="M192.389 594.678l137.134-45.875c2.171-0.696 4.342-1.024 6.554-1.024 8.52 0 16.507 5.53 19.374 14.090 3.564 10.732-2.212 22.323-12.902 25.928l-137.134 45.875c-10.854 3.604-22.364-2.253-25.928-12.943-3.604-10.732 2.212-22.323 12.902-25.928zM379.986 472.945l-174.612 58.327c-10.854 3.564-22.364-2.253-25.928-12.902-3.441-10.732 2.335-22.323 13.025-25.928l174.572-58.368c2.13-0.737 4.301-1.024 6.554-1.024 8.479 0 16.466 5.407 19.333 14.008 3.686 10.732-2.13 22.323-12.861 25.887zM379.986 370.79l-174.612 58.327c-10.772 3.523-22.323-2.212-25.887-12.984-3.564-10.732 2.212-22.323 12.902-25.928l174.612-58.327c2.13-0.819 4.301-1.065 6.472-1.065 8.602 0 16.548 5.407 19.415 14.008 3.564 10.65-2.212 22.323-12.943 25.928zM548.864 247.583l-86.917-29.082v420.086l269.517 90.112v-93.307c0-11.305 9.216-20.48 20.48-20.48s20.48 9.175 20.48 20.48v121.651c0 6.636-3.113 12.82-8.479 16.671-5.325 3.85-12.124 4.915-18.432 2.785l-303.923-101.581-304.087 101.581c-6.267 2.13-13.107 1.106-18.432-2.785-5.325-3.85-8.52-10.035-8.52-16.63v-463.094c0-8.806 5.652-16.63 13.926-19.456l310.6-103.834c2.048-0.696 4.301-1.024 6.554-1.024s4.342 0.41 6.554 0.983l113.746 38.093c10.732 3.564 16.507 15.155 12.943 25.887-3.604 10.772-15.155 16.548-25.928 12.984zM151.347 728.658l269.599-90.112v-420.004l-269.599 90.112v420.004zM764.723 588.698c-114.77 0-208.159-93.389-208.159-208.241 0-114.811 93.389-208.2 208.2-208.2 114.975 0 208.364 93.389 208.364 208.2s-93.389 208.2-208.241 208.2zM764.723 213.217c-92.16 0-167.199 75.039-167.199 167.24 0 92.16 75.039 167.24 167.24 167.24 92.365 0 167.404-75.162 167.404-167.363 0-92.16-75.039-167.24-167.281-167.24zM706.56 380.457c0-20.043-16.248-36.291-36.291-36.291s-36.291 16.248-36.291 36.291c0 20.043 16.248 36.291 36.291 36.291s36.291-16.248 36.291-36.291zM801.055 380.457c0-20.043-16.248-36.291-36.291-36.291s-36.291 16.248-36.291 36.291c0 20.043 16.248 36.291 36.291 36.291s36.291-16.248 36.291-36.291zM895.631 380.457c0-20.043-16.248-36.291-36.291-36.291s-36.291 16.248-36.291 36.291c0 20.043 16.248 36.291 36.291 36.291s36.291-16.248 36.291-36.291z" />
<glyph unicode="&#xe936;" glyph-name="cloud-down" data-tags="cloud-down" d="M768 307.2v0h-51.2v51.2h51.2c0 0 0 0 0 0 84.48 0 153.6 69.12 153.6 153.6 0 66.56-43.52 122.88-104.96 145.92-7.68 89.6-84.48 161.28-176.64 161.28-81.92 0-148.48-53.76-171.52-128h-43.52c-17.92 15.36-40.96 25.6-66.56 25.6-56.32 0-102.4-46.080-102.4-102.4v0 0-51.2c-56.32 0-102.4-46.080-102.4-102.4s46.080-102.4 102.4-102.4v0h102.4v-51.2h-102.4c-84.48 0-153.6 69.12-153.6 153.6 0 66.56 43.52 122.88 102.4 143.36 0 2.56 0 5.12 0 10.24 0 84.48 69.12 153.6 153.6 153.6 28.16 0 53.76-7.68 76.8-20.48 38.4 71.68 115.2 122.88 204.8 122.88 110.080 0 199.68-76.8 225.28-176.64 64-33.28 107.52-102.4 107.52-181.76 0-112.64-92.16-204.8-204.8-204.8zM512 102.4v358.4h51.2v-358.4l128 128 25.6-51.2-179.2-179.2-179.2 179.2 25.6 51.2 128-128z" />
<glyph unicode="&#xe937;" glyph-name="edit" data-tags="edit" d="M706.56 783.206l108.646-108.544-70.144-70.144-108.646 108.544zM263.168 231.117l162.816 54.272 287.437 287.386-108.646 108.544-287.334-287.232z" />
<glyph unicode="&#xe938;" glyph-name="operator" data-tags="operator" d="M972.8 256c0-140.8-115.2-256-256-256h-307.2c-28.16 0-51.2 23.040-51.2 51.2s23.040 51.2 51.2 51.2h204.8c28.16 0 51.2-23.040 51.2-51.2h51.2c112.64 0 204.8 92.16 204.8 204.8h-51.2v-51.2h-51.2c-28.16 0-51.2 23.040-51.2 51.2v204.8c0 28.16 23.040 51.2 51.2 51.2h25.6c0 184.32-148.48 332.8-332.8 332.8s-332.8-148.48-332.8-332.8h25.6c28.16 0 51.2-23.040 51.2-51.2v-204.8c0-28.16-23.040-51.2-51.2-51.2h-51.2v51.2h-51.2c-28.16 0-51.2 23.040-51.2 51.2v102.4c0 28.16 23.040 51.2 51.2 51.2 0 23.040 0 40.96 0 51.2 0 225.28 184.32 409.6 409.6 409.6s409.6-184.32 409.6-409.6c0-5.12 0-25.6 0-51.2v0c28.16 0 51.2-23.040 51.2-51.2v-153.6zM102.4 512v0c0 12.8 0 10.24 0 0z" />
<glyph unicode="&#xe939;" glyph-name="error-circle-fill" data-tags="error-circle-fill" d="M512 908.8c-247.398 0-448-200.602-448-448s200.602-448 448-448 448 200.55 448 448-200.602 448-448 448zM707.789 335.565c19.456-19.456 19.456-51.098 0-70.554s-51.098-19.456-70.554 0l-125.235 125.235-125.235-125.235c-19.456-19.456-51.098-19.456-70.554 0s-19.456 51.098 0 70.554l125.235 125.235-125.235 125.235c-19.456 19.456-19.456 51.098 0 70.554s51.098 19.456 70.554 0l125.235-125.235 125.235 125.235c19.456 19.456 51.098 19.456 70.554 0s19.456-51.098 0-70.554l-125.235-125.235 125.235-125.235z" />
<glyph unicode="&#xe93a;" glyph-name="error-circle-empty" data-tags="error-circle-empty" d="M868.381 817.193c-95.181 95.232-221.747 147.661-356.403 147.661s-261.222-52.429-356.413-147.661c-95.201-95.191-147.64-221.768-147.64-356.393s52.429-261.192 147.64-356.393c95.201-95.232 221.798-147.661 356.424-147.661s261.222 52.429 356.424 147.661c95.232 95.201 147.661 221.768 147.661 356.393s-52.429 261.202-147.661 356.393zM846.109 126.689c-89.252-89.272-207.913-138.445-334.131-138.445-126.208 0-244.879 49.172-334.131 138.445-89.262 89.242-138.414 207.892-138.414 334.111s49.152 244.869 138.414 334.131c89.252 89.242 207.923 138.404 334.131 138.404 126.228 0 244.879-49.152 334.131-138.424 89.272-89.252 138.414-207.903 138.414-334.111s-49.152-244.869-138.414-334.111zM652.942 599.368c-6.144 6.144-16.118 6.144-22.272 0l-118.692-118.682-118.682 118.682c-6.144 6.144-16.108 6.144-22.262 0-6.144-6.144-6.144-16.118 0-22.272l118.682-118.682-118.682-118.682c-6.144-6.164-6.144-16.128 0-22.282 3.072-3.072 7.107-4.608 11.141-4.608s8.059 1.536 11.131 4.608l118.671 118.671 118.682-118.682c3.072-3.072 7.117-4.608 11.162-4.608 4.024 0 8.049 1.536 11.131 4.608 6.144 6.144 6.144 16.118 0 22.272l-118.682 118.682 118.682 118.682c6.144 6.164 6.144 16.138 0 22.292z" />
<glyph unicode="&#xe93b;" glyph-name="exclamation-triangle" data-tags="exclamation-triangle" d="M963.072 166.605l-387.072 711.168c-26.112 48.026-95.13 48.026-121.344 0l-393.728-711.168c-24.986-46.080 8.294-102.042 60.621-102.042h780.8c52.378 0.102 85.709 56.064 60.672 102.093zM576 178.381c0-11.162-9.062-20.224-20.275-20.224h-87.45c-11.264 0-20.275 9.011-20.275 20.224v81.306c0 11.264 9.062 20.275 20.275 20.275h87.45c11.264 0 20.275-9.114 20.275-20.326v-81.306zM576 382.925c0-11.264-9.062-20.326-20.275-20.326h-87.45c-11.264 0-20.275 9.062-20.275 20.275l-10.138 225.024c0 11.264 9.062 20.275 20.275 20.275h107.725c11.264 0 20.275-9.011 20.275-20.224l-10.138-225.075z" />
<glyph unicode="&#xe93c;" glyph-name="exclamation" data-tags="exclamation" d="M590.694 51.2h-157.184c-22.118 0-40.090 17.92-40.090 40.141v122.214c0 22.118 17.92 40.090 40.141 40.090h157.184c22.118 0 40.090-17.92 40.090-40.141v-122.163c0-22.118-17.92-40.090-40.090-40.090zM606.208 867.789h-187.904c-22.17 0-40.141-17.92-40.141-40.141l20.122-431.411c0-22.17 17.92-40.141 40.090-40.141h146.125c22.17 0 40.141 17.92 40.141 40.141l21.709 431.411c0 22.17-18.022 40.141-40.192 40.141z" />
<glyph unicode="&#xe93d;" glyph-name="flag" data-tags="flag" d="M256 819.2v-768l256 256 256-256v768h-512zM716.8 179.2l-204.8 204.8-204.8-204.8v588.8h409.6v-588.8z" />
<glyph unicode="&#xe93e;" glyph-name="export" data-tags="export" d="M486.4 860.518v-552.806h51.2v552.806l86.323-86.323 36.198 36.352-148.122 147.917-148.122-147.968 36.198-36.198zM642.048 689.408v-51.2h66.355v-433.459h-392.806v433.306h66.355v51.2h-117.504v-535.654h495.206v535.757zM289.997 102.4h444.058v-51.2h-444.058z" />
<glyph unicode="&#xe93f;" glyph-name="external-url" data-tags="external-url" d="M775.578 249.652h-593.562v335.872h372.224v45.67h-372.224v57.446h458.752v45.722h-504.525v-530.432h685.056v357.581h-45.67zM755.61 820.071v-45.722h88.064l-381.030-382.157 32.358-32.256 380.928 382.106v-87.91h45.67v165.888z" />
<glyph unicode="&#xe940;" glyph-name="flag-fill" data-tags="flag-fill" d="M256 819.2v-768l256 256 256-256v768z" />
<glyph unicode="&#xe941;" glyph-name="sort-desc" data-tags="sort-desc" d="M204.8 307.2h307.2v102.4h-307.2v-102.4zM204.8 102.4h153.6v102.4h-153.6v-102.4zM204.8 512h460.8v102.4h-460.8v-102.4zM204.8 819.2v-102.4h614.4v102.4h-614.4z" />
<glyph unicode="&#xe942;" glyph-name="pdf" data-tags="pdf" d="M174.501 972.8c-38.538 0-69.75-31.246-69.75-69.813v-884.374c0-38.554 31.258-69.813 69.813-69.813h605.062c38.554 0 69.813 31.261 69.813 69.813v40.75h69.813v238.499h-69.813v419.875l-253.938 255.062zM174.501 940.8h407.75l235.189-236.314v-406.626h-398.501v-238.499h398.501v-40.75c0-20.877-16.931-37.813-37.813-37.813h-605.062c-20.875 0-37.813 16.925-37.813 37.813v884.374c0 20.891 16.885 37.813 37.75 37.813zM491.438 254.8h56.938c17.114 0 30.619-4.334 40.438-13.062s14.688-20.25 14.688-34.501c0-14.25-4.869-25.715-14.688-34.374s-23.323-13-40.438-13h-27.062v-54h-29.875zM624.875 254.8h52c18.205 0 33.203-5.811 45-17.438s17.688-26.546 17.688-44.75v-24.626c0-18.274-5.893-33.194-17.688-44.75s-26.795-17.374-45-17.374h-52zM793.374 231.8v-41h57.125v-23.062c0 0-38.083 0-57.125 0v-61.875h-29.875v148.938h97.438v-23zM521.314 231.8v-48.875h27.062c8.318 0 14.642 2.216 18.938 6.75s6.438 10.352 6.438 17.374c0 7.158-2.114 13.080-6.374 17.75s-10.614 7-19 7zM654.75 231.8v-103h22.125c9.818 0 17.686 3.67 23.688 11s9 16.733 9 28.189v24.813c0 11.386-3 20.766-9 28.062s-13.869 10.938-23.688 10.938zM815.53 749.71l22.474-22.576-3.917-9.424h-31.854l-208.778 209.731v32.146l9.322 3.848 22.678-22.782v-153.112c0-20.906 16.922-37.83 37.806-37.83h152.267zM663.262 717.71c-38.554 0-69.806 31.246-69.806 69.83v185.258l253.93-255.090h-184.122zM682.958 597.526h16v32h-437.435v-32h16zM682.958 493.526h16v32h-437.435v-32h16zM443.256 389.526h16v32h-197.733v-32h16z" />
<glyph unicode="&#xe943;" glyph-name="phone" data-tags="phone" d="M355.021 600.576c45.21 45.312 84.634 73.216 4.454 172.902-80.026 99.738-133.427 23.142-177.254-20.685-50.586-50.586-2.662-239.104 183.654-425.472 186.368-186.368 374.784-234.24 425.472-183.654 43.776 43.827 120.32 97.28 20.634 177.459-99.686 80.128-127.59 40.704-172.851-4.506-31.539-31.59-111.616 34.406-180.531 103.424-69.018 69.018-135.014 148.992-103.424 180.582z" />
<glyph unicode="&#xe944;" glyph-name="print" data-tags="print" d="M870.4 665.6h-153.6v204.8h-409.6v-204.8h-153.6v-409.6h153.6v-204.8h409.6v204.8h153.6v409.6zM358.4 819.2h307.2v-153.6h-307.2c0 0 0 153.6 0 153.6zM358.4 102.4v307.2h307.2v-307.2h-307.2zM819.2 307.2h-102.4v153.6h-409.6v-153.6h-102.4v307.2h614.4v-307.2zM614.4 307.2h-204.8v-51.2h204.8v51.2zM614.4 204.8h-204.8v-51.2h204.8v51.2zM716.8 512v51.2h-102.4v-51.2h102.4z" />
<glyph unicode="&#xe945;" glyph-name="question" data-tags="question" d="M512 826.676c-199.987 0-362.138-162.15-362.138-362.138s162.15-362.138 362.138-362.138c199.987 0 362.138 162.15 362.138 362.138s-162.15 362.138-362.138 362.138zM492.39 199.834c-27.802 0-50.534 21.299-50.534 47.258s22.733 47.206 50.534 47.206c27.802 0 50.534-21.248 50.534-47.206s-22.733-47.206-50.534-47.206zM715.11 521.984c-4.813-12.954-11.264-24.781-19.251-35.328-7.834-10.65-16.896-20.326-27.136-29.030s-20.685-16.896-31.437-24.832-21.299-15.514-31.744-23.040c-10.24-7.373-19.61-15.36-27.853-23.757-8.192-8.397-15.002-17.408-20.224-27.136l-5.274-9.626c-1.843-12.646-28.262-23.040-58.624-23.040s-52.429 19.763-48.896 43.93l8.704 16.691c8.704 16.691 19.302 31.334 31.744 43.878 12.39 12.39 25.6 23.552 39.68 33.28 14.080 9.523 27.136 19.149 39.066 28.672 12.083 9.472 22.016 19.61 29.85 30.362 7.885 10.752 11.776 23.45 11.776 38.093 0 9.882-1.946 19.098-5.99 27.648-4.096 8.55-9.984 16.026-17.818 22.374-7.936 6.349-17.408 11.264-28.826 14.848s-24.371 5.427-38.912 5.427c-14.131 0-27.136-2.048-38.912-6.349-11.93-4.301-22.323-10.24-31.232-18.022-8.96-7.68-16.384-17.050-22.17-28.16l-5.786-11.008c-3.072-13.824-31.949-24.32-64.41-22.938-32.461 1.536-54.477 24.064-48.845 50.278l10.24 21.504c10.394 21.504 24.576 40.294 42.496 56.32 17.92 15.872 39.936 28.672 66.048 38.042s56.32 14.080 90.829 14.080c33.126 0 62.618-3.891 88.576-11.571 25.907-7.68 47.923-18.534 66.048-32.461 18.022-13.926 31.744-30.618 41.37-50.074 9.523-19.456 14.234-41.062 14.234-64.768-0.102-16.589-2.56-31.334-7.322-44.288z" />
<glyph unicode="&#xe946;" glyph-name="sort-asc" data-tags="sort-asc" d="M512 614.4h-307.2v-102.4h307.2v102.4zM358.4 819.2h-153.6v-102.4h153.6v102.4zM665.6 409.6h-460.8v-102.4h460.8v102.4zM204.8 204.8v-102.4h614.4v102.4h-614.4z" />
<glyph unicode="&#xe947;" glyph-name="settings" data-tags="settings" d="M623.974 8.448h-223.949v108.134c-20.992 6.656-41.472 15.155-61.184 25.446l-76.544-76.493-158.362 158.362 76.493 76.544c-10.24 19.712-18.842 40.192-25.446 61.184h-108.134v223.949h108.134c6.656 20.992 15.155 41.472 25.446 61.184l-76.493 76.595 158.208 158.31 76.544-76.442c19.712 10.24 40.192 18.842 61.184 25.446v108.032h224v-108.032c20.992-6.656 41.472-15.206 61.184-25.498l76.544 76.493 158.362-158.362-76.493-76.544c10.24-19.712 18.842-40.192 25.446-61.184h108.237v-224h-108.288c-6.656-20.992-15.104-41.472-25.395-61.184l76.493-76.544-158.362-158.362-76.544 76.288c-19.712-10.24-40.192-18.79-61.184-25.395v-108.032zM448.614 57.088h126.822v96.512l18.074 4.71c29.082 7.526 57.19 19.2 83.456 34.662l16.179 9.523 68.454-68.454 89.6 89.6-68.403 68.506 9.626 16.077c15.36 26.266 27.136 54.374 34.56 83.456l4.71 18.227h96.666v127.181h-96.666l-4.71 18.227c-7.526 29.082-19.2 57.19-34.662 83.456l-9.626 16.179 68.454 68.454-89.702 89.6-68.454-68.506-16.128 9.626c-26.214 15.514-54.272 27.136-83.456 34.714l-18.176 4.71v96.819h-126.72v-96.768l-18.227-4.608c-29.082-7.578-57.19-19.251-83.456-34.714l-16.23-9.626-68.454 68.403-89.6-89.702 68.454-68.506-9.574-16.179c-15.36-26.266-27.136-54.374-34.611-83.456l-4.71-18.227h-96.666v-126.822h96.666l4.71-18.074c7.526-29.082 19.2-57.19 34.662-83.456l9.728-16.179-68.608-68.608 89.754-89.6 68.454 68.454 16.077-9.574c26.266-15.36 54.374-27.136 83.456-34.662l18.227-4.71v-96.563zM512 260.915c-117.248 0-212.685 95.437-212.685 212.685s95.437 212.736 212.685 212.736 212.736-95.488 212.736-212.736-95.488-212.685-212.736-212.685zM512 637.747c-90.47 0-164.096-73.728-164.096-164.147 0-90.47 73.626-164.096 164.096-164.096 90.522 0 164.096 73.626 164.096 164.096s-73.626 164.096-164.096 164.096z" />
<glyph unicode="&#xe948;" glyph-name="spinner" data-tags="spinner" d="M923.29 678.4c0-57.6-46.694-104.294-104.294-104.294s-104.294 46.694-104.294 104.294c0 57.6 46.694 104.294 104.294 104.294s104.294-46.694 104.294-104.294zM605.338 805.478c0-51.775-41.972-93.747-93.747-93.747s-93.747 41.972-93.747 93.747c0 51.775 41.972 93.747 93.747 93.747s93.747-41.972 93.747-93.747zM335.258 678.4c0-43.631-35.37-79.002-79.002-79.002s-79.002 35.37-79.002 79.002c0 43.631 35.37 79.002 79.002 79.002s79.002-35.37 79.002-79.002zM215.552 423.219c0-34.215-27.737-61.952-61.952-61.952s-61.952 27.737-61.952 61.952c0 34.215 27.737 61.952 61.952 61.952s61.952-27.737 61.952-61.952zM318.054 217.907c0-34.215-27.737-61.952-61.952-61.952s-61.952 27.737-61.952 61.952c0 34.215 27.737 61.952 61.952 61.952s61.952-27.737 61.952-61.952zM573.542 115.61c0-34.215-27.737-61.952-61.952-61.952s-61.952 27.737-61.952 61.952c0 34.215 27.737 61.952 61.952 61.952s61.952-27.737 61.952-61.952zM829.952 217.446c0-34.215-27.737-61.952-61.952-61.952s-61.952 27.737-61.952 61.952c0 34.215 27.737 61.952 61.952 61.952s61.952-27.737 61.952-61.952zM932.352 422.4c0-34.215-27.737-61.952-61.952-61.952s-61.952 27.737-61.952 61.952c0 34.215 27.737 61.952 61.952 61.952s61.952-27.737 61.952-61.952z" />
<glyph unicode="&#xe949;" glyph-name="star" data-tags="star" d="M512 985.6l158.208-337.101 353.946-54.016-256.154-262.298 60.57-370.586-316.57 174.899-316.518-174.899 60.416 370.483-255.898 262.349 353.792 54.067zM1024.154 594.432l-353.946 54.118-158.208 337.050-158.208-337.101-353.997-54.067 256.205-262.298-60.57-370.534 316.57 174.899 316.518-174.899-60.416 370.483 256 262.4zM512 211.354l-234.752-129.741 44.851 274.739-189.952 194.56 262.656 40.090 117.197 250.010 117.35-250.010 262.502-40.090-189.952-194.56 44.749-274.79-234.65 129.741z" />
<glyph unicode="&#xe94a;" glyph-name="success-empty" data-tags="success-empty" horiz-adv-x="1159" d="M511.992-51.188c-282.32 0-511.997 229.683-511.997 511.997s229.683 511.997 511.997 511.997c122.307 0 240.68-43.809 333.346-123.368 7.188-6.187 8.011-17.011 1.848-24.199-6.199-7.23-17.035-8.017-24.211-1.848-86.437 74.219-196.86 115.095-310.977 115.095-263.377 0-477.665-214.288-477.665-477.665 0-263.401 214.276-477.683 477.665-477.683s477.665 214.276 477.665 477.665c0 18.871-1.109 37.807-3.266 56.266-1.109 9.417 5.633 17.941 15.038 19.037 9.417 1.192 17.959-5.615 19.061-15.038 2.325-19.771 3.517-40.054 3.517-60.271 0-282.32-229.671-511.997-511.997-511.997zM520.688 269.379c-4.339 0-8.684 1.645-12.016 4.911l-273.689 268.205c-6.771 6.616-6.872 17.5-0.238 24.271 6.628 6.771 17.488 6.89 24.277 0.238l261.84-256.595 584.636 557.832c6.837 6.539 17.732 6.3 24.271-0.572 6.539-6.854 6.288-17.702-0.572-24.259l-596.658-569.276c-3.314-3.159-7.588-4.739-11.849-4.739zM654.719 140.736h-285.461c-9.477 0-17.166 7.671-17.166 17.166 0 9.477 7.689 17.166 17.166 17.166h285.461c9.489 0 17.166-7.689 17.166-17.166 0-9.495-7.677-17.166-17.166-17.166z" />
<glyph unicode="&#xe94c;" glyph-name="key" data-tags="key" d="M563.2 468.48v-212.48h102.4v-102.4h-102.4v-51.2c0-28.16-23.040-51.2-51.2-51.2s-51.2 23.040-51.2 51.2v366.080c-87.040 23.040-153.6 102.4-153.6 197.12 0 112.64 92.16 204.8 204.8 204.8s204.8-92.16 204.8-204.8c0-94.72-66.56-174.080-153.6-197.12zM512 768c-56.32 0-102.4-46.080-102.4-102.4s46.080-102.4 102.4-102.4 102.4 46.080 102.4 102.4-46.080 102.4-102.4 102.4z" />
<glyph unicode="&#xe94d;" glyph-name="trash" data-tags="trash" d="M870.4 832h-256v102.4h-256v-102.4h-256v-51.2h102.4v-768h563.2v768h102.4v51.2zM409.6 883.2h153.6v-51.2h-153.6v51.2zM716.8 64h-460.8v716.8h460.8v-716.8zM358.4 729.6h51.2v-614.4h-51.2v614.4zM563.2 729.6h51.2v-614.4h-51.2v614.4z" />
<glyph unicode="&#xe94e;" glyph-name="bell" data-tags="bell" d="M605.967 98.492c-16.485 0-29.833-13.346-29.833-29.833 0-32.794-28.595-60.196-64.127-60.196s-64.127 27.402-64.127 60.196c0 16.485-13.346 29.833-29.833 29.833s-29.833-13.346-29.833-29.833c0-66.338 55.864-119.859 123.79-119.859s123.79 53.52 123.79 119.859c0 16.485-13.346 29.833-29.833 29.833zM929.611 248.27l-84.767 81.233v233.087c0 142.045-96.303 264.732-233.308 306.055v7.514c0 53.919-44.993 96.61-99.528 96.61-54.228 0-99.528-43.4-99.528-96.61v-7.514c-137.006-41.28-233.308-164.009-233.308-306.055v-233.087l-84.767-81.233c-5.879-5.614-9.194-13.392-9.194-21.523v-44.504c0-16.485 13.346-29.833 29.833-29.833h793.931c16.485 0 29.833 13.346 29.833 29.833v44.504c0 8.086-3.315 15.912-9.194 21.523zM238.833 316.73v245.818c0 121.539 87.463 226.37 210.062 254.125 13.613 3.094 23.246 15.16 23.246 29.081v30.363c0 19.666 18.032 36.946 39.864 36.946 22.231 0 39.864-16.705 39.864-36.946v-30.363c0-13.921 9.635-26.033 23.246-29.081 122.599-27.756 210.062-132.586 210.062-254.125v-245.818c0-8.133 3.315-15.912 9.194-21.523l84.767-81.233v-1.944h-734.266v1.944l84.767 81.233c5.879 5.614 9.194 13.392 9.194 21.523z" />
<glyph unicode="&#xe94f;" glyph-name="success-fill" data-tags="success-fill" d="M512 908.8c-247.398 0-448-200.602-448-448s200.602-448 448-448 448 200.55 448 448-200.602 448-448 448zM728.32 541.696l-243.2-256c-9.626-10.24-23.040-15.974-37.12-15.974h-1.024c-14.438 0.307-28.16 6.656-37.53 17.562l-115.2 132.403c-18.586 21.35-16.384 53.658 4.966 72.192 21.197 18.586 53.555 16.486 72.192-4.915l78.234-89.856 204.442 215.194c19.456 20.48 51.866 21.35 72.346 1.843 20.48-19.456 21.402-51.917 1.894-72.397z" />
<glyph unicode="&#xe950;" glyph-name="clone" data-tags="clone" d="M893.645 13.107l-557.773 2.048c-43.674 0-79.155 35.482-79.155 79.155v555.52c0 43.674 35.482 79.155 85.811 79.155h557.773c37.018 0 72.499-35.482 72.499-79.104v-557.568c0-43.674-35.482-79.206-79.155-79.206zM370.688 628.019c-6.912 0-12.544-5.632-12.544-12.595v-487.629c0-6.963 5.632-12.595 12.595-12.595h487.219c6.963 0 12.544 5.632 12.544 12.595v487.629c0 6.912-5.53 12.595-12.493 12.595h-487.322zM204.493 166.707h-73.933c-43.725 0-79.206 35.533-79.206 79.206v608.768c0 43.622 35.482 79.104 79.155 79.104h557.722c43.674 0 79.155-35.482 79.155-79.155v-73.83h-101.222v39.219c0 6.963-5.632 12.595-12.544 12.595h-487.987c-6.963 0-12.595-5.632-12.595-12.595v-538.624c0-6.963 5.632-12.595 12.544-12.595h38.912v-102.093z" />
<glyph unicode="&#xe951;" glyph-name="lock" data-tags="lock" d="M768 512v102.4c0 140.8-115.2 256-256 256s-256-115.2-256-256v-102.4c-56.32 0-102.4-46.080-102.4-102.4v-256c0-56.32 46.080-102.4 102.4-102.4h512c56.32 0 102.4 46.080 102.4 102.4v256c0 56.32-46.080 102.4-102.4 102.4zM563.2 307.2l-51.2-153.6-51.2 153.6v51.2c0 28.16 23.040 51.2 51.2 51.2s51.2-23.040 51.2-51.2v-51.2zM665.6 512h-307.2v102.4c0 84.48 69.12 153.6 153.6 153.6s153.6-69.12 153.6-153.6v-102.4z" />
<glyph unicode="&#xe952;" glyph-name="more" data-tags="more" d="M870.4 230.4c0-42.415-34.385-76.8-76.8-76.8s-76.8 34.385-76.8 76.8c0 42.415 34.385 76.8 76.8 76.8s76.8-34.385 76.8-76.8zM614.4 230.4c0-42.415-34.385-76.8-76.8-76.8s-76.8 34.385-76.8 76.8c0 42.415 34.385 76.8 76.8 76.8s76.8-34.385 76.8-76.8zM358.4 230.4c0-42.415-34.385-76.8-76.8-76.8s-76.8 34.385-76.8 76.8c0 42.415 34.385 76.8 76.8 76.8s76.8-34.385 76.8-76.8z" />
<glyph unicode="&#xe953;" glyph-name="doc-overdue" data-tags="document-overdue" d="M542.72 57.856l-147.456 247.808 100.352 129.024-110.592 139.264 114.688 159.744-79.872 190.464-333.824-47.104 116.736-835.584 4.096-30.72 317.44 45.056 18.432 2.048zM133.12 842.24l262.144 38.912 57.344-141.312-118.784-167.936 108.544-137.216-96.256-124.928 133.12-221.184-235.52-32.768-110.592 786.432zM747.52 920.064l-204.8 14.336 77.824-212.992-108.544-149.504 67.584-145.408-108.544-137.216 51.2-229.376 14.336 4.096-2.048-10.24 317.44-43.008 90.112 655.36-194.56 253.952zM759.808 852.48l137.216-180.224-159.744 22.528 22.528 157.696zM819.2 53.76l-262.144 36.864-43.008 188.416 110.592 141.312-67.584 147.456 108.544 147.456-63.488 176.128 116.736-6.144-26.624-225.28 202.752-26.624-75.776-579.584z" />
<glyph unicode="&#xe954;" glyph-name="refresh" data-tags="refresh" d="M512 102.4c-143.36 0-266.24 84.48-322.56 204.8h117.76v51.2h-204.8v-204.8h51.2v110.080c69.12-125.44 204.8-212.48 358.4-212.48 166.4 0 309.76 99.84 373.76 240.64l-40.96 40.96c-51.2-135.68-179.2-230.4-332.8-230.4zM870.4 768v-110.080c-69.12 125.44-204.8 212.48-358.4 212.48-166.4 0-309.76-99.84-373.76-240.64l40.96-40.96c51.2 135.68 179.2 230.4 332.8 230.4 143.36 0 266.24-84.48 322.56-204.8h-117.76v-51.2h204.8v204.8h-51.2z" />
<glyph unicode="&#xe955;" glyph-name="revert" data-tags="revert" d="M870.4 153.6v110.080c-69.12-125.44-204.8-212.48-358.4-212.48-225.28 0-409.6 184.32-409.6 409.6s184.32 409.6 409.6 409.6c166.4 0 309.76-99.84 373.76-240.64l-40.96-40.96c-51.2 135.68-179.2 230.4-332.8 230.4-197.12 0-358.4-161.28-358.4-358.4s161.28-358.4 358.4-358.4c143.36 0 266.24 84.48 322.56 204.8h-117.76v51.2h204.8v-204.8h-51.2z" />
<glyph unicode="&#xe956;" glyph-name="comment-add" data-tags="comment-add" d="M204.8 179.2v537.6c0 28.16 23.040 51.2 51.2 51.2h512c28.16 0 51.2-23.040 51.2-51.2v-204.8h51.2v204.8c0 56.32-46.080 102.4-102.4 102.4h-512c-56.32 0-102.4-46.080-102.4-102.4v-665.6l204.8 204.8h256v51.2h-281.6l-128-128zM870.4 307.2v102.4h-51.2v-102.4h-102.4v-51.2h102.4v-102.4h51.2v102.4h102.4v51.2h-102.4z" />
<glyph unicode="&#xe957;" glyph-name="comment-del" data-tags="comment-del" d="M204.8 179.2v537.6c0 28.16 23.040 51.2 51.2 51.2h512c28.16 0 51.2-23.040 51.2-51.2v-204.8h51.2v204.8c0 56.32-46.080 102.4-102.4 102.4h-512c-56.32 0-102.4-46.080-102.4-102.4v-665.6l204.8 204.8h256v51.2h-281.6l-128-128zM960 409.6l-38.4 38.4-102.4-102.4-102.4 102.4-38.4-38.4 102.4-102.4-102.4-102.4 38.4-38.4 102.4 102.4 102.4-102.4 38.4 38.4-102.4 102.4 102.4 102.4z" />
<glyph unicode="&#xe958;" glyph-name="cloud-up" data-tags="cloud-up" d="M819.2 314.88v53.76c58.88 20.48 102.4 76.8 102.4 143.36s-43.52 122.88-104.96 145.92c-7.68 89.6-84.48 161.28-176.64 161.28-81.92 0-148.48-53.76-171.52-128h-43.52c-17.92 15.36-40.96 25.6-66.56 25.6-56.32 0-102.4-46.080-102.4-102.4v0 0-51.2c-56.32 0-102.4-46.080-102.4-102.4s46.080-102.4 102.4-102.4v-51.2c-84.48 0-153.6 69.12-153.6 153.6 0 66.56 43.52 122.88 102.4 143.36 0 2.56 0 5.12 0 10.24 0 84.48 69.12 153.6 153.6 153.6 28.16 0 53.76-7.68 76.8-20.48 38.4 71.68 115.2 122.88 204.8 122.88 110.080 0 199.68-76.8 225.28-176.64 64-33.28 107.52-102.4 107.52-181.76 0-94.72-66.56-174.080-153.6-197.12zM716.8 332.8l-25.6-51.2-128 128v-358.4h-51.2v358.4l-128-128-25.6 51.2 179.2 179.2 179.2-179.2z" />
<glyph unicode="&#xe959;" glyph-name="comment" data-tags="comment" d="M256 819.2h512c56.32 0 102.4-46.080 102.4-102.4v-358.4c0-56.32-46.080-102.4-102.4-102.4h-409.6l-204.8-204.8v665.6c0 56.32 46.080 102.4 102.4 102.4zM204.8 179.2l128 128h435.2c28.16 0 51.2 23.040 51.2 51.2v358.4c0 28.16-23.040 51.2-51.2 51.2h-512c-28.16 0-51.2-23.040-51.2-51.2v-537.6z" />
<glyph unicode="&#xe95a;" glyph-name="c-download" data-tags="1c-download" horiz-adv-x="1365" d="M933.229 247.545l-114.029-91.385v348.16c0 12.64-10.988 21.675-23.627 21.675s-24.16-9.035-24.16-21.675v-348.16l-112.527 93.047c-9.735 8.028-24.125 6.69-32.198-3.089s-6.69-24.173 3.089-32.246l150.849-124.368c4.198-3.461 9.271-5.212 14.394-5.212 5.168-0.044 10.24 1.662 14.486 5.076l152.327 122.569c9.919 7.888 11.486 22.327 3.553 32.154-7.895 9.868-22.378 11.39-32.157 3.454zM1035.824 657.005c-2.075 0-4.383-0.044-6.782-0.184-28.969 101.441-102.735 157.491-210.589 157.491-87.972 0-159.826-32.133-201.578-107.36l25.76-54.135 5.222 12.493c30.078 71.827 92.355 102.871 170.595 102.871 92.955 0 152.924-50.19 170.179-140.701l4.291-22.234 22.234 3.782c5.997 1.014 14.486 1.891 20.712 1.891 60.662 0 105.503-44.749 105.503-102.226 0-67.721-56.525-110.189-124.198-110.189h-153.6v-44.373h153.6c93.14 0 170.329 61.423 170.329 154.563 0 82.483-65.966 148.361-151.678 148.313zM730.453 374.613h-300.373c-58.088 0-105.257 46.343-105.257 104.431s47.258 105.346 105.346 105.346 105.725-45.875 105.725-103.963h30.72c0 75.025-61.42 134.683-136.445 134.683s-136.066-61.041-136.066-136.066c0-74.97 60.867-135.062 135.817-135.148v-0.003h300.534v30.72zM730.453 395.093v30.72h-300.373c-29.798 0-53.958 23.429-53.958 53.231 0 29.798 24.245 54.043 54.043 54.043s54.528-22.863 54.528-52.661h30.72c0 46.739-38.506 83.384-85.245 83.384s-84.763-38.025-84.763-84.763c0-46.595 37.707-83.715 84.251-83.941v-0.014h300.797zM177.493 586.24h68.267v-242.347h30.72v273.067h-98.987zM150.187 535.040h44.373v-191.147h30.72v221.867h-75.093z" />
<glyph unicode="&#xe95b;" glyph-name="e-inv-small" data-tags="e-inv-small" d="M819.2 614.4v102.4h-307.2v-512h307.2v102.4h-204.8v102.4h153.6v102.4h-153.6v102.4h204.8zM307.2 614.4h102.4v102.4h-102.4v-102.4zM256 409.6h153.6v102.4h-153.6v-102.4zM204.8 204.8h204.8v102.4h-204.8v-102.4z" />
<glyph unicode="&#xe95c;" glyph-name="prolongation" data-tags="prolongation" d="M307.226 255.999h51.2v-51.2h-51.2v51.2zM409.626 255.999h51.2v-51.2h-51.2v51.2zM512.026 255.999h51.2v-51.2h-51.2v51.2zM614.426 255.999h51.2v-51.2h-51.2v51.2zM778.88 540.261l173.568 173.517c14.336 14.387 14.336 37.734 0 52.122l-173.568 173.517-36.198-36.198 135.27-135.219h-401.203c-229.325 0-415.949-188.723-415.949-418.099s186.624-401.101 415.949-401.101c229.325 0 415.949 186.573 415.949 415.898h-51.2c0-201.114-163.584-364.698-364.749-364.698-201.114 0-364.749 148.838-364.749 349.901 0.051 201.165 163.635 366.899 364.749 366.899h406.272l-140.339-140.339 36.198-36.198zM307.226 563.199h358.4v-51.2h-358.4v51.2zM307.226 409.599h358.4v-51.2h-358.4v51.2z" />
<glyph unicode="&#xe95d;" glyph-name="phone1" data-tags="phone1" d="M512 972.8c-282.778 0-512-229.222-512-512s229.222-512 512-512 512 229.222 512 512-229.222 512-512 512zM512 21.965c-242.381 0-438.835 196.506-438.835 438.835s196.454 438.835 438.835 438.835 438.835-196.454 438.835-438.835c-0.256-242.278-196.557-438.579-438.835-438.835zM718.438 327.168c-44.339 3.43-87.91 13.466-129.28 29.696-13.056 5.018-27.853 1.741-37.683-8.243l-11.571-10.547c-33.126 14.848-62.618 36.762-86.426 64.205-27.648 24.269-49.92 54.016-65.28 87.45l11.571 10.547c10.035 9.779 13.261 24.576 8.243 37.683-16.23 41.37-26.266 84.941-29.696 129.229-0.563 7.475-6.912 13.158-14.387 13.005l-100.915-1.229c-4.045-0.102-7.168-3.482-7.066-7.526 0 0 0-0.051 0-0.051 19.149-249.344 217.293-447.437 466.637-466.586 4.045-0.154 7.424 2.97 7.629 7.014 0 0 0 0.051 0 0.051l1.229 100.915c0.205 7.475-5.53 13.824-13.005 14.387z" />
<glyph unicode="&#xe95e;" glyph-name="question1" data-tags="question1" d="M512 899.635c242.381 0 438.835-196.506 438.835-438.835s-196.454-438.835-438.835-438.835-438.835 196.454-438.835 438.835c0.256 242.278 196.557 438.579 438.835 438.835zM512 972.8c-282.778 0-512-229.222-512-512s229.222-512 512-512 512 229.222 512 512-229.222 512-512 512v0zM555.878 277.965c0-24.218-19.661-43.878-43.878-43.878s-43.878 19.661-43.878 43.878c0 24.218 19.661 43.878 43.878 43.878v0c24.218 0 43.878-19.661 43.878-43.878zM467.251 387.635l-0.614 16.282c-1.126 36.25 11.776 71.475 36.096 98.355 18.586 17.254 31.027 40.141 35.43 65.178-0.102 21.146-17.306 38.195-38.4 38.093-2.099 0-4.147-0.205-6.195-0.512-15.923-0.307-31.59-3.891-46.029-10.547-7.219-3.277-15.77-0.051-18.995 7.168-0.256 0.614-0.512 1.229-0.717 1.843l-12.032 39.526c-2.202 7.066 1.229 14.643 7.987 17.664 28.416 13.056 59.29 19.712 90.573 19.507 80.691 0 117.35-45.722 117.35-97.741-3.072-40.499-21.658-78.234-51.968-105.267-20.429-20.89-31.693-49.101-31.181-78.336v-11.264l-81.306 0.051z" />
<glyph unicode="&#xe95f;" glyph-name="comment-fill" data-tags="comment-fill" d="M256 819.2h512c56.32 0 102.4-46.080 102.4-102.4v-358.4c0-56.32-46.080-102.4-102.4-102.4h-409.6l-204.8-204.8v665.6c0 56.32 46.080 102.4 102.4 102.4z" />
<glyph unicode="&#xe960;" glyph-name="minus" data-tags="minus" d="M204.8 512h614.4v-102.4h-614.4v102.4z" />
<glyph unicode="&#xe961;" glyph-name="mail1" data-tags="mail1" d="M972.8 153.6h-921.6v665.6h921.6v-665.6zM102.4 204.8h819.2v563.2h-819.2v-563.2zM512 353.946l-381.184 318.157c-11.315 9.421-12.237 25.6-2.202 36.147 10.086 10.598 27.443 11.418 38.707 2.048l344.678-287.693 344.678 287.693c11.366 9.37 28.57 8.55 38.707-2.048 10.035-10.547 9.114-26.726-2.202-36.147l-381.184-318.157z" />
<glyph unicode="&#xe962;" glyph-name="checkbox" data-tags="checkbox" d="M819.2 102.4h-716.8v716.8h716.8v-153.6h-51.2v102.4h-614.4v-614.4h614.4v256h51.2zM476.006 245.914l-221.594 244.685 37.939 34.304 188.058-207.616 510.106 440.218 33.485-38.707z" />
<glyph unicode="&#xe963;" glyph-name="receipt" data-tags="receipt" d="M870.4 522.701v206.899h-307.2v-51.2h256v-155.699l-167.424-0.051c-48.23 0-87.501-33.997-87.501-75.725v-152.986c0-41.728 39.27-75.725 87.501-75.725l167.424 0.461v-154.675h-512c-54.221 0-102.554 48.077-102.554 102.298v418.048c0 54.221 43.571 94.874 97.741 94.874v51.2c-82.381 0-148.019-63.642-148.019-146.074v-418.048c0.051-82.432 70.451-153.498 152.832-153.498h563.2v207.974c32.051 10.803 51.2 42.803 51.2 78.49v142.285c0 35.686-19.098 70.349-51.2 81.152zM870.4 299.315c0-16.435-13.414-31.59-29.85-31.59h-188.774c-19.354 0-36.301 13.158-36.301 26.214v155.085c0 13.056 16.947 24.525 36.301 24.525h188.774c16.435 0.051 29.85-13.414 29.85-29.85v-144.384zM765.44 367.258c0-26.948-21.846-48.794-48.794-48.794s-48.794 21.846-48.794 48.794c0 26.948 21.846 48.794 48.794 48.794s48.794-21.846 48.794-48.794zM577.485 833.075h136.141v50.074h-136.141c-93.133 0-166.81-75.776-166.81-168.96v-167.219l-85.146 82.995-36.198-36.198 144.845-144.794 144.794 144.794-36.25 36.198-82.995-82.995v167.219c0 64.922 52.787 118.886 117.76 118.886z" />
<glyph unicode="&#xe964;" glyph-name="write-off" data-tags="write-off" d="M870.4 522.701v206.899h-307.2v-51.2h256v-155.699l-167.424-0.051c-48.23 0-87.501-33.997-87.501-75.725v-152.986c0-41.728 39.27-75.725 87.501-75.725l167.424 0.461v-154.675h-512c-54.221 0-102.554 48.077-102.554 102.298v418.048c0 54.221 43.571 94.874 97.741 94.874v51.2c-82.381 0-148.019-63.642-148.019-146.074v-418.048c0.051-82.432 70.451-153.498 152.832-153.498h563.2v207.974c32.051 10.803 51.2 42.803 51.2 78.49v142.285c0 35.686-19.098 70.349-51.2 81.152zM870.4 299.315c0-16.435-13.414-31.59-29.85-31.59h-188.774c-19.354 0-36.301 13.158-36.301 26.214v155.085c0 13.056 16.947 24.525 36.301 24.525h188.774c16.435 0.051 29.85-13.414 29.85-29.85v-144.384zM765.44 367.258c0-26.948-21.846-48.794-48.794-48.794s-48.794 21.846-48.794 48.794c0 26.948 21.846 48.794 48.794 48.794s48.794-21.846 48.794-48.794zM409.6 883.2v-409.6h51.2v409.6l85.197-85.146 36.198 36.198-144.794 144.845-144.794-144.845 36.198-36.198z" />
<glyph unicode="&#xe965;" glyph-name="value-drop" data-tags="value-drop" d="M512 921.6c-254.106 0-460.8-206.694-460.8-460.8s206.694-460.8 460.8-460.8 460.8 206.694 460.8 460.8-206.746 460.8-460.8 460.8zM512 872.141c16.947 0 33.536-1.331 49.971-3.328-12.134-24.73-54.118-59.443-194.509-61.645-35.738-0.563-76.646-69.939-89.6-98.509-12.698-28.006 15.667-87.962-31.283-92.672-34.816 31.539-54.477 65.126-74.394 76.288 74.138 108.493 198.758 179.866 339.814 179.866zM102.912 417.894l86.426-13.978 28.826-109.158 45.312-144.179 74.189 1.792 8.192 156.774 49.408 107.11 59.238 25.344 93.133-143.155 79.309 136.038 111.974-25.344c36.966-8.346 73.779 14.797 82.227 51.763l18.944 82.995 60.314 51.251c14.592-42.138 22.989-87.245 22.989-134.349 0-51.507-9.933-100.608-27.29-146.074l-39.834 26.624-142.285-102.963v-135.578c-59.75-33.843-128.563-53.402-201.984-53.402-212.378 0.051-387.584 161.741-409.088 368.486z" />
<glyph unicode="&#xe966;" glyph-name="plus" data-tags="plus" d="M819.2 409.6h-256v-256h-102.4v256h-256v102.4h256v256h102.4v-256h256v-102.4z" />
<glyph unicode="&#xe967;" glyph-name="rub" data-tags="rub" d="M331.61 68.488v210.342h-105.728v28.642h105.728v151.793h-105.728v28.642h105.728v392.282h199.861c37.406 0 72.026-3.976 103.846-11.942 31.834-7.951 59.287-20.495 82.372-37.602s41.186-39.394 54.317-66.846 19.697-60.28 19.697-98.485c0-37.406-7.168-69.436-21.489-96.090s-33.626-48.55-57.901-65.656c-24.275-17.107-52.917-29.636-85.941-37.602-33.024-7.951-68.638-6.701-106.842-6.701h-160.467v-151.793h196.277v-28.642h-196.277v-210.357h-27.452zM359.063 487.921h164.051c34.214 0 66.048-1.852 95.488 4.909s54.904 17.513 76.393 32.226 38.204 33.626 50.131 56.696 17.905 50.929 17.905 83.561c0 33.431-5.768 61.877-17.303 85.353s-27.648 42.571-48.339 57.299c-20.691 14.728-45.161 25.66-73.412 32.828s-59.091 10.737-92.506 10.737h-172.408v-363.61z" />
<glyph unicode="&#xe968;" glyph-name="goz-doc" data-tags="goz-doc" d="M124.235 365.478c0-72.222 40.312-141.146 125.591-216.681 48.053-42.526 103.484-81.995 198.355-144.023 8.102-5.301 14.426-9.427 29.184-19.034 3.72-2.424 3.72-2.424 7.424-4.834 3.403-2.214 3.403-2.214 6.807-4.427 5.406-3.524 9.909-6.46 14.216-9.261l6.189-4.051 6.174 4.036c6.972 4.548 13.237 8.629 24.712 16.083 1.762 1.144 1.762 1.144 3.539 2.304 14.728 9.592 21.067 13.719 29.169 19.019 95.006 62.088 150.498 101.602 198.596 144.203 85.278 75.52 125.591 144.444 125.591 216.681v473.224l-387.765 143.872-387.78-143.872v-473.239zM139.46 820.284l376.486 139.671h-7.861l376.456-139.671-7.364 10.586v-465.393c0-64.723-37.090-128.136-117.986-199.77-47.029-41.653-101.873-80.685-195.976-142.2-8.087-5.286-14.426-9.412-29.124-18.989-1.762-1.144-1.762-1.144-3.524-2.289-11.475-7.469-17.754-11.55-24.727-16.113l6.159-9.457 6.174 9.457c-4.307 2.816-8.824 5.752-14.231 9.276-3.403 2.214-3.403 2.214-6.807 4.442-3.72 2.424-3.72 2.424-7.424 4.834-14.743 9.608-21.067 13.719-29.154 19.004-93.982 61.44-148.766 100.442-195.735 142.020-80.911 71.65-118.001 135.063-118.001 199.785v465.393l-7.364-10.586zM673.551 651.189c-0.030 1.37-0.286 2.741-0.813 4.036-0.572 1.385-1.385 2.635-2.424 3.674v0l-78.321 78.472c-1.039 1.039-2.289 1.867-3.659 2.44-1.385 0.572-2.846 0.873-4.322 0.873v0h-202.692c-9.683-0.136-15.977-7.74-15.902-16.023v-396.845c0-8.644 7.243-15.902 15.902-15.917h276.405c8.659 0 15.902 7.258 15.902 15.902v323.102c-0.015 0.105-0.075 0.181-0.075 0.286zM583.966 639.819l67.057-0.181v-305.167h-263.032v383.608h184.712v-66.967c0-6.219 5.045-11.279 11.264-11.294zM595.29 662.377v39.695l39.725-39.8-39.725 0.105zM418.816 562.839c0-6.234 5.060-11.294 11.294-11.294h178.824c6.234 0 11.294 5.060 11.294 11.294s-5.060 11.294-11.294 11.294h-178.824c-6.234 0-11.294-5.045-11.294-11.294zM608.949 518.776h-178.839c-6.234 0-11.294-5.060-11.294-11.294s5.060-11.294 11.294-11.294h178.824c6.234 0 11.294 5.060 11.294 11.294s-5.045 11.294-11.279 11.294zM608.949 468.721h-178.839c-6.234 0-11.294-5.060-11.294-11.294s5.060-11.294 11.294-11.294h178.824c6.234 0 11.294 5.060 11.294 11.294 0.015 6.249-5.045 11.294-11.279 11.294z" />
<glyph unicode="&#xe969;" glyph-name="goz" data-tags="goz" d="M124.235 365.478c0-72.222 40.312-141.146 125.591-216.681 48.053-42.526 103.484-81.995 198.355-144.023 8.102-5.301 14.426-9.427 29.184-19.034 3.72-2.424 3.72-2.424 7.424-4.834 3.403-2.214 3.403-2.214 6.807-4.427 5.406-3.524 9.909-6.46 14.216-9.261l6.189-4.051 6.174 4.036c6.972 4.548 13.237 8.629 24.712 16.083 1.762 1.144 1.762 1.144 3.539 2.304 14.728 9.592 21.067 13.719 29.169 19.019 95.006 62.088 150.498 101.602 198.596 144.203 85.278 75.52 125.591 144.444 125.591 216.681v473.224l-387.765 143.872-387.78-143.872v-473.239zM139.46 820.284l376.486 139.671h-7.861l376.456-139.671-7.364 10.586v-465.393c0-64.723-37.090-128.136-117.986-199.77-47.029-41.653-101.873-80.685-195.976-142.2-8.087-5.286-14.426-9.412-29.124-18.989-1.762-1.144-1.762-1.144-3.524-2.289-11.475-7.469-17.754-11.55-24.727-16.113l6.159-9.457 6.174 9.457c-4.307 2.816-8.824 5.752-14.231 9.276-3.403 2.214-3.403 2.214-6.807 4.442-3.72 2.424-3.72 2.424-7.424 4.834-14.743 9.608-21.067 13.719-29.154 19.004-93.982 61.44-148.766 100.442-195.735 142.020-80.911 71.65-118.001 135.063-118.001 199.785v465.393l-7.364-10.586zM711.65 587.836h-136.599c0.392 0-42.24 129.897-42.24 129.897-4.804 14.788-21.835 14.577-26.564 0l-42.21-129.882c0.12 0.376-136.629-0.015-136.629-0.015-15.556 0-20.6-16.264-8.207-25.269l110.502-80.279c-0.316 0.241-42.195-129.912-42.195-129.912-4.804-14.788 9.096-24.621 21.489-15.616l110.502 80.264c-0.316-0.226 110.547-80.264 110.547-80.264 12.574-9.141 26.232 1.039 21.489 15.616l-42.21 129.882c0.12-0.376 110.517 80.309 110.517 80.309 12.604 9.141 7.123 25.269-8.192 25.269zM587.866 475.287l34.003-104.644-89.043 64.678c-7.575 5.496-18.974 5.527-26.594 0l-89.043-64.678 34.003 104.644c2.891 8.9-0.602 19.757-8.222 25.284l-89.043 64.678h110.050c9.352 0 18.598 6.671 21.519 15.631l34.018 104.659 34.018-104.659c2.891-8.9 12.092-15.631 21.519-15.631h110.050l-89.028-64.678c-7.575-5.496-11.128-16.324-8.207-25.284z" />
<glyph unicode="&#xe96a;" glyph-name="euro" data-tags="euro" d="M806.566 180.872c-64.648-64.648-141.779-96.964-231.394-96.964-45.538 0-87.040 8.087-124.506 24.245s-70.159 38.204-98.063 66.108-50.688 60.792-68.322 98.62c-17.634 37.828-30.148 69.376-36.759 112.73h-67.208l8.734 25.464h57.299c-0.738 3.674-0.813 15.526-1.19 24.335-0.361 8.809-0.557 17.257-0.557 25.344 0 10.285 0.181 20.57 0.557 30.856 0.361 10.285 0.919 20.57 1.656 30.856h-66.108l8.809 23.145h59.497c5.873 44.815 17.634 86.679 35.253 125.606 17.634 38.927 40.584 72.719 68.864 101.376s61.711 51.23 100.277 67.765 81.739 24.772 129.476 24.772c39.665 0 76.213-6.054 109.628-18.176s65.928-30.675 97.521-55.642l-12.122-20.932c-31.593 23.507-62.434 41.141-92.552 52.887s-64.648 17.634-103.575 17.634c-44.077 0-83.742-7.71-118.995-23.145s-65.928-36.367-92.009-62.81c-26.082-26.443-47.194-57.66-63.352-93.666-16.158-35.991-26.805-74.556-31.955-115.697h448.452l-13.222-23.145h-437.444c-0.738-8.809-1.28-17.257-1.656-25.344-0.361-8.072-0.542-16.52-0.542-25.329v-27c0-9.186 0.271-24.154 1.732-33.702h417.611l-13.146-25.464h-401.077c6.611-39.665 18.568-67.915 35.102-102.807s37.466-65.37 62.81-91.452 55.1-46.652 89.254-61.711c34.153-15.059 72.538-22.588 115.14-22.588 90.353 0 166.746 36.728 229.195 110.185v-35.253l-1.114-1.099z" />
<glyph unicode="&#xe96b;" glyph-name="del" data-tags="del" d="M693.76 207.36l-181.76 181.76-181.76-181.76-71.68 71.68 181.76 181.76-181.76 181.76 71.68 71.68 181.76-181.76 181.76 181.76 71.68-71.68-181.76-181.76 181.76-181.76-71.68-71.68z" />
<glyph unicode="&#xe96c;" glyph-name="check" data-tags="check" d="M435.2 207.36l-230.4 225.28 76.8 76.8 153.6-158.72 358.4 363.52 76.8-76.8-435.2-430.080z" />
<glyph unicode="&#xe96d;" glyph-name="check-light" data-tags="check-light" d="M256 460.8l128-128 384 384 51.2-51.2-435.2-435.2-179.2 179.2 51.2 51.2z" />
<glyph unicode="&#xe96e;" glyph-name="clock" data-tags="clock" d="M569.139 732.416h-49.306v-310.374l286.618-286.566 34.867 34.867-272.179 272.128zM538.061-51.2c-129.792 0-251.802 50.534-343.603 142.336-91.75 91.75-142.336 213.811-142.336 343.603s50.534 251.802 142.336 343.603 213.811 142.336 343.603 142.336 251.802-50.534 343.603-142.336c91.75-91.75 142.336-213.811 142.336-343.603s-50.534-251.802-142.336-343.603-213.811-142.336-343.603-142.336zM538.061 871.27c-240.742 0-436.582-195.84-436.582-436.582s195.84-436.582 436.582-436.582 436.582 195.84 436.582 436.582-195.84 436.582-436.582 436.582z" />
<glyph unicode="&#xe96f;" glyph-name="percent" data-tags="percent" d="M94.72 752.324c0 55.057 17.546 100.446 52.64 136.17s80.168 53.586 135.225 53.586c55.897 0 101.182-17.967 135.855-53.901s52.009-82.479 52.009-139.638v-44.76c0-55.477-17.546-100.762-52.64-135.855s-79.748-52.64-133.964-52.64c-54.636 0-99.816 17.546-135.54 52.64s-53.586 81.849-53.586 140.268v44.129zM181.718 703.782c0-32.782 9.246-59.785 27.738-81.009s43.289-31.836 74.389-31.836c29.84 0 53.901 10.297 72.183 30.89s27.423 48.752 27.423 84.476v46.020c0 32.782-9.036 59.89-27.108 81.324s-42.658 32.151-73.759 32.151c-31.101 0-55.687-10.717-73.759-32.151s-27.108-49.383-27.108-83.846v-46.020zM541.686 236.012c0 55.057 17.546 100.341 52.64 135.855s80.168 53.27 135.225 53.27c55.057 0 100.236-17.652 135.54-52.955s52.955-82.164 52.955-140.583v-44.76c0-55.057-17.546-100.341-52.64-135.855s-79.958-53.27-134.594-53.27c-54.636 0-99.816 17.546-135.54 52.64s-53.586 81.849-53.586 140.268v45.39zM628.684 186.839c0-33.202 9.246-60.415 27.738-81.639s43.289-31.836 74.389-31.836c30.26 0 54.426 10.402 72.498 31.206s27.108 49.067 27.108 84.791v46.651c0 33.202-9.141 60.31-27.423 81.324s-42.763 31.521-73.444 31.521c-29.84 0-54.111-10.402-72.813-31.206s-28.054-48.857-28.054-84.161v-46.651zM310.323 80.299l-66.194 41.608 448.227 717.415 66.194-41.608-448.227-717.415z" />
<glyph unicode="&#xe970;" glyph-name="prev" data-tags="prev" d="M665.6 204.8l-256 256 256 256-51.2 51.2-307.2-307.2 307.2-307.2 51.2 51.2z" />
<glyph unicode="&#xe971;" glyph-name="start" data-tags="start" d="M768 204.8l-256 256 256 256-51.2 51.2-307.2-307.2 307.2-307.2 51.2 51.2zM256 768h76.8v-614.4h-76.8v614.4z" />
<glyph unicode="&#xe972;" glyph-name="manage-request" data-tags="manage-request" d="M817.715 246.067c-67.43-79.872-169.574-130.867-284.058-130.867s-216.678 50.995-284.058 130.867h-64.256c75.162-109.773 203.059-182.067 348.314-182.067s273.101 72.294 348.262 182.067h-64.205zM295.782 746.65c64.102 53.146 146.995 85.35 237.875 85.35s173.722-32.205 237.824-85.35h73.779c-76.698 83.61-187.699 136.55-311.603 136.55s-234.957-52.941-311.654-136.55h73.779zM267.776 337.050h-219.802v43.008l101.478 114.739c15.155 17.869 25.907 33.024 32.307 45.363 6.349 12.39 9.574 23.757 9.574 34.099 0 13.517-3.379 24.32-10.138 32.41s-16.896 12.134-30.362 12.134c-14.234 0-25.293-5.222-33.075-15.514-7.834-10.394-11.776-23.501-11.776-39.424h-63.898l-0.41 1.382c-0.768 29.082 8.858 53.76 28.774 73.882 19.968 20.224 46.746 30.259 80.333 30.259s59.699-8.55 78.285-25.754c18.637-17.152 27.904-40.243 27.904-69.171 0-19.712-5.222-37.581-15.667-53.811s-28.365-38.605-53.862-67.277l-53.965-64.819 0.461-1.075h133.837v-50.432zM528.998 455.68c0-38.451-10.086-68.608-30.259-90.522-20.224-21.914-46.95-32.819-80.23-32.819-33.587 0-60.518 10.906-80.794 32.819s-30.31 52.019-30.31 90.522v90.214c0 38.246 10.086 68.403 30.259 90.47s46.95 33.075 80.435 33.075c33.28 0 60.109-11.008 80.435-33.075s30.515-52.224 30.515-90.47v-90.214h-0.051zM463.514 552.602c0 20.992-4.045 37.274-12.032 48.845-8.038 11.52-19.149 17.306-33.382 17.306-14.387 0-25.549-5.786-33.434-17.306-7.834-11.622-11.776-27.853-11.776-48.845v-103.27c0-21.504 3.994-37.99 11.93-49.408 7.936-11.469 19.149-17.152 33.69-17.152 14.234 0 25.344 5.683 33.178 17.203 7.885 11.469 11.827 27.904 11.827 49.408 0 0 0 103.219 0 103.219zM611.123 308.941h-63.898l120.166 355.738h63.898l-120.166-355.738zM982.374 614.093c-37.069-43.418-62.259-82.381-75.622-117.146-13.312-34.714-20.019-74.547-20.019-119.398v-40.499h-65.69v40.499c0 45.619 8.397 87.245 25.088 124.774 16.691 37.581 41.114 74.854 73.011 111.77h-167.168v50.586h230.4v-50.586z" />
<glyph unicode="&#xe973;" glyph-name="iconEye" data-tags="iconEye" horiz-adv-x="1463" d="M853.64 641.772v0c60.782 0 109.714-48.756 109.714-109.329 0-60.569-48.932-109.329-109.714-109.329s-109.714 48.76-109.714 109.329c0 60.573 48.932 109.329 109.714 109.329zM812.863 700.91c25.172-3.137 50.095-7.636 74.739-13.572 25.483-6.139 50.674-13.725 75.559-22.71 24.885-8.98 49.455-19.347 73.7-31.025 48.491-23.361 95.674-51.979 141.397-85.226 45.728-33.242 89.986-71.127 132.658-113.059-21.237-20.871-42.237-42.347-63.645-62.664-21.413-20.321-43.22-39.474-66.084-55.712-34.523-24.516-69.917-46.288-106.091-65.154-36.169-18.871-73.111-34.831-110.717-47.729-37.61-12.898-75.902-22.733-114.774-29.33-12.827-2.176-25.738-3.876-38.695-5.34 115.27 33.991 198.988 139.875 198.988 266.049 0 125.467-82.763 230.88-197.036 265.472v0zM649.682 700.91c-114.222-34.614-196.883-140.037-196.883-265.472 0-126.155 83.653-232.017 198.89-266.021-12.906 1.469-25.784 3.146-38.57 5.312-38.843 6.597-77.103 16.432-114.713 29.33-37.606 12.898-74.544 28.858-110.717 47.729-36.173 18.866-71.568 40.638-106.086 65.154-22.873 16.238-44.708 35.39-66.148 55.712-21.436 20.317-42.464 41.788-63.705 62.664 42.673 41.936 86.931 79.817 132.658 113.059 45.718 33.247 92.906 61.865 141.397 85.226 24.245 11.678 48.815 22.044 73.7 31.025 24.885 8.985 50.076 16.575 75.559 22.71 24.598 5.927 49.487 10.436 74.618 13.572v0zM73.144 435.286c48.236-50.307 95.512-103.519 147.461-142.666 78.401-59.079 160.826-104.956 246.241-136.046 85.41-31.085 173.787-47.332 264.487-47.332s179.225 16.247 264.64 47.332c85.415 31.090 167.807 76.966 246.208 136.046 51.935 39.137 99.114 92.368 147.34 142.666-193.828 202.142-416.709 326.283-658.188 326.283-241.494 0-464.351-124.118-658.188-326.283z" />
<glyph unicode="&#xe974;" glyph-name="icon-preapproved" data-tags="icon-preapproved" horiz-adv-x="975" d="M944.469 526.458l-14.531 16.091v4.194h-3.803l-146.334 161.987c-4.632 5.12-11.166 8.046-18.091 8.046h-554.228c-7.070 0-13.751-3.023-18.383-8.338l-141.068-161.694h-2.731v-3.121l-14.531-16.628c-7.997-9.167-7.997-22.821 0-31.988l438.613-505.271c0.488-0.536 1.17-0.78 1.658-1.268 0.683-0.683 1.17-1.463 1.95-2.048 0.244-0.146 0.488-0.195 0.731-0.341 0.536-0.39 1.219-0.536 1.804-0.926 1.317-0.78 2.536-1.463 3.95-1.999 0.683-0.244 1.17-0.731 1.853-0.926 2.146-0.585 4.291-0.829 6.388-0.829 0 0 0 0 0.049 0v0 0 0 0c0 0 0 0 0.049 0 2.097 0 4.242 0.293 6.388 0.829 0.683 0.195 1.219 0.683 1.902 0.975 1.414 0.488 2.633 1.219 3.901 1.95 0.585 0.341 1.268 0.536 1.853 0.926 0.244 0.146 0.488 0.195 0.683 0.341 0.78 0.585 1.268 1.414 1.999 2.097 0.488 0.488 1.17 0.683 1.658 1.219l438.613 504.442c8.046 9.265 7.948 23.162-0.341 32.28zM526.043 668.014l57.637-121.271h-191.781l57.637 121.271h76.507zM597.431 497.981l-109.666-400.043-109.666 400.043h219.331zM327.534 497.981l108.349-395.313-343.186 395.313h234.837zM647.997 497.981h235.52l-343.918-395.557 108.398 395.557zM860.453 546.743h-222.891l-57.637 121.271h170.91l109.617-121.271zM218.6 668.014h176.908l-57.588-121.271h-225.182l105.862 121.271zM495.323 814.933c11.215 0 20.334 9.118 20.334 20.334v101.571c0 11.215-9.118 20.334-20.334 20.334s-20.334-9.118-20.334-20.334v-101.571c0-11.215 9.118-20.334 20.334-20.334zM355.767 772.803c3.95-3.803 9.070-5.705 14.141-5.705 5.315 0 10.581 2.048 14.58 6.144 7.802 8.094 7.607 20.919-0.439 28.721l-70.363 68.218c-8.094 7.802-20.87 7.607-28.721-0.439-7.802-8.094-7.607-20.919 0.439-28.721l70.363-68.218zM633.905 767.098c5.071 0 10.191 1.902 14.141 5.705l70.363 68.169c8.046 7.802 8.241 20.675 0.439 28.721-7.753 8.094-20.675 8.192-28.721 0.439l-70.363-68.169c-8.046-7.802-8.241-20.675-0.439-28.721 3.95-4.096 9.314-6.144 14.58-6.144z" />
<glyph unicode="&#xe975;" glyph-name="ellips-eye" data-tags="ellips-eye" d="M512 755.2c-272.742 0-486.4-123.699-486.4-281.6s213.658-281.6 486.4-281.6 486.4 123.699 486.4 281.6-213.658 281.6-486.4 281.6zM512 243.2c-235.878 0-435.2 105.523-435.2 230.4s199.322 230.4 435.2 230.4 435.2-105.523 435.2-230.4-199.322-230.4-435.2-230.4zM512 678.4c-113.101 0-204.8-91.699-204.8-204.8s91.699-204.8 204.8-204.8 204.8 91.699 204.8 204.8-91.699 204.8-204.8 204.8zM588.8 473.6c-42.394 0-76.8 34.406-76.8 76.8s34.406 76.8 76.8 76.8 76.8-34.406 76.8-76.8-34.406-76.8-76.8-76.8z" />
<glyph unicode="&#xe976;" glyph-name="corpcard" data-tags="corpcard" d="M921.6 140.8h-819.2c-42.342 0-76.8 34.458-76.8 76.8v512c0 42.342 34.458 76.8 76.8 76.8h819.2c42.342 0 76.8-34.458 76.8-76.8v-512c0-42.342-34.458-76.8-76.8-76.8zM102.4 755.2c-14.131 0-25.6-11.469-25.6-25.6v-512c0-14.080 11.469-25.6 25.6-25.6h819.2c14.080 0 25.6 11.52 25.6 25.6v512c0 14.131-11.52 25.6-25.6 25.6h-819.2zM793.6 422.4c-19.763 0-37.581-7.68-51.2-19.917-13.619 12.237-31.437 19.917-51.2 19.917-42.394 0-76.8-34.406-76.8-76.8s34.406-76.8 76.8-76.8c19.763 0 37.581 7.68 51.2 19.917 13.619-12.237 31.437-19.917 51.2-19.917 42.394 0 76.8 34.406 76.8 76.8s-34.406 76.8-76.8 76.8zM691.2 320c-14.131 0-25.6 11.469-25.6 25.6s11.469 25.6 25.6 25.6 25.6-11.469 25.6-25.6-11.469-25.6-25.6-25.6zM204.8 627.2h204.8v-51.2h-204.8v51.2zM204.8 524.8h409.6v-51.2h-409.6v51.2z" />
<glyph unicode="&#xe977;" glyph-name="transit" data-tags="transit" d="M230.4 320c42.342 0 76.8-34.458 76.8-76.8s-34.458-76.8-76.8-76.8-76.8 34.458-76.8 76.8 34.458 76.8 76.8 76.8zM230.4 371.2c-70.707 0-128-57.293-128-128s57.293-128 128-128 128 57.293 128 128-57.293 128-128 128v0zM921.6 243.2c0-70.692-57.308-128-128-128s-128 57.308-128 128c0 70.692 57.308 128 128 128s128-57.308 128-128zM820.685 621.005c-49.562 118.272-171.622 199.014-308.685 199.014-183.501 0-332.8-140.698-332.8-313.6 0-14.131 11.469-25.6 25.6-25.6s25.6 11.469 25.6 25.6c0 144.691 126.31 262.4 281.6 262.4 108.698 0 206.592-59.034 253.082-147.814h-73.882l108.595-159.795 108.595 159.795h-87.706z" />
<glyph unicode="&#xe978;" glyph-name="success" data-tags="success" d="M512 972.8c-282.795 0-512-229.205-512-512s229.205-512 512-512 512 229.205 512 512-229.205 512-512 512zM512 5.689c-251.335 0-455.111 203.776-455.111 455.111s203.776 455.111 455.111 455.111 455.111-203.776 455.111-455.111-203.776-455.111-455.111-455.111zM465.010 360.107l-160.427 160.427-40.277-40.22 200.704-200.647 294.684 294.628-40.277 40.277z" />
<glyph unicode="&#xe97a;" glyph-name="deadline" data-tags="deadline" d="M241.548 392.331c-11.67-7.981-14.66-23.912-6.679-35.582s23.912-14.66 35.582-6.679l190.348 130.184v198.147c0 14.138-11.462 25.6-25.6 25.6s-25.6-11.462-25.6-25.6v-171.135l-168.052-114.935zM740.432 633.014c-8.183 19.644-18.155 38.525-29.78 56.435-67.406 103.844-185.198 168.151-314.28 168.151-204.567 0-370.772-160.248-370.772-358.4s166.205-358.4 370.772-358.4c10.556 0 21.061 0.427 31.497 1.276l-4.153 51.031c-9.055-0.737-18.174-1.108-27.344-1.108-176.699 0-319.572 137.751-319.572 307.2s142.872 307.2 319.572 307.2c111.698 0 213.346-55.494 271.334-144.828 9.949-15.326 18.473-31.468 25.463-48.247l47.263 19.688zM968.166 164.41l-193.729 343.022c-6.675 11.579-16.853 17.368-30.536 17.368s-23.695-5.789-30.035-17.368l-197.233-343.022c-6.341-11.257-6.174-22.273 0.501-33.048s16.686-16.162 30.035-16.162h390.461c13.349 0 23.361 5.387 30.035 16.162s6.841 21.791 0.501 33.048zM774.438 170.199c0-2.895-1.001-5.307-3.004-7.237s-4.338-2.895-7.008-2.895h-44.052c-2.67 0-5.006 0.965-7.008 2.895s-3.004 4.342-3.004 7.237v39.078c0 2.573 1.001 4.825 3.004 6.754s4.338 2.895 7.008 2.895h44.052c2.67 0 5.006-0.965 7.008-2.895s3.004-4.181 3.004-6.754v-39.078zM774.438 268.619c0-2.573-1.001-4.825-3.004-6.754s-4.338-2.895-7.008-2.895h-44.052c-2.67 0-5.006 0.965-7.008 2.895s-3.004 4.181-3.004 6.754l-5.006 108.551c0 2.895 1.001 5.227 3.004 6.996s4.338 2.653 7.008 2.653h54.064c2.67 0 5.006-0.884 7.008-2.653s3.004-4.101 3.004-6.996l-5.006-108.551z" />
<glyph unicode="&#xe97b;" glyph-name="iconTSJ" data-tags="iconTSJ" d="M599.883 460.589l73.005 82.643c19.878-17.649 50.537-16.926 69.692 2.409 0.904 0.904 2.349 0.904 3.253 0.060l9.758-9.698c0.904-0.904 0.843-2.349 0-3.192-9.638-9.698-14.938-22.528-14.999-36.081-0.060-13.493 5.18-26.202 14.637-35.659l0.12-0.12 53.549-53.248c21.926-21.805 55.597-25.118 81.86-8.072 21.203 13.794 40.538 29.455 57.525 46.502 16.926 17.047 32.467 36.503 46.14 57.766 16.866 26.263 13.372 59.814-8.433 81.619l-0.181 0.181-53.549 53.248c-9.577 9.517-22.347 14.697-35.9 14.577s-26.383-5.542-35.96-15.24c-0.783-0.783-2.47-0.783-3.192 0l-9.758 9.698c-0.723 0.723-0.723 2.409 0 3.192 19.878 19.998 19.998 52.164 0.361 71.8l-0.12 0.12-122.94 122.097c-112.76 112.038-225.581 112.881-282.805 103.424-24.937-4.216-43.49-26.323-43.068-51.561 0.361-25.058 18.974-46.261 43.249-50.236 75.656-12.348 92.943-101.557 96.437-128.602 2.831-22.046 10.842-42.948 22.95-60.898l-84.149-74.21 122.519-122.519zM520.011 370.116l-275.878-312.501c-22.167-25.118-54.031-40.297-87.341-41.502-33.31-1.265-65.837 11.445-89.269 34.876s-36.141 55.959-34.876 89.269c1.265 33.31 16.384 65.114 41.562 87.341l312.681 275.697 133.12-133.18z" />
<glyph unicode="&#xe97c;" glyph-name="iconSchetSmall" data-tags="iconSchetSmall" d="M995.755 784.968h-845.861c-15.575 0-28.246-12.672-28.246-28.246v-48.614h-71.606c-27.601 0-50.041-22.348-50.041-49.857v-454.794c0-27.508 22.44-49.857 50.041-49.857h848.349c27.601 0 50.041 22.348 50.041 49.903v73.035h47.322c15.621 0 28.246 12.626 28.246 28.246v451.937c0 15.575-12.626 28.246-28.246 28.246zM902.356 203.551c0-2.165-1.751-3.826-3.963-3.826h-848.349c-2.165 0-3.963 1.706-3.963 3.777v454.748c0 2.074 1.797 3.777 3.963 3.777h71.606v-357.198c0-15.621 12.672-28.246 28.246-28.246h752.461v-73.035zM977.924 322.664h-810.197v416.227h810.197v-416.227zM570.96 637.287c58.289 0 105.52-46.309 105.52-103.4s-47.23-103.4-105.52-103.4-105.52 46.263-105.52 103.4 47.23 103.4 105.52 103.4zM570.96 683.365c-83.585 0-151.598-67.044-151.598-149.479 0-82.389 68.012-149.479 151.598-149.479s151.598 67.044 151.598 149.479-68.012 149.479-151.598 149.479v0zM934.84 646.733c0-25.448-20.63-46.077-46.077-46.077s-46.077 20.63-46.077 46.077c0 25.448 20.63 46.077 46.077 46.077s46.077-20.63 46.077-46.077zM934.84 416.341c0-25.448-20.63-46.077-46.077-46.077s-46.077 20.63-46.077 46.077c0 25.448 20.63 46.077 46.077 46.077s46.077-20.63 46.077-46.077zM289.742 646.733c0-25.448-20.63-46.077-46.077-46.077s-46.077 20.63-46.077 46.077c0 25.448 20.63 46.077 46.077 46.077s46.077-20.63 46.077-46.077zM289.742 416.341c0-25.448-20.63-46.077-46.077-46.077s-46.077 20.63-46.077 46.077c0 25.448 20.63 46.077 46.077 46.077s46.077-20.63 46.077-46.077z" />
<glyph unicode="&#xe97d;" glyph-name="calendar" data-tags="calendar" horiz-adv-x="970" d="M75.453 802.358v43.116c0 64.674 53.895 118.568 118.568 118.568h635.958c64.674 0 118.568-53.895 118.568-118.568v-743.747c0-64.674-53.895-118.568-118.568-118.568h-635.958c-64.674 0-118.568 53.895-118.568 118.568v43.116h64.674v-43.116c0-26.947 21.558-53.895 53.895-53.895h635.958c26.947 0 53.895 21.558 53.895 53.895v743.747c0 26.947-21.558 53.895-53.895 53.895h-635.958c-26.947 0-53.895-21.558-53.895-53.895v-43.116h-64.674zM75.453 629.895h64.674v-312.589h-64.674v312.589zM323.368 683.789h377.263c16.168 0 32.337 16.168 32.337 32.337s-16.168 32.337-32.337 32.337h-377.263c-16.168 0-32.337-16.168-32.337-32.337s16.168-32.337 32.337-32.337zM323.368 522.105h377.263c16.168 0 32.337 16.168 32.337 32.337s-16.168 32.337-32.337 32.337h-377.263c-16.168 0-32.337-16.168-32.337-32.337s16.168-32.337 32.337-32.337zM323.368 360.421h377.263c16.168 0 32.337 16.168 32.337 32.337s-16.168 32.337-32.337 32.337h-377.263c-16.168 0-32.337-16.168-32.337-32.337s16.168-32.337 32.337-32.337zM323.368 198.737h377.263c16.168 0 32.337 16.168 32.337 32.337s-16.168 32.337-32.337 32.337h-377.263c-16.168 0-32.337-16.168-32.337-32.337s16.168-32.337 32.337-32.337zM53.895 198.737h107.789c16.168 0 32.337 16.168 32.337 32.337s-16.168 32.337-32.337 32.337h-107.789c-16.168 0-32.337-16.168-32.337-32.337s16.168-32.337 32.337-32.337zM53.895 683.789h107.789c16.168 0 32.337 16.168 32.337 32.337s-16.168 32.337-32.337 32.337h-107.789c-16.168 0-32.337-16.168-32.337-32.337s16.168-32.337 32.337-32.337z" />
<glyph unicode="&#xe97e;" glyph-name="iconLink" data-tags="iconLink" horiz-adv-x="2611" d="M1081.685 7.111h-569.116c-257.593 0-467.058 209.237-467.058 466.489s209.465 466.489 466.83 466.489h568.206c257.365 0 466.83-209.237 466.83-466.489 0-37.774-30.606-68.267-68.267-68.267s-68.267 30.492-68.267 68.267c0 181.931-148.252 329.956-330.297 329.956h-568.206c-182.158 0-330.297-148.025-330.297-329.956s148.252-329.956 330.524-329.956h567.979c37.774 0 68.836-30.606 68.836-68.267s-30.037-68.267-67.698-68.267zM2104.548 7.111h-568.206c-257.365 0-466.83 209.237-466.83 466.489 0 37.774 30.606 68.267 68.267 68.267s68.267-30.606 68.267-68.267c0-181.931 148.139-329.956 330.297-329.956h568.206c182.158 0 330.297 148.139 330.297 329.956 0 181.931-148.366 329.956-330.524 329.956h-567.979c-37.66 0-68.722 30.606-68.722 68.267s30.037 68.267 67.698 68.267h569.116c257.593 0 466.944-209.237 466.944-466.489s-209.351-466.489-466.83-466.489z" />
</font>
</defs>
</svg>
